EB Garamond-Regular Italic.ufo
<glyph name="exclam" format="1">
  <advance width="287"/>
  <unicode hex="0021"/>
  <note>
    exclam
  </note>
  <outline>
    <contour>
      <point x="171" y="205"/>
      <point x="182" y="222"/>
      <point x="191" y="244" type="curve" smooth="yes"/>
      <point x="237" y="357"/>
      <point x="311" y="535"/>
      <point x="331" y="598" type="curve" smooth="yes"/>
      <point x="340" y="627"/>
      <point x="322" y="649"/>
      <point x="295" y="649" type="curve" smooth="yes"/>
      <point x="266" y="649"/>
      <point x="247" y="626"/>
      <point x="239" y="598" type="curve" smooth="yes"/>
      <point x="221" y="534"/>
      <point x="179" y="358"/>
      <point x="155" y="244" type="curve" smooth="yes"/>
      <point x="149" y="215"/>
      <point x="151" y="205"/>
      <point x="161" y="205" type="curve" smooth="yes"/>
    </contour>
    <contour>
      <point x="141" y="-14"/>
      <point x="174" y="16"/>
      <point x="174" y="54" type="curve" smooth="yes"/>
      <point x="174" y="81"/>
      <point x="153" y="106"/>
      <point x="125" y="106" type="curve" smooth="yes"/>
      <point x="85" y="106"/>
      <point x="53" y="76"/>
      <point x="53" y="38" type="curve" smooth="yes"/>
      <point x="53" y="11"/>
      <point x="74" y="-14"/>
      <point x="102" y="-14" type="curve" smooth="yes"/>
    </contour>
  </outline>
</glyph>
<glyph name="numbersign" format="1">
  <advance width="449"/>
  <unicode hex="0023"/>
  <note>
    numbersign
  </note>
  <outline>
    <contour>
      <point x="-7" y="-88"/>
      <point x="12" y="-86"/>
      <point x="19" y="-73" type="curve" smooth="yes"/>
      <point x="108" y="106" type="line"/>
      <point x="221" y="112" type="line"/>
      <point x="137" y="-62" type="line"/>
      <point x="136" y="-65" type="line" smooth="yes"/>
      <point x="134" y="-71"/>
      <point x="137" y="-77"/>
      <point x="143" y="-77" type="curve" smooth="yes"/>
      <point x="156" y="-77"/>
      <point x="174" y="-75"/>
      <point x="180" y="-62" type="curve" smooth="yes"/>
      <point x="265" y="114" type="line"/>
      <point x="320" y="117" type="line" smooth="yes"/>
      <point x="342" y="118"/>
      <point x="362" y="155"/>
      <point x="363" y="165" type="curve" smooth="yes"/>
      <point x="364" y="172"/>
      <point x="360" y="177"/>
      <point x="353" y="177" type="curve"/>
      <point x="294" y="174" type="line"/>
      <point x="361" y="312" type="line"/>
      <point x="415" y="315" type="line" smooth="yes"/>
      <point x="437" y="316"/>
      <point x="456" y="354"/>
      <point x="457" y="364" type="curve" smooth="yes"/>
      <point x="458" y="371"/>
      <point x="454" y="375"/>
      <point x="447" y="375" type="curve"/>
      <point x="391" y="372" type="line"/>
      <point x="473" y="544" type="line" smooth="yes"/>
      <point x="474" y="546"/>
      <point x="474" y="547"/>
      <point x="475" y="549" type="curve" smooth="yes"/>
      <point x="478" y="555"/>
      <point x="474" y="561"/>
      <point x="469" y="561" type="curve" smooth="yes"/>
      <point x="455" y="561"/>
      <point x="436" y="558"/>
      <point x="429" y="544" type="curve" smooth="yes"/>
      <point x="344" y="370" type="line"/>
      <point x="235" y="364" type="line"/>
      <point x="317" y="533" type="line"/>
      <point x="317" y="535"/>
      <point x="319" y="536"/>
      <point x="319" y="538" type="curve" smooth="yes"/>
      <point x="319" y="544"/>
      <point x="319" y="550"/>
      <point x="314" y="550" type="curve" smooth="yes"/>
      <point x="300" y="550"/>
      <point x="279" y="547"/>
      <point x="272" y="533" type="curve" smooth="yes"/>
      <point x="189" y="362" type="line"/>
      <point x="120" y="359" type="line" smooth="yes"/>
      <point x="100" y="358"/>
      <point x="86" y="321"/>
      <point x="85" y="311" type="curve" smooth="yes"/>
      <point x="84" y="304"/>
      <point x="89" y="299"/>
      <point x="96" y="299" type="curve"/>
      <point x="157" y="302" type="line"/>
      <point x="91" y="164" type="line"/>
      <point x="26" y="161" type="line" smooth="yes"/>
      <point x="4" y="160"/>
      <point x="-8" y="123"/>
      <point x="-9" y="113" type="curve" smooth="yes"/>
      <point x="-10" y="106"/>
      <point x="-6" y="101"/>
      <point x="1" y="101" type="curve"/>
      <point x="61" y="104" type="line"/>
      <point x="-27" y="-73" type="line"/>
      <point x="-28" y="-76" type="line" smooth="yes"/>
      <point x="-30" y="-82"/>
      <point x="-26" y="-88"/>
      <point x="-20" y="-88" type="curve" smooth="yes"/>
    </contour>
    <contour>
      <point x="204" y="304" type="line"/>
      <point x="315" y="310" type="line"/>
      <point x="250" y="172" type="line"/>
      <point x="137" y="166" type="line"/>
    </contour>
  </outline>
</glyph>
<glyph name="dollar" format="1">
  <advance width="483"/>
  <unicode hex="0024"/>
  <note>
    dollar
  </note>
  <outline>
    <contour>
      <point x="342" y="-15"/>
      <point x="425" y="74"/>
      <point x="425" y="184" type="curve" smooth="yes"/>
      <point x="425" y="240"/>
      <point x="394" y="290"/>
      <point x="323" y="352" type="curve" smooth="yes"/>
      <point x="252" y="415"/>
      <point x="226" y="453"/>
      <point x="226" y="506" type="curve" smooth="yes"/>
      <point x="226" y="566"/>
      <point x="282" y="635"/>
      <point x="356" y="635" type="curve" smooth="yes"/>
      <point x="428" y="635"/>
      <point x="477" y="585"/>
      <point x="477" y="492" type="curve" smooth="yes"/>
      <point x="477" y="477"/>
      <point x="479" y="466"/>
      <point x="490" y="466" type="curve" smooth="yes"/>
      <point x="494" y="466"/>
      <point x="503" y="478"/>
      <point x="506" y="498" type="curve" smooth="yes"/>
      <point x="522" y="601"/>
      <point x="546" y="626"/>
      <point x="546" y="629" type="curve" smooth="yes"/>
      <point x="546" y="634"/>
      <point x="544" y="645"/>
      <point x="533" y="645" type="curve" smooth="yes"/>
      <point x="526" y="645"/>
      <point x="521" y="643"/>
      <point x="516" y="640" type="curve" smooth="yes"/>
      <point x="511" y="637"/>
      <point x="505" y="635"/>
      <point x="496" y="635" type="curve" smooth="yes"/>
      <point x="486" y="635"/>
      <point x="467" y="644"/>
      <point x="440" y="652" type="curve" smooth="yes"/>
      <point x="416" y="658"/>
      <point x="390" y="664"/>
      <point x="368" y="664" type="curve" smooth="yes"/>
      <point x="245" y="664"/>
      <point x="151" y="588"/>
      <point x="151" y="482" type="curve" smooth="yes"/>
      <point x="151" y="401"/>
      <point x="194" y="352"/>
      <point x="256" y="298" type="curve" smooth="yes"/>
      <point x="322" y="238"/>
      <point x="339" y="205"/>
      <point x="339" y="153" type="curve" smooth="yes"/>
      <point x="339" y="77"/>
      <point x="276" y="15"/>
      <point x="186" y="15" type="curve" smooth="yes"/>
      <point x="100" y="15"/>
      <point x="62" y="75"/>
      <point x="62" y="152" type="curve" smooth="yes"/>
      <point x="62" y="179"/>
      <point x="61" y="191"/>
      <point x="50" y="191" type="curve" smooth="yes"/>
      <point x="39" y="191"/>
      <point x="35" y="185"/>
      <point x="33" y="171" type="curve" smooth="yes"/>
      <point x="21" y="92"/>
      <point x="-15" y="31"/>
      <point x="-15" y="19" type="curve" smooth="yes"/>
      <point x="-15" y="11"/>
      <point x="-1" y="0"/>
      <point x="5" y="0" type="curve" smooth="yes"/>
      <point x="10" y="0"/>
      <point x="17" y="5"/>
      <point x="26" y="10" type="curve" smooth="yes"/>
      <point x="33" y="13"/>
      <point x="40" y="16"/>
      <point x="47" y="16" type="curve" smooth="yes"/>
      <point x="52" y="16"/>
      <point x="64" y="11"/>
      <point x="82" y="4" type="curve" smooth="yes"/>
      <point x="117" y="-9"/>
      <point x="154" y="-15"/>
      <point x="189" y="-15" type="curve" smooth="yes"/>
    </contour>
    <contour>
      <point x="103" y="-95"/>
      <point x="117" y="-91"/>
      <point x="121" y="-80" type="curve"/>
      <point x="455" y="712" type="line"/>
      <point x="458" y="720"/>
      <point x="455" y="729"/>
      <point x="448" y="729" type="curve" smooth="yes"/>
      <point x="436" y="729"/>
      <point x="422" y="725"/>
      <point x="416" y="712" type="curve"/>
      <point x="83" y="-80" type="line"/>
      <point x="80" y="-88"/>
      <point x="85" y="-95"/>
      <point x="93" y="-95" type="curve" smooth="yes"/>
    </contour>
  </outline>
</glyph>
<glyph name="ampersand" format="1">
  <advance width="822"/>
  <unicode hex="0026"/>
  <note>
    ampersand
  </note>
  <outline>
    <contour>
      <point x="615" y="-15"/>
      <point x="757" y="115"/>
      <point x="757" y="300" type="curve" smooth="yes"/>
      <point x="757" y="361"/>
      <point x="748" y="400"/>
      <point x="722" y="446" type="curve" smooth="yes"/>
      <point x="717" y="454"/>
      <point x="721" y="459"/>
      <point x="732" y="459" type="curve" smooth="yes"/>
      <point x="841" y="459"/>
      <point x="910" y="516"/>
      <point x="910" y="607" type="curve" smooth="yes"/>
      <point x="910" y="673"/>
      <point x="875" y="716"/>
      <point x="822" y="716" type="curve" smooth="yes"/>
      <point x="771" y="716"/>
      <point x="733" y="686"/>
      <point x="733" y="647" type="curve" smooth="yes"/>
      <point x="733" y="615"/>
      <point x="755" y="593"/>
      <point x="787" y="593" type="curve" smooth="yes"/>
      <point x="810" y="593"/>
      <point x="828" y="608"/>
      <point x="828" y="627" type="curve" smooth="yes"/>
      <point x="828" y="636"/>
      <point x="823" y="647"/>
      <point x="813" y="650" type="curve" smooth="yes"/>
      <point x="802" y="653"/>
      <point x="798" y="662"/>
      <point x="798" y="671" type="curve" smooth="yes"/>
      <point x="798" y="680"/>
      <point x="806" y="689"/>
      <point x="817" y="689" type="curve" smooth="yes"/>
      <point x="847" y="689"/>
      <point x="869" y="664"/>
      <point x="869" y="630" type="curve" smooth="yes"/>
      <point x="869" y="562"/>
      <point x="822" y="528"/>
      <point x="728" y="527" type="curve" smooth="yes"/>
      <point x="641" y="526" type="line" smooth="yes"/>
      <point x="555" y="525"/>
      <point x="486" y="465"/>
      <point x="486" y="391" type="curve" smooth="yes"/>
      <point x="486" y="327"/>
      <point x="532" y="285"/>
      <point x="601" y="285" type="curve" smooth="yes"/>
      <point x="636" y="285"/>
      <point x="661" y="314"/>
      <point x="662" y="343" type="curve" smooth="yes"/>
      <point x="663" y="367"/>
      <point x="649" y="385"/>
      <point x="619" y="385" type="curve" smooth="yes"/>
      <point x="600" y="385"/>
      <point x="594" y="372"/>
      <point x="588" y="361" type="curve" smooth="yes"/>
      <point x="583" y="352"/>
      <point x="577" y="343"/>
      <point x="563" y="343" type="curve" smooth="yes"/>
      <point x="535" y="343"/>
      <point x="524" y="366"/>
      <point x="524" y="391" type="curve" smooth="yes"/>
      <point x="524" y="430"/>
      <point x="550" y="458"/>
      <point x="595" y="458" type="curve" smooth="yes"/>
      <point x="688" y="458"/>
      <point x="719" y="402"/>
      <point x="719" y="322" type="curve" smooth="yes"/>
      <point x="719" y="191"/>
      <point x="626" y="68"/>
      <point x="436" y="68" type="curve" smooth="yes"/>
      <point x="217" y="68"/>
      <point x="146" y="173"/>
      <point x="146" y="289" type="curve" smooth="yes"/>
      <point x="146" y="392"/>
      <point x="200" y="464"/>
      <point x="287" y="464" type="curve" smooth="yes"/>
      <point x="328" y="464"/>
      <point x="356" y="445"/>
      <point x="356" y="419" type="curve" smooth="yes"/>
      <point x="356" y="388"/>
      <point x="333" y="368"/>
      <point x="297" y="368" type="curve" smooth="yes"/>
      <point x="231" y="368"/>
      <point x="199" y="419"/>
      <point x="199" y="525" type="curve" smooth="yes"/>
      <point x="199" y="603"/>
      <point x="255" y="658"/>
      <point x="322" y="658" type="curve" smooth="yes"/>
      <point x="345" y="658"/>
      <point x="360" y="643"/>
      <point x="360" y="621" type="curve" smooth="yes"/>
      <point x="360" y="607"/>
      <point x="377" y="591"/>
      <point x="392" y="591" type="curve" smooth="yes"/>
      <point x="419" y="591"/>
      <point x="436" y="609"/>
      <point x="436" y="636" type="curve" smooth="yes"/>
      <point x="436" y="686"/>
      <point x="399" y="717"/>
      <point x="340" y="718" type="curve" smooth="yes"/>
      <point x="237" y="720"/>
      <point x="147" y="638"/>
      <point x="147" y="534" type="curve" smooth="yes"/>
      <point x="147" y="412"/>
      <point x="209" y="328"/>
      <point x="299" y="328" type="curve" smooth="yes"/>
      <point x="356" y="328"/>
      <point x="399" y="366"/>
      <point x="399" y="416" type="curve" smooth="yes"/>
      <point x="399" y="465"/>
      <point x="356" y="498"/>
      <point x="290" y="499" type="curve" smooth="yes"/>
      <point x="177" y="500"/>
      <point x="90" y="394"/>
      <point x="90" y="249" type="curve" smooth="yes"/>
      <point x="90" y="93"/>
      <point x="223" y="-15"/>
      <point x="413" y="-15" type="curve" smooth="yes"/>
    </contour>
  </outline>
</glyph>
<glyph name="quotesingle" format="1">
  <advance width="172"/>
  <unicode hex="0027"/>
  <note>
    quotesingle
  </note>
  <outline>
    <contour>
      <point x="152" y="444"/>
      <point x="165" y="457"/>
      <point x="173" y="469" type="curve" smooth="yes"/>
      <point x="199" y="505"/>
      <point x="232" y="555"/>
      <point x="262" y="624" type="curve" smooth="yes"/>
      <point x="271" y="645"/>
      <point x="281" y="676"/>
      <point x="267" y="676" type="curve" smooth="yes"/>
      <point x="252" y="676"/>
      <point x="239" y="667"/>
      <point x="220" y="655" type="curve" smooth="yes"/>
      <point x="209" y="648"/>
      <point x="195" y="633"/>
      <point x="192" y="619" type="curve" smooth="yes"/>
      <point x="183" y="577"/>
      <point x="175" y="547"/>
      <point x="164" y="515" type="curve" smooth="yes"/>
      <point x="159" y="500"/>
      <point x="154" y="484"/>
      <point x="148" y="467" type="curve" smooth="yes"/>
      <point x="145" y="458"/>
      <point x="142" y="444"/>
      <point x="147" y="444" type="curve" smooth="yes"/>
    </contour>
  </outline>
</glyph>
<glyph name="parenleft" format="1">
  <advance width="308"/>
  <unicode hex="0028"/>
  <note>
    parenleft
  </note>
  <outline>
    <contour>
      <point x="131" y="-216"/>
      <point x="135" y="-206"/>
      <point x="131" y="-194" type="curve" smooth="yes"/>
      <point x="100" y="-100"/>
      <point x="87" y="-26"/>
      <point x="87" y="48" type="curve" smooth="yes"/>
      <point x="87" y="306"/>
      <point x="231" y="513"/>
      <point x="394" y="676" type="curve" smooth="yes"/>
      <point x="405" y="687"/>
      <point x="408" y="694"/>
      <point x="408" y="699" type="curve" smooth="yes"/>
      <point x="408" y="703"/>
      <point x="403" y="705"/>
      <point x="398" y="705" type="curve" smooth="yes"/>
      <point x="390" y="705"/>
      <point x="379" y="701"/>
      <point x="369" y="693" type="curve" smooth="yes"/>
      <point x="167" y="532"/>
      <point x="30" y="311"/>
      <point x="30" y="72" type="curve" smooth="yes"/>
      <point x="30" y="-5"/>
      <point x="44" y="-83"/>
      <point x="80" y="-177" type="curve" smooth="yes"/>
      <point x="90" y="-203"/>
      <point x="106" y="-216"/>
      <point x="122" y="-216" type="curve" smooth="yes"/>
    </contour>
  </outline>
</glyph>
<glyph name="asterisk" format="1">
  <advance width="339"/>
  <unicode hex="002A"/>
  <note>
    asterisk
  </note>
  <outline>
    <contour>
      <point x="221" y="378"/>
      <point x="226" y="385"/>
      <point x="230" y="393" type="curve"/>
      <point x="244" y="425"/>
      <point x="255" y="453"/>
      <point x="264" y="480" type="curve"/>
      <point x="283" y="459"/>
      <point x="305" y="437"/>
      <point x="328" y="411" type="curve"/>
      <point x="331" y="408"/>
      <point x="338" y="405"/>
      <point x="344" y="405" type="curve" smooth="yes"/>
      <point x="351" y="405"/>
      <point x="358" y="410"/>
      <point x="358" y="419" type="curve" smooth="yes"/>
      <point x="358" y="424"/>
      <point x="356" y="430"/>
      <point x="353" y="434" type="curve"/>
      <point x="333" y="463"/>
      <point x="315" y="485"/>
      <point x="297" y="507" type="curve"/>
      <point x="327" y="514"/>
      <point x="357" y="521"/>
      <point x="387" y="528" type="curve"/>
      <point x="395" y="530"/>
      <point x="404" y="536"/>
      <point x="404" y="545" type="curve" smooth="yes"/>
      <point x="404" y="553"/>
      <point x="394" y="562"/>
      <point x="386" y="562" type="curve" smooth="yes"/>
      <point x="378" y="562"/>
      <point x="316" y="554"/>
      <point x="288" y="549" type="curve"/>
      <point x="297" y="578"/>
      <point x="316" y="638"/>
      <point x="316" y="645" type="curve" smooth="yes"/>
      <point x="316" y="654"/>
      <point x="310" y="664"/>
      <point x="300" y="664" type="curve" smooth="yes"/>
      <point x="292" y="664"/>
      <point x="287" y="657"/>
      <point x="283" y="649" type="curve"/>
      <point x="269" y="617"/>
      <point x="258" y="589"/>
      <point x="249" y="562" type="curve"/>
      <point x="230" y="583"/>
      <point x="208" y="605"/>
      <point x="185" y="631" type="curve"/>
      <point x="182" y="634"/>
      <point x="175" y="637"/>
      <point x="169" y="637" type="curve" smooth="yes"/>
      <point x="162" y="637"/>
      <point x="155" y="632"/>
      <point x="155" y="623" type="curve" smooth="yes"/>
      <point x="155" y="618"/>
      <point x="157" y="612"/>
      <point x="160" y="608" type="curve"/>
      <point x="180" y="579"/>
      <point x="198" y="557"/>
      <point x="216" y="535" type="curve"/>
      <point x="216" y="535"/>
      <point x="138" y="517"/>
      <point x="126" y="513" type="curve" smooth="yes"/>
      <point x="118" y="511"/>
      <point x="109" y="505"/>
      <point x="109" y="496" type="curve" smooth="yes"/>
      <point x="109" y="488"/>
      <point x="119" y="479"/>
      <point x="127" y="480" type="curve" smooth="yes"/>
      <point x="161" y="483"/>
      <point x="197" y="488"/>
      <point x="225" y="493" type="curve"/>
      <point x="225" y="493"/>
      <point x="200" y="418"/>
      <point x="198" y="404" type="curve" smooth="yes"/>
      <point x="196" y="391"/>
      <point x="202" y="378"/>
      <point x="213" y="378" type="curve" smooth="yes"/>
    </contour>
  </outline>
</glyph>
<glyph name="comma" format="1">
  <advance width="250"/>
  <unicode hex="002C"/>
  <note>
    comma
  </note>
  <outline>
    <contour>
      <point x="45" y="-129"/>
      <point x="141" y="-50"/>
      <point x="141" y="50" type="curve" smooth="yes"/>
      <point x="141" y="97"/>
      <point x="111" y="120"/>
      <point x="75" y="120" type="curve" smooth="yes"/>
      <point x="48" y="120"/>
      <point x="20" y="103"/>
      <point x="20" y="80" type="curve" smooth="yes"/>
      <point x="20" y="60"/>
      <point x="35" y="52"/>
      <point x="50" y="44" type="curve" smooth="yes"/>
      <point x="65" y="37"/>
      <point x="82" y="28"/>
      <point x="82" y="6" type="curve" smooth="yes"/>
      <point x="82" y="-35"/>
      <point x="49" y="-75"/>
      <point x="-9" y="-106" type="curve" smooth="yes"/>
      <point x="-24" y="-114"/>
      <point x="-34" y="-117"/>
      <point x="-34" y="-123" type="curve" smooth="yes"/>
      <point x="-34" y="-130"/>
      <point x="-26" y="-129"/>
      <point x="-16" y="-129" type="curve" smooth="yes"/>
    </contour>
  </outline>
</glyph>
<glyph name="hyphen" format="1">
  <advance width="274"/>
  <unicode hex="002D"/>
  <note>
    hyphen
  </note>
  <outline>
    <contour>
      <point x="238" y="195" type="line"/>
      <point x="248" y="196"/>
      <point x="274" y="222"/>
      <point x="274" y="247" type="curve" smooth="yes"/>
      <point x="274" y="254"/>
      <point x="272" y="256"/>
      <point x="266" y="255" type="curve" smooth="yes"/>
      <point x="83" y="230" type="line" smooth="yes"/>
      <point x="74" y="229"/>
      <point x="50" y="195"/>
      <point x="50" y="173" type="curve" smooth="yes"/>
      <point x="50" y="169"/>
      <point x="54" y="169"/>
      <point x="62" y="170" type="curve" smooth="yes"/>
    </contour>
  </outline>
</glyph>
<glyph name="period" format="1">
  <advance width="215"/>
  <unicode hex="002E"/>
  <note>
    period
  </note>
  <outline>
    <contour>
      <point x="85" y="-14"/>
      <point x="114" y="15"/>
      <point x="114" y="51" type="curve" smooth="yes"/>
      <point x="114" y="77"/>
      <point x="95" y="101"/>
      <point x="69" y="101" type="curve" smooth="yes"/>
      <point x="33" y="101"/>
      <point x="4" y="72"/>
      <point x="4" y="36" type="curve" smooth="yes"/>
      <point x="4" y="10"/>
      <point x="23" y="-14"/>
      <point x="49" y="-14" type="curve" smooth="yes"/>
    </contour>
  </outline>
</glyph>
<glyph name="zero" format="1">
  <advance width="380"/>
  <unicode hex="0030"/>
  <note>
    zero
  </note>
  <outline>
    <contour>
      <point x="268" y="-14"/>
      <point x="357" y="164"/>
      <point x="357" y="284" type="curve" smooth="yes"/>
      <point x="357" y="356"/>
      <point x="317" y="414"/>
      <point x="246" y="414" type="curve" smooth="yes"/>
      <point x="112" y="414"/>
      <point x="16" y="224"/>
      <point x="22" y="99" type="curve" smooth="yes"/>
      <point x="25" y="41"/>
      <point x="70" y="-14"/>
      <point x="119" y="-14" type="curve" smooth="yes"/>
    </contour>
    <contour>
      <point x="100" y="16"/>
      <point x="83" y="36"/>
      <point x="83" y="85" type="curve" smooth="yes"/>
      <point x="83" y="216"/>
      <point x="175" y="384"/>
      <point x="251" y="384" type="curve" smooth="yes"/>
      <point x="286" y="384"/>
      <point x="296" y="357"/>
      <point x="296" y="320" type="curve" smooth="yes"/>
      <point x="296" y="206"/>
      <point x="207" y="16"/>
      <point x="128" y="16" type="curve" smooth="yes"/>
    </contour>
  </outline>
</glyph>
<glyph name="five" format="1">
  <advance width="346"/>
  <unicode hex="0035"/>
  <note>
    five
  </note>
  <outline>
    <contour>
      <point x="153" y="-194"/>
      <point x="240" y="-74"/>
      <point x="240" y="22" type="curve" smooth="yes"/>
      <point x="240" y="64"/>
      <point x="231" y="113"/>
      <point x="187" y="181" type="curve" smooth="yes"/>
      <point x="169" y="209"/>
      <point x="152" y="236"/>
      <point x="134" y="264" type="curve"/>
      <point x="128" y="271"/>
      <point x="127" y="278"/>
      <point x="136" y="294" type="curve" smooth="yes"/>
      <point x="153" y="322" type="line" smooth="yes"/>
      <point x="162" y="337"/>
      <point x="175" y="342"/>
      <point x="187" y="343" type="curve" smooth="yes"/>
      <point x="211" y="345"/>
      <point x="258" y="343"/>
      <point x="291" y="345" type="curve" smooth="yes"/>
      <point x="316" y="347"/>
      <point x="331" y="386"/>
      <point x="331" y="402" type="curve" smooth="yes"/>
      <point x="331" y="408"/>
      <point x="330" y="416"/>
      <point x="322" y="416" type="curve" smooth="yes"/>
      <point x="303" y="416"/>
      <point x="238" y="403"/>
      <point x="186" y="389" type="curve" smooth="yes"/>
      <point x="175" y="386"/>
      <point x="155" y="376"/>
      <point x="143" y="356" type="curve" smooth="yes"/>
      <point x="130" y="336"/>
      <point x="103" y="294"/>
      <point x="87" y="269" type="curve" smooth="yes"/>
      <point x="63" y="237"/>
      <point x="77" y="206"/>
      <point x="92" y="187" type="curve" smooth="yes"/>
      <point x="150" y="120"/>
      <point x="179" y="37"/>
      <point x="179" y="-31" type="curve" smooth="yes"/>
      <point x="179" y="-101"/>
      <point x="136" y="-155"/>
      <point x="50" y="-155" type="curve" smooth="yes"/>
      <point x="37" y="-155"/>
      <point x="22" y="-147"/>
      <point x="8" y="-140" type="curve" smooth="yes"/>
      <point x="-2" y="-135"/>
      <point x="-12" y="-130"/>
      <point x="-19" y="-130" type="curve" smooth="yes"/>
      <point x="-30" y="-130"/>
      <point x="-52" y="-151"/>
      <point x="-52" y="-169" type="curve" smooth="yes"/>
      <point x="-52" y="-180"/>
      <point x="-40" y="-194"/>
      <point x="12" y="-194" type="curve" smooth="yes"/>
    </contour>
  </outline>
</glyph>
<glyph name="six" format="1">
  <advance width="389"/>
  <unicode hex="0036"/>
  <note>
    six
  </note>
  <outline>
    <contour>
      <point x="247" y="-15"/>
      <point x="373" y="147"/>
      <point x="373" y="275" type="curve" smooth="yes"/>
      <point x="373" y="355"/>
      <point x="332" y="394"/>
      <point x="281" y="394" type="curve" smooth="yes"/>
      <point x="265" y="394"/>
      <point x="248" y="390"/>
      <point x="231" y="382" type="curve" smooth="yes"/>
      <point x="221" y="378"/>
      <point x="226" y="386"/>
      <point x="233" y="396" type="curve" smooth="yes"/>
      <point x="285" y="471"/>
      <point x="393" y="557"/>
      <point x="468" y="578" type="curve" smooth="yes"/>
      <point x="486" y="583"/>
      <point x="501" y="588"/>
      <point x="501" y="600" type="curve" smooth="yes"/>
      <point x="501" y="602"/>
      <point x="497" y="608"/>
      <point x="493" y="608" type="curve" smooth="yes"/>
      <point x="295" y="608"/>
      <point x="32" y="315"/>
      <point x="32" y="122" type="curve" smooth="yes"/>
      <point x="32" y="41"/>
      <point x="58" y="-15"/>
      <point x="143" y="-15" type="curve" smooth="yes"/>
    </contour>
    <contour>
      <point x="109" y="15"/>
      <point x="99" y="66"/>
      <point x="99" y="103" type="curve" smooth="yes"/>
      <point x="99" y="185"/>
      <point x="165" y="363"/>
      <point x="259" y="363" type="curve" smooth="yes"/>
      <point x="293" y="363"/>
      <point x="309" y="337"/>
      <point x="309" y="308" type="curve" smooth="yes"/>
      <point x="309" y="157"/>
      <point x="208" y="15"/>
      <point x="147" y="15" type="curve" smooth="yes"/>
    </contour>
  </outline>
</glyph>
<glyph name="seven" format="1">
  <advance width="430"/>
  <unicode hex="0037"/>
  <note>
    seven
  </note>
  <outline>
    <contour>
      <point x="25" y="-186"/>
      <point x="44" y="-178"/>
      <point x="52" y="-166" type="curve" smooth="yes"/>
      <point x="390" y="323" type="line" smooth="yes"/>
      <point x="403" y="342"/>
      <point x="430" y="384"/>
      <point x="430" y="394" type="curve" smooth="yes"/>
      <point x="430" y="401"/>
      <point x="426" y="407"/>
      <point x="424" y="407" type="curve" smooth="yes"/>
      <point x="409" y="407"/>
      <point x="396" y="401"/>
      <point x="313" y="401" type="curve" smooth="yes"/>
      <point x="276" y="401"/>
      <point x="223" y="401"/>
      <point x="196" y="402" type="curve" smooth="yes"/>
      <point x="173" y="403"/>
      <point x="141" y="406"/>
      <point x="138" y="406" type="curve" smooth="yes"/>
      <point x="135" y="406"/>
      <point x="130" y="404"/>
      <point x="125" y="395" type="curve" smooth="yes"/>
      <point x="120" y="386"/>
      <point x="86" y="337"/>
      <point x="70" y="307" type="curve" smooth="yes"/>
      <point x="65" y="297"/>
      <point x="62" y="289"/>
      <point x="62" y="285" type="curve" smooth="yes"/>
      <point x="62" y="281"/>
      <point x="63" y="272"/>
      <point x="70" y="272" type="curve" smooth="yes"/>
      <point x="78" y="272"/>
      <point x="95" y="290"/>
      <point x="100" y="297" type="curve" smooth="yes"/>
      <point x="120" y="321"/>
      <point x="141" y="336"/>
      <point x="160" y="336" type="curve" smooth="yes"/>
      <point x="185" y="336"/>
      <point x="301" y="336"/>
      <point x="353" y="336" type="curve" smooth="yes"/>
      <point x="364" y="336"/>
      <point x="363" y="331"/>
      <point x="359" y="326" type="curve" smooth="yes"/>
      <point x="32" y="-126" type="line" smooth="yes"/>
      <point x="14" y="-151"/>
      <point x="0" y="-168"/>
      <point x="0" y="-173" type="curve" smooth="yes"/>
      <point x="0" y="-178"/>
      <point x="4" y="-186"/>
      <point x="16" y="-186" type="curve" smooth="yes"/>
    </contour>
  </outline>
</glyph>
<glyph name="nine" format="1">
  <advance width="367"/>
  <unicode hex="0039"/>
  <note>
    nine
  </note>
  <outline>
    <contour>
      <point x="366" y="351"/>
      <point x="323" y="414"/>
      <point x="273" y="414" type="curve" smooth="yes"/>
      <point x="150" y="414"/>
      <point x="60" y="286"/>
      <point x="60" y="156" type="curve" smooth="yes"/>
      <point x="60" y="110"/>
      <point x="96" y="47"/>
      <point x="160" y="47" type="curve" smooth="yes"/>
      <point x="170" y="47"/>
      <point x="177" y="48"/>
      <point x="187" y="50" type="curve" smooth="yes"/>
      <point x="197" y="52"/>
      <point x="206" y="46"/>
      <point x="202" y="37" type="curve"/>
      <point x="166" y="-35"/>
      <point x="35" y="-154"/>
      <point x="-55" y="-179" type="curve" smooth="yes"/>
      <point x="-73" y="-184"/>
      <point x="-88" y="-189"/>
      <point x="-88" y="-201" type="curve" smooth="yes"/>
      <point x="-88" y="-208"/>
      <point x="-82" y="-209"/>
      <point x="-78" y="-209" type="curve" smooth="yes"/>
      <point x="120" y="-209"/>
      <point x="366" y="84"/>
      <point x="366" y="286" type="curve" smooth="yes"/>
    </contour>
    <contour>
      <point x="143" y="72"/>
      <point x="127" y="102"/>
      <point x="127" y="132" type="curve" smooth="yes"/>
      <point x="127" y="283"/>
      <point x="217" y="386"/>
      <point x="261" y="386" type="curve" smooth="yes"/>
      <point x="291" y="386"/>
      <point x="301" y="352"/>
      <point x="301" y="322" type="curve" smooth="yes"/>
      <point x="301" y="240"/>
      <point x="271" y="72"/>
      <point x="177" y="72" type="curve" smooth="yes"/>
    </contour>
  </outline>
</glyph>
<glyph name="semicolon" format="1">
  <advance width="210"/>
  <unicode hex="003B"/>
  <note>
    semicolon
  </note>
  <outline>
    <contour>
      <point x="111" y="27"/>
      <point x="119" y="1"/>
      <point x="114" y="-15" type="curve" smooth="yes"/>
      <point x="93" y="-85"/>
      <point x="34" y="-115"/>
      <point x="-9" y="-124" type="curve" smooth="yes"/>
      <point x="-29" y="-128"/>
      <point x="-32" y="-147"/>
      <point x="-12" y="-147" type="curve" smooth="yes"/>
      <point x="-10" y="-147" type="line"/>
      <point x="38" y="-145"/>
      <point x="142" y="-81"/>
      <point x="173" y="20" type="curve" smooth="yes"/>
      <point x="190" y="76"/>
      <point x="171" y="117"/>
      <point x="126" y="117" type="curve" smooth="yes"/>
      <point x="99" y="117"/>
      <point x="68" y="98"/>
      <point x="60" y="71" type="curve" smooth="yes"/>
      <point x="53" y="49"/>
      <point x="65" y="32"/>
      <point x="91" y="29" type="curve" smooth="yes"/>
    </contour>
    <contour>
      <point x="184" y="373"/>
      <point x="153" y="348"/>
      <point x="144" y="318" type="curve" smooth="yes"/>
      <point x="135" y="288"/>
      <point x="151" y="263"/>
      <point x="179" y="263" type="curve" smooth="yes"/>
      <point x="207" y="263"/>
      <point x="238" y="288"/>
      <point x="247" y="318" type="curve" smooth="yes"/>
      <point x="256" y="348"/>
      <point x="240" y="373"/>
      <point x="212" y="373" type="curve" smooth="yes"/>
    </contour>
  </outline>
</glyph>
<glyph name="greater" format="1">
  <advance width="590"/>
  <unicode hex="003E"/>
  <note>
    greater
  </note>
  <outline>
    <contour>
      <point x="457" y="234" type="line"/>
      <point x="460" y="233"/>
      <point x="461" y="230"/>
      <point x="458" y="229" type="curve"/>
      <point x="85" y="55" type="line" smooth="yes"/>
      <point x="65" y="46"/>
      <point x="60" y="30"/>
      <point x="54" y="9" type="curve"/>
      <point x="52" y="3"/>
      <point x="58" y="-6"/>
      <point x="64" y="-6" type="curve" smooth="yes"/>
      <point x="65" y="-6"/>
      <point x="66" y="-5"/>
      <point x="67" y="-5" type="curve"/>
      <point x="504" y="195" type="line" smooth="yes"/>
      <point x="524" y="204"/>
      <point x="537" y="232"/>
      <point x="537" y="241" type="curve" smooth="yes"/>
      <point x="537" y="247"/>
      <point x="513" y="260"/>
      <point x="496" y="268" type="curve" smooth="yes"/>
      <point x="67" y="468" type="line"/>
      <point x="66" y="468"/>
      <point x="65" y="469"/>
      <point x="64" y="469" type="curve" smooth="yes"/>
      <point x="58" y="469"/>
      <point x="53" y="461"/>
      <point x="53" y="456" type="curve" smooth="yes"/>
      <point x="53" y="447"/>
      <point x="58" y="417"/>
      <point x="77" y="408" type="curve" smooth="yes"/>
    </contour>
  </outline>
</glyph>
<glyph name="question" format="1">
  <advance width="316"/>
  <unicode hex="003F"/>
  <note>
    question
  </note>
  <outline>
    <contour>
      <point x="154" y="176"/>
      <point x="161" y="177"/>
      <point x="161" y="182" type="curve" smooth="yes"/>
      <point x="161" y="189"/>
      <point x="159" y="196"/>
      <point x="156" y="204" type="curve" smooth="yes"/>
      <point x="153" y="215"/>
      <point x="150" y="227"/>
      <point x="150" y="241" type="curve" smooth="yes"/>
      <point x="150" y="273"/>
      <point x="161" y="291"/>
      <point x="201" y="312" type="curve" smooth="yes"/>
      <point x="289" y="357" type="line" smooth="yes"/>
      <point x="337" y="382"/>
      <point x="368" y="424"/>
      <point x="368" y="496" type="curve" smooth="yes"/>
      <point x="368" y="588"/>
      <point x="318" y="661"/>
      <point x="238" y="661" type="curve" smooth="yes"/>
      <point x="207" y="661"/>
      <point x="170" y="641"/>
      <point x="170" y="607" type="curve" smooth="yes"/>
      <point x="170" y="589"/>
      <point x="179" y="580"/>
      <point x="194" y="580" type="curve" smooth="yes"/>
      <point x="203" y="580"/>
      <point x="209" y="585"/>
      <point x="221" y="589" type="curve" smooth="yes"/>
      <point x="229" y="592"/>
      <point x="239" y="594"/>
      <point x="254" y="594" type="curve" smooth="yes"/>
      <point x="304" y="594"/>
      <point x="333" y="561"/>
      <point x="333" y="519" type="curve" smooth="yes"/>
      <point x="333" y="460"/>
      <point x="290" y="428"/>
      <point x="240" y="404" type="curve" smooth="yes"/>
      <point x="126" y="352"/>
      <point x="110" y="320"/>
      <point x="110" y="268" type="curve" smooth="yes"/>
      <point x="110" y="230"/>
      <point x="144" y="176"/>
      <point x="150" y="176" type="curve" smooth="yes"/>
    </contour>
    <contour>
      <point x="168" y="-14"/>
      <point x="196" y="14"/>
      <point x="196" y="48" type="curve" smooth="yes"/>
      <point x="196" y="72"/>
      <point x="178" y="95"/>
      <point x="153" y="95" type="curve" smooth="yes"/>
      <point x="119" y="95"/>
      <point x="92" y="68"/>
      <point x="92" y="33" type="curve" smooth="yes"/>
      <point x="92" y="9"/>
      <point x="110" y="-14"/>
      <point x="134" y="-14" type="curve" smooth="yes"/>
    </contour>
  </outline>
</glyph>
<glyph name="at" format="1">
  <advance width="761"/>
  <unicode hex="0040"/>
  <note>
    at
  </note>
  <outline>
    <contour>
      <point x="449" y="-137"/>
      <point x="584" y="-50"/>
      <point x="592" y="-26" type="curve" smooth="yes"/>
      <point x="595" y="-17"/>
      <point x="591" y="-13"/>
      <point x="582" y="-13" type="curve" smooth="yes"/>
      <point x="577" y="-13"/>
      <point x="568" y="-17"/>
      <point x="560" y="-23" type="curve" smooth="yes"/>
      <point x="496" y="-71"/>
      <point x="422" y="-97"/>
      <point x="330" y="-97" type="curve" smooth="yes"/>
      <point x="179" y="-97"/>
      <point x="86" y="-39"/>
      <point x="86" y="109" type="curve" smooth="yes"/>
      <point x="86" y="311"/>
      <point x="280" y="470"/>
      <point x="441" y="470" type="curve" smooth="yes"/>
      <point x="600" y="470"/>
      <point x="680" y="381"/>
      <point x="680" y="283" type="curve" smooth="yes"/>
      <point x="680" y="184"/>
      <point x="607" y="74"/>
      <point x="500" y="74" type="curve" smooth="yes"/>
      <point x="468" y="74"/>
      <point x="474" y="104"/>
      <point x="485" y="127" type="curve" smooth="yes"/>
      <point x="561" y="288" type="line" smooth="yes"/>
      <point x="569" y="304"/>
      <point x="583" y="328"/>
      <point x="600" y="352" type="curve"/>
      <point x="604" y="356"/>
      <point x="588" y="360"/>
      <point x="584" y="360" type="curve" smooth="yes"/>
      <point x="574" y="360"/>
      <point x="563" y="341"/>
      <point x="553" y="341" type="curve" smooth="yes"/>
      <point x="549" y="341"/>
      <point x="546" y="343"/>
      <point x="532" y="347" type="curve" smooth="yes"/>
      <point x="512" y="353"/>
      <point x="491" y="357"/>
      <point x="470" y="357" type="curve" smooth="yes"/>
      <point x="296" y="357"/>
      <point x="199" y="237"/>
      <point x="196" y="146" type="curve" smooth="yes"/>
      <point x="194" y="91"/>
      <point x="227" y="47"/>
      <point x="298" y="47" type="curve" smooth="yes"/>
      <point x="349" y="47"/>
      <point x="395" y="81"/>
      <point x="410" y="91" type="curve" smooth="yes"/>
      <point x="421" y="98"/>
      <point x="424" y="96"/>
      <point x="424" y="88" type="curve" smooth="yes"/>
      <point x="423" y="65"/>
      <point x="427" y="32"/>
      <point x="471" y="32" type="curve" smooth="yes"/>
      <point x="632" y="32"/>
      <point x="728" y="172"/>
      <point x="728" y="288" type="curve" smooth="yes"/>
      <point x="728" y="385"/>
      <point x="635" y="507"/>
      <point x="463" y="507" type="curve" smooth="yes"/>
      <point x="202" y="507"/>
      <point x="32" y="280"/>
      <point x="32" y="91" type="curve" smooth="yes"/>
      <point x="32" y="-34"/>
      <point x="117" y="-137"/>
      <point x="306" y="-137" type="curve" smooth="yes"/>
    </contour>
    <contour>
      <point x="284" y="81"/>
      <point x="264" y="115"/>
      <point x="264" y="158" type="curve" smooth="yes"/>
      <point x="266" y="230"/>
      <point x="327" y="326"/>
      <point x="439" y="326" type="curve" smooth="yes"/>
      <point x="485" y="326"/>
      <point x="502" y="318"/>
      <point x="502" y="300" type="curve" smooth="yes"/>
      <point x="502" y="291"/>
      <point x="498" y="280"/>
      <point x="492" y="266" type="curve" smooth="yes"/>
      <point x="437" y="152" type="line" smooth="yes"/>
      <point x="422" y="121"/>
      <point x="409" y="111"/>
      <point x="395" y="103" type="curve" smooth="yes"/>
      <point x="370" y="89"/>
      <point x="352" y="81"/>
      <point x="328" y="81" type="curve" smooth="yes"/>
    </contour>
  </outline>
</glyph>
<glyph name="A" format="1">
  <advance width="730"/>
  <unicode hex="0041"/>
  <note>
    A
  </note>
  <outline>
    <contour>
      <point x="5" y="-5"/>
      <point x="46" y="1"/>
      <point x="87" y="1" type="curve" smooth="yes"/>
      <point x="121" y="1"/>
      <point x="154" y="-1"/>
      <point x="171" y="-1" type="curve" smooth="yes"/>
      <point x="187" y="-1"/>
      <point x="202" y="3"/>
      <point x="202" y="12" type="curve" smooth="yes"/>
      <point x="202" y="22"/>
      <point x="195" y="26"/>
      <point x="177" y="30" type="curve" smooth="yes"/>
      <point x="154" y="35"/>
      <point x="134" y="57"/>
      <point x="176" y="102" type="curve" smooth="yes"/>
      <point x="292" y="226" type="line" smooth="yes"/>
      <point x="303" y="238"/>
      <point x="322" y="244"/>
      <point x="327" y="244" type="curve"/>
      <point x="508" y="253" type="line"/>
      <point x="527" y="253"/>
      <point x="540" y="246"/>
      <point x="536" y="235" type="curve" smooth="yes"/>
      <point x="495" y="112" type="line" smooth="yes"/>
      <point x="476" y="56"/>
      <point x="469" y="45"/>
      <point x="401" y="31" type="curve" smooth="yes"/>
      <point x="383" y="27"/>
      <point x="364" y="21"/>
      <point x="364" y="12" type="curve" smooth="yes"/>
      <point x="364" y="4"/>
      <point x="372" y="0"/>
      <point x="388" y="0" type="curve" smooth="yes"/>
      <point x="410" y="0"/>
      <point x="444" y="1"/>
      <point x="480" y="1" type="curve" smooth="yes"/>
      <point x="522" y="1"/>
      <point x="582" y="-5"/>
      <point x="608" y="-5" type="curve" smooth="yes"/>
      <point x="630" y="-5"/>
      <point x="640" y="1"/>
      <point x="640" y="9" type="curve" smooth="yes"/>
      <point x="640" y="18"/>
      <point x="632" y="24"/>
      <point x="612" y="28" type="curve" smooth="yes"/>
      <point x="574" y="36"/>
      <point x="565" y="64"/>
      <point x="584" y="128" type="curve" smooth="yes"/>
      <point x="733" y="644" type="line" smooth="yes"/>
      <point x="741" y="670"/>
      <point x="737" y="676"/>
      <point x="731" y="676" type="curve" smooth="yes"/>
      <point x="724" y="676"/>
      <point x="718" y="671"/>
      <point x="697" y="650" type="curve" smooth="yes"/>
      <point x="680" y="633"/>
      <point x="657" y="622"/>
      <point x="636" y="622" type="curve" smooth="yes"/>
      <point x="628" y="622"/>
      <point x="611" y="592"/>
      <point x="582" y="564" type="curve" smooth="yes"/>
      <point x="116" y="108" type="line" smooth="yes"/>
      <point x="72" y="65"/>
      <point x="23" y="41"/>
      <point x="-12" y="31" type="curve" smooth="yes"/>
      <point x="-35" y="24"/>
      <point x="-49" y="18"/>
      <point x="-49" y="8" type="curve" smooth="yes"/>
      <point x="-49" y="-1"/>
      <point x="-42" y="-5"/>
      <point x="-26" y="-5" type="curve" smooth="yes"/>
    </contour>
    <contour>
      <point x="358" y="285"/>
      <point x="366" y="298"/>
      <point x="378" y="310" type="curve" smooth="yes"/>
      <point x="593" y="525" type="line" smooth="yes"/>
      <point x="604" y="536"/>
      <point x="609" y="539"/>
      <point x="614" y="539" type="curve" smooth="yes"/>
      <point x="621" y="539"/>
      <point x="619" y="532"/>
      <point x="614" y="516" type="curve" smooth="yes"/>
      <point x="558" y="324" type="line" smooth="yes"/>
      <point x="552" y="303"/>
      <point x="542" y="297"/>
      <point x="528" y="296" type="curve" smooth="yes"/>
      <point x="394" y="288" type="line" smooth="yes"/>
    </contour>
    <contour>
      <point x="718" y="675" type="move" name="top.cap"/>
    </contour>
    <contour>
      <point x="266" y="-30" type="move" name="bottom.cap"/>
    </contour>
  </outline>
</glyph>
<glyph name="B" format="1">
  <advance width="592"/>
  <unicode hex="0042"/>
  <note>
    B
  </note>
  <outline>
    <contour>
      <point x="98" y="-5"/>
      <point x="118" y="0"/>
      <point x="166" y="0" type="curve" smooth="yes"/>
      <point x="203" y="0"/>
      <point x="236" y="-4"/>
      <point x="253" y="-4" type="curve" smooth="yes"/>
      <point x="435" y="-4"/>
      <point x="561" y="76"/>
      <point x="561" y="200" type="curve" smooth="yes"/>
      <point x="561" y="280"/>
      <point x="518" y="333"/>
      <point x="445" y="357" type="curve"/>
      <point x="440" y="359"/>
      <point x="437" y="365"/>
      <point x="448" y="367" type="curve" smooth="yes"/>
      <point x="520" y="379"/>
      <point x="617" y="430"/>
      <point x="617" y="517" type="curve" smooth="yes"/>
      <point x="617" y="579"/>
      <point x="578" y="658"/>
      <point x="430" y="657" type="curve" smooth="yes"/>
      <point x="409" y="657"/>
      <point x="359" y="651"/>
      <point x="329" y="651" type="curve" smooth="yes"/>
      <point x="301" y="651"/>
      <point x="288" y="650"/>
      <point x="255" y="650" type="curve" smooth="yes"/>
      <point x="239" y="650"/>
      <point x="222" y="647"/>
      <point x="222" y="638" type="curve" smooth="yes"/>
      <point x="222" y="628"/>
      <point x="229" y="625"/>
      <point x="249" y="621" type="curve" smooth="yes"/>
      <point x="294" y="613"/>
      <point x="304" y="598"/>
      <point x="289" y="549" type="curve" smooth="yes"/>
      <point x="152" y="99" type="line" smooth="yes"/>
      <point x="137" y="51"/>
      <point x="105" y="33"/>
      <point x="56" y="24" type="curve" smooth="yes"/>
      <point x="33" y="20"/>
      <point x="20" y="16"/>
      <point x="20" y="6" type="curve" smooth="yes"/>
      <point x="20" y="-3"/>
      <point x="28" y="-5"/>
      <point x="44" y="-5" type="curve" smooth="yes"/>
    </contour>
    <contour>
      <point x="261" y="25"/>
      <point x="236" y="45"/>
      <point x="229" y="56" type="curve" smooth="yes"/>
      <point x="222" y="68"/>
      <point x="224" y="90"/>
      <point x="229" y="108" type="curve" smooth="yes"/>
      <point x="289" y="313" type="line" smooth="yes"/>
      <point x="296" y="338"/>
      <point x="310" y="344"/>
      <point x="330" y="344" type="curve" smooth="yes"/>
      <point x="425" y="344"/>
      <point x="474" y="288"/>
      <point x="474" y="205" type="curve" smooth="yes"/>
      <point x="474" y="99"/>
      <point x="395" y="25"/>
      <point x="284" y="25" type="curve" smooth="yes"/>
    </contour>
    <contour>
      <point x="317" y="371"/>
      <point x="311" y="374"/>
      <point x="316" y="394" type="curve" smooth="yes"/>
      <point x="373" y="601" type="line" smooth="yes"/>
      <point x="378" y="618"/>
      <point x="388" y="625"/>
      <point x="413" y="625" type="curve" smooth="yes"/>
      <point x="499" y="625"/>
      <point x="536" y="580"/>
      <point x="536" y="516" type="curve" smooth="yes"/>
      <point x="536" y="422"/>
      <point x="428" y="371"/>
      <point x="332" y="371" type="curve" smooth="yes"/>
    </contour>
  </outline>
</glyph>
<glyph name="C" format="1">
  <advance width="622"/>
  <unicode hex="0043"/>
  <note>
    C
  </note>
  <outline>
    <contour>
      <point x="383" y="-14"/>
      <point x="411" y="-7"/>
      <point x="431" y="0" type="curve" smooth="yes"/>
      <point x="449" y="6"/>
      <point x="463" y="11"/>
      <point x="472" y="11" type="curve" smooth="yes"/>
      <point x="480" y="11"/>
      <point x="487" y="7"/>
      <point x="493" y="2" type="curve" smooth="yes"/>
      <point x="500" y="-3"/>
      <point x="507" y="-9"/>
      <point x="512" y="-9" type="curve" smooth="yes"/>
      <point x="525" y="-9"/>
      <point x="576" y="118"/>
      <point x="576" y="138" type="curve" smooth="yes"/>
      <point x="576" y="151"/>
      <point x="572" y="158"/>
      <point x="566" y="158" type="curve" smooth="yes"/>
      <point x="555" y="158"/>
      <point x="552" y="149"/>
      <point x="546" y="139" type="curve" smooth="yes"/>
      <point x="507" y="76"/>
      <point x="466" y="19"/>
      <point x="375" y="19" type="curve" smooth="yes"/>
      <point x="290" y="19"/>
      <point x="184" y="70"/>
      <point x="184" y="232" type="curve" smooth="yes"/>
      <point x="184" y="458"/>
      <point x="360" y="630"/>
      <point x="504" y="630" type="curve" smooth="yes"/>
      <point x="550" y="630"/>
      <point x="584" y="614"/>
      <point x="607" y="585" type="curve" smooth="yes"/>
      <point x="630" y="556"/>
      <point x="628" y="523"/>
      <point x="622" y="493" type="curve" smooth="yes"/>
      <point x="620" y="481"/>
      <point x="625" y="467"/>
      <point x="637" y="467" type="curve" smooth="yes"/>
      <point x="644" y="467"/>
      <point x="653" y="477"/>
      <point x="655" y="487" type="curve" smooth="yes"/>
      <point x="664" y="532"/>
      <point x="700" y="599"/>
      <point x="722" y="629" type="curve"/>
      <point x="726" y="634"/>
      <point x="727" y="645"/>
      <point x="715" y="645" type="curve" smooth="yes"/>
      <point x="700" y="645"/>
      <point x="683" y="630"/>
      <point x="671" y="630" type="curve" smooth="yes"/>
      <point x="657" y="630"/>
      <point x="639" y="638"/>
      <point x="614" y="646" type="curve" smooth="yes"/>
      <point x="577" y="659"/>
      <point x="540" y="665"/>
      <point x="503" y="665" type="curve" smooth="yes"/>
      <point x="286" y="665"/>
      <point x="96" y="479"/>
      <point x="96" y="240" type="curve" smooth="yes"/>
      <point x="96" y="84"/>
      <point x="239" y="-14"/>
      <point x="348" y="-14" type="curve" smooth="yes"/>
    </contour>
    <contour>
      <point x="530" y="675" type="move" name="top.cap"/>
    </contour>
  </outline>
</glyph>
<glyph name="D" format="1">
  <advance width="770"/>
  <unicode hex="0044"/>
  <note>
    D
  </note>
  <outline>
    <contour>
      <point x="570" y="-7"/>
      <point x="765" y="174"/>
      <point x="765" y="377" type="curve" smooth="yes"/>
      <point x="765" y="560"/>
      <point x="619" y="655"/>
      <point x="432" y="655" type="curve" smooth="yes"/>
      <point x="385" y="655"/>
      <point x="369" y="649"/>
      <point x="329" y="649" type="curve" smooth="yes"/>
      <point x="287" y="649"/>
      <point x="245" y="653"/>
      <point x="192" y="653" type="curve" smooth="yes"/>
      <point x="176" y="653"/>
      <point x="162" y="650"/>
      <point x="162" y="642" type="curve" smooth="yes"/>
      <point x="162" y="633"/>
      <point x="166" y="626"/>
      <point x="186" y="622" type="curve" smooth="yes"/>
      <point x="230" y="613"/>
      <point x="288" y="608"/>
      <point x="273" y="560" type="curve" smooth="yes"/>
      <point x="123" y="99" type="line" smooth="yes"/>
      <point x="107" y="51"/>
      <point x="95" y="26"/>
      <point x="32" y="24" type="curve" smooth="yes"/>
      <point x="9" y="23"/>
      <point x="-4" y="15"/>
      <point x="-4" y="6" type="curve" smooth="yes"/>
      <point x="-4" y="-2"/>
      <point x="4" y="-5"/>
      <point x="20" y="-5" type="curve" smooth="yes"/>
      <point x="69" y="-5"/>
      <point x="87" y="0"/>
      <point x="124" y="0" type="curve" smooth="yes"/>
      <point x="197" y="0"/>
      <point x="298" y="-7"/>
      <point x="317" y="-7" type="curve" smooth="yes"/>
    </contour>
    <contour>
      <point x="194" y="28"/>
      <point x="183" y="52"/>
      <point x="211" y="141" type="curve" smooth="yes"/>
      <point x="347" y="567" type="line" smooth="yes"/>
      <point x="358" y="601"/>
      <point x="365" y="618"/>
      <point x="449" y="618" type="curve" smooth="yes"/>
      <point x="584" y="618"/>
      <point x="679" y="548"/>
      <point x="679" y="395" type="curve" smooth="yes"/>
      <point x="679" y="207"/>
      <point x="524" y="28"/>
      <point x="325" y="28" type="curve" smooth="yes"/>
    </contour>
    <contour>
      <point x="475" y="675" type="move" name="top.cap"/>
    </contour>
    <contour>
      <point x="301" y="-30" type="move" name="bottom.cap"/>
    </contour>
  </outline>
</glyph>
<glyph name="E" format="1">
  <advance width="603"/>
  <unicode hex="0045"/>
  <note>
    E
  </note>
  <outline>
    <contour>
      <point x="54" y="-5"/>
      <point x="80" y="1"/>
      <point x="129" y="1" type="curve" smooth="yes"/>
      <point x="222" y="1"/>
      <point x="355" y="-5"/>
      <point x="492" y="-5" type="curve" smooth="yes"/>
      <point x="508" y="-5"/>
      <point x="517" y="3"/>
      <point x="525" y="16" type="curve" smooth="yes"/>
      <point x="540" y="39"/>
      <point x="564" y="96"/>
      <point x="564" y="114" type="curve" smooth="yes"/>
      <point x="564" y="122"/>
      <point x="563" y="134"/>
      <point x="557" y="134" type="curve" smooth="yes"/>
      <point x="549" y="134"/>
      <point x="544" y="124"/>
      <point x="539" y="116" type="curve" smooth="yes"/>
      <point x="522" y="88"/>
      <point x="505" y="67"/>
      <point x="485" y="53" type="curve" smooth="yes"/>
      <point x="464" y="38"/>
      <point x="438" y="30"/>
      <point x="405" y="30" type="curve" smooth="yes"/>
      <point x="240" y="30" type="line" smooth="yes"/>
      <point x="198" y="30"/>
      <point x="186" y="45"/>
      <point x="206" y="113" type="curve" smooth="yes"/>
      <point x="257" y="291" type="line" smooth="yes"/>
      <point x="265" y="320"/>
      <point x="282" y="322"/>
      <point x="305" y="322" type="curve" smooth="yes"/>
      <point x="430" y="320" type="line" smooth="yes"/>
      <point x="453" y="318"/>
      <point x="468" y="305"/>
      <point x="468" y="264" type="curve" smooth="yes"/>
      <point x="468" y="257"/>
      <point x="470" y="237"/>
      <point x="481" y="237" type="curve" smooth="yes"/>
      <point x="488" y="237"/>
      <point x="492" y="249"/>
      <point x="494" y="258" type="curve" smooth="yes"/>
      <point x="500" y="287"/>
      <point x="506" y="309"/>
      <point x="514" y="331" type="curve" smooth="yes"/>
      <point x="520" y="350"/>
      <point x="529" y="369"/>
      <point x="541" y="392" type="curve" smooth="yes"/>
      <point x="549" y="406"/>
      <point x="547" y="420"/>
      <point x="537" y="420" type="curve" smooth="yes"/>
      <point x="522" y="420"/>
      <point x="513" y="400"/>
      <point x="506" y="389" type="curve" smooth="yes"/>
      <point x="492" y="367"/>
      <point x="469" y="353"/>
      <point x="435" y="352" type="curve" smooth="yes"/>
      <point x="301" y="349" type="line" smooth="yes"/>
      <point x="280" y="349"/>
      <point x="278" y="356"/>
      <point x="285" y="380" type="curve" smooth="yes"/>
      <point x="352" y="588" type="line" smooth="yes"/>
      <point x="359" y="610"/>
      <point x="369" y="618"/>
      <point x="401" y="618" type="curve" smooth="yes"/>
      <point x="545" y="618" type="line" smooth="yes"/>
      <point x="591" y="618"/>
      <point x="596" y="605"/>
      <point x="592" y="541" type="curve" smooth="yes"/>
      <point x="591" y="526"/>
      <point x="596" y="516"/>
      <point x="603" y="516" type="curve" smooth="yes"/>
      <point x="609" y="516"/>
      <point x="618" y="521"/>
      <point x="620" y="535" type="curve" smooth="yes"/>
      <point x="629" y="593"/>
      <point x="648" y="629"/>
      <point x="648" y="641" type="curve" smooth="yes"/>
      <point x="648" y="646"/>
      <point x="642" y="654"/>
      <point x="637" y="654" type="curve" smooth="yes"/>
      <point x="632" y="654"/>
      <point x="611" y="650"/>
      <point x="586" y="650" type="curve" smooth="yes"/>
      <point x="331" y="650" type="line" smooth="yes"/>
      <point x="289" y="650"/>
      <point x="237" y="653"/>
      <point x="222" y="653" type="curve" smooth="yes"/>
      <point x="206" y="653"/>
      <point x="191" y="650"/>
      <point x="191" y="642" type="curve" smooth="yes"/>
      <point x="191" y="633"/>
      <point x="196" y="626"/>
      <point x="216" y="622" type="curve" smooth="yes"/>
      <point x="271" y="611"/>
      <point x="275" y="594"/>
      <point x="261" y="549" type="curve" smooth="yes"/>
      <point x="124" y="99" type="line" smooth="yes"/>
      <point x="110" y="54"/>
      <point x="82" y="36"/>
      <point x="16" y="24" type="curve" smooth="yes"/>
      <point x="-7" y="20"/>
      <point x="-20" y="15"/>
      <point x="-20" y="6" type="curve" smooth="yes"/>
      <point x="-20" y="-2"/>
      <point x="-12" y="-5"/>
      <point x="4" y="-5" type="curve" smooth="yes"/>
    </contour>
    <contour>
      <point x="443" y="675" type="move" name="top.cap"/>
    </contour>
    <contour>
      <point x="305" y="-30" type="move" name="bottom.cap"/>
    </contour>
  </outline>
</glyph>
<glyph name="F" format="1">
  <advance width="509"/>
  <unicode hex="0046"/>
  <note>
    F
  </note>
  <outline>
    <contour>
      <point x="64" y="-5"/>
      <point x="87" y="2"/>
      <point x="133" y="2" type="curve" smooth="yes"/>
      <point x="172" y="2"/>
      <point x="184" y="-5"/>
      <point x="234" y="-5" type="curve" smooth="yes"/>
      <point x="250" y="-5"/>
      <point x="264" y="-3"/>
      <point x="264" y="6" type="curve" smooth="yes"/>
      <point x="264" y="16"/>
      <point x="259" y="20"/>
      <point x="239" y="24" type="curve" smooth="yes"/>
      <point x="195" y="33"/>
      <point x="172" y="44"/>
      <point x="192" y="113" type="curve" smooth="yes"/>
      <point x="243" y="291" type="line" smooth="yes"/>
      <point x="251" y="320"/>
      <point x="268" y="322"/>
      <point x="291" y="322" type="curve" smooth="yes"/>
      <point x="309" y="322"/>
      <point x="383" y="322"/>
      <point x="406" y="320" type="curve" smooth="yes"/>
      <point x="420" y="319"/>
      <point x="443" y="306"/>
      <point x="443" y="275" type="curve" smooth="yes"/>
      <point x="443" y="268"/>
      <point x="447" y="252"/>
      <point x="458" y="252" type="curve" smooth="yes"/>
      <point x="465" y="252"/>
      <point x="468" y="260"/>
      <point x="471" y="269" type="curve"/>
      <point x="484" y="320"/>
      <point x="490" y="343"/>
      <point x="517" y="392" type="curve" smooth="yes"/>
      <point x="522" y="401"/>
      <point x="515" y="408"/>
      <point x="510" y="408" type="curve" smooth="yes"/>
      <point x="505" y="408"/>
      <point x="491" y="399"/>
      <point x="482" y="389" type="curve" smooth="yes"/>
      <point x="463" y="368"/>
      <point x="438" y="353"/>
      <point x="411" y="352" type="curve" smooth="yes"/>
      <point x="276" y="349" type="line" smooth="yes"/>
      <point x="267" y="349"/>
      <point x="266" y="363"/>
      <point x="269" y="374" type="curve" smooth="yes"/>
      <point x="284" y="423"/>
      <point x="334" y="579"/>
      <point x="338" y="588" type="curve" smooth="yes"/>
      <point x="345" y="604"/>
      <point x="352" y="618"/>
      <point x="377" y="618" type="curve" smooth="yes"/>
      <point x="521" y="618" type="line" smooth="yes"/>
      <point x="540" y="618"/>
      <point x="551" y="613"/>
      <point x="558" y="606" type="curve" smooth="yes"/>
      <point x="571" y="593"/>
      <point x="569" y="570"/>
      <point x="569" y="546" type="curve" smooth="yes"/>
      <point x="569" y="535"/>
      <point x="570" y="523"/>
      <point x="580" y="523" type="curve" smooth="yes"/>
      <point x="593" y="523"/>
      <point x="596" y="533"/>
      <point x="597" y="540" type="curve" smooth="yes"/>
      <point x="601" y="567"/>
      <point x="612" y="599"/>
      <point x="619" y="622" type="curve" smooth="yes"/>
      <point x="622" y="632"/>
      <point x="624" y="639"/>
      <point x="624" y="644" type="curve" smooth="yes"/>
      <point x="624" y="651"/>
      <point x="623" y="654"/>
      <point x="616" y="654" type="curve" smooth="yes"/>
      <point x="611" y="654"/>
      <point x="587" y="650"/>
      <point x="562" y="650" type="curve" smooth="yes"/>
      <point x="317" y="650" type="line" smooth="yes"/>
      <point x="275" y="650"/>
      <point x="223" y="653"/>
      <point x="208" y="653" type="curve" smooth="yes"/>
      <point x="192" y="653"/>
      <point x="177" y="650"/>
      <point x="177" y="642" type="curve" smooth="yes"/>
      <point x="177" y="633"/>
      <point x="182" y="626"/>
      <point x="202" y="622" type="curve" smooth="yes"/>
      <point x="246" y="613"/>
      <point x="263" y="597"/>
      <point x="247" y="549" type="curve" smooth="yes"/>
      <point x="110" y="99" type="line" smooth="yes"/>
      <point x="95" y="50"/>
      <point x="75" y="33"/>
      <point x="26" y="24" type="curve" smooth="yes"/>
      <point x="3" y="20"/>
      <point x="-10" y="16"/>
      <point x="-10" y="6" type="curve" smooth="yes"/>
      <point x="-10" y="-3"/>
      <point x="-2" y="-5"/>
      <point x="14" y="-5" type="curve" smooth="yes"/>
    </contour>
    <contour>
      <point x="435" y="675" type="move" name="top.cap"/>
    </contour>
    <contour>
      <point x="118" y="-30" type="move" name="bottom.cap"/>
    </contour>
  </outline>
</glyph>
<glyph name="G" format="1">
  <advance width="687"/>
  <unicode hex="0047"/>
  <note>
    G
  </note>
  <outline>
    <contour>
      <point x="461" y="-14"/>
      <point x="544" y="26"/>
      <point x="563" y="42" type="curve"/>
      <point x="567" y="48"/>
      <point x="574" y="55"/>
      <point x="576" y="60" type="curve"/>
      <point x="567" y="71"/>
      <point x="562" y="80"/>
      <point x="562" y="92" type="curve" smooth="yes"/>
      <point x="562" y="107"/>
      <point x="580" y="174"/>
      <point x="598" y="213" type="curve" smooth="yes"/>
      <point x="610" y="240"/>
      <point x="625" y="251"/>
      <point x="655" y="256" type="curve" smooth="yes"/>
      <point x="676" y="260"/>
      <point x="687" y="269"/>
      <point x="687" y="276" type="curve" smooth="yes"/>
      <point x="687" y="284"/>
      <point x="678" y="290"/>
      <point x="666" y="290" type="curve" smooth="yes"/>
      <point x="633" y="290"/>
      <point x="614" y="284"/>
      <point x="581" y="284" type="curve" smooth="yes"/>
      <point x="535" y="284"/>
      <point x="510" y="290"/>
      <point x="464" y="290" type="curve" smooth="yes"/>
      <point x="446" y="290"/>
      <point x="432" y="284"/>
      <point x="432" y="275" type="curve" smooth="yes"/>
      <point x="432" y="266"/>
      <point x="449" y="261"/>
      <point x="463" y="259" type="curve" smooth="yes"/>
      <point x="473" y="257"/>
      <point x="491" y="254"/>
      <point x="508" y="249" type="curve" smooth="yes"/>
      <point x="526" y="244"/>
      <point x="533" y="233"/>
      <point x="526" y="208" type="curve" smooth="yes"/>
      <point x="498" y="100" type="line" smooth="yes"/>
      <point x="489" y="64"/>
      <point x="447" y="23"/>
      <point x="402" y="23" type="curve" smooth="yes"/>
      <point x="289" y="23"/>
      <point x="169" y="95"/>
      <point x="169" y="228" type="curve" smooth="yes"/>
      <point x="169" y="431"/>
      <point x="306" y="628"/>
      <point x="491" y="628" type="curve" smooth="yes"/>
      <point x="543" y="628"/>
      <point x="579" y="608"/>
      <point x="596" y="585" type="curve" smooth="yes"/>
      <point x="617" y="557"/>
      <point x="618" y="523"/>
      <point x="613" y="493" type="curve" smooth="yes"/>
      <point x="610" y="475"/>
      <point x="615" y="464"/>
      <point x="628" y="464" type="curve" smooth="yes"/>
      <point x="635" y="464"/>
      <point x="643" y="474"/>
      <point x="646" y="487" type="curve" smooth="yes"/>
      <point x="655" y="532"/>
      <point x="691" y="599"/>
      <point x="713" y="629" type="curve"/>
      <point x="717" y="634"/>
      <point x="718" y="645"/>
      <point x="706" y="645" type="curve" smooth="yes"/>
      <point x="699" y="645"/>
      <point x="693" y="642"/>
      <point x="686" y="638" type="curve" smooth="yes"/>
      <point x="678" y="634"/>
      <point x="670" y="629"/>
      <point x="663" y="629" type="curve" smooth="yes"/>
      <point x="647" y="629"/>
      <point x="631" y="636"/>
      <point x="611" y="644" type="curve" smooth="yes"/>
      <point x="587" y="653"/>
      <point x="557" y="663"/>
      <point x="514" y="663" type="curve" smooth="yes"/>
      <point x="268" y="663"/>
      <point x="81" y="486"/>
      <point x="81" y="254" type="curve" smooth="yes"/>
      <point x="81" y="73"/>
      <point x="217" y="-14"/>
      <point x="389" y="-14" type="curve" smooth="yes"/>
    </contour>
    <contour>
      <point x="515" y="675" type="move" name="top.cap"/>
    </contour>
    <contour>
      <point x="383" y="-30" type="move" name="bottom.cap"/>
    </contour>
  </outline>
</glyph>
<glyph name="H" format="1">
  <advance width="761"/>
  <unicode hex="0048"/>
  <note>
    H
  </note>
  <outline>
    <contour>
      <point x="53" y="-5"/>
      <point x="67" y="0"/>
      <point x="107" y="0" type="curve" smooth="yes"/>
      <point x="149" y="0"/>
      <point x="165" y="-5"/>
      <point x="215" y="-5" type="curve" smooth="yes"/>
      <point x="231" y="-5"/>
      <point x="245" y="-2"/>
      <point x="245" y="6" type="curve" smooth="yes"/>
      <point x="245" y="15"/>
      <point x="240" y="20"/>
      <point x="220" y="24" type="curve" smooth="yes"/>
      <point x="180" y="32"/>
      <point x="158" y="64"/>
      <point x="171" y="106" type="curve" smooth="yes"/>
      <point x="228" y="291" type="line"/>
      <point x="230" y="299"/>
      <point x="232" y="302"/>
      <point x="236" y="302" type="curve" smooth="yes"/>
      <point x="591" y="302" type="line" smooth="yes"/>
      <point x="597" y="302"/>
      <point x="593" y="294"/>
      <point x="591" y="287" type="curve" smooth="yes"/>
      <point x="533" y="97" type="line" smooth="yes"/>
      <point x="520" y="54"/>
      <point x="489" y="32"/>
      <point x="447" y="24" type="curve" smooth="yes"/>
      <point x="424" y="20"/>
      <point x="411" y="15"/>
      <point x="411" y="6" type="curve" smooth="yes"/>
      <point x="411" y="-2"/>
      <point x="419" y="-5"/>
      <point x="435" y="-5" type="curve" smooth="yes"/>
      <point x="485" y="-5"/>
      <point x="497" y="0"/>
      <point x="536" y="0" type="curve" smooth="yes"/>
      <point x="574" y="0"/>
      <point x="581" y="-5"/>
      <point x="631" y="-5" type="curve" smooth="yes"/>
      <point x="647" y="-5"/>
      <point x="661" y="-2"/>
      <point x="661" y="6" type="curve" smooth="yes"/>
      <point x="661" y="15"/>
      <point x="656" y="20"/>
      <point x="636" y="24" type="curve" smooth="yes"/>
      <point x="592" y="33"/>
      <point x="593" y="51"/>
      <point x="608" y="100" type="curve" smooth="yes"/>
      <point x="747" y="552" type="line" smooth="yes"/>
      <point x="759" y="590"/>
      <point x="768" y="613"/>
      <point x="817" y="622" type="curve" smooth="yes"/>
      <point x="840" y="626"/>
      <point x="854" y="633"/>
      <point x="854" y="642" type="curve" smooth="yes"/>
      <point x="854" y="650"/>
      <point x="846" y="653"/>
      <point x="830" y="653" type="curve" smooth="yes"/>
      <point x="780" y="653"/>
      <point x="778" y="650"/>
      <point x="745" y="650" type="curve" smooth="yes"/>
      <point x="703" y="650"/>
      <point x="688" y="653"/>
      <point x="638" y="653" type="curve" smooth="yes"/>
      <point x="622" y="653"/>
      <point x="608" y="650"/>
      <point x="608" y="642" type="curve" smooth="yes"/>
      <point x="608" y="633"/>
      <point x="612" y="626"/>
      <point x="632" y="622" type="curve" smooth="yes"/>
      <point x="676" y="613"/>
      <point x="683" y="588"/>
      <point x="672" y="552" type="curve" smooth="yes"/>
      <point x="614" y="362" type="line" smooth="yes"/>
      <point x="611" y="353"/>
      <point x="609" y="350"/>
      <point x="604" y="350" type="curve" smooth="yes"/>
      <point x="259" y="350" type="line" smooth="yes"/>
      <point x="253" y="350"/>
      <point x="247" y="351"/>
      <point x="249" y="359" type="curve"/>
      <point x="307" y="551" type="line" smooth="yes"/>
      <point x="319" y="590"/>
      <point x="343" y="613"/>
      <point x="392" y="622" type="curve" smooth="yes"/>
      <point x="415" y="626"/>
      <point x="429" y="633"/>
      <point x="429" y="642" type="curve" smooth="yes"/>
      <point x="429" y="650"/>
      <point x="421" y="653"/>
      <point x="405" y="653" type="curve" smooth="yes"/>
      <point x="355" y="653"/>
      <point x="344" y="650"/>
      <point x="306" y="650" type="curve" smooth="yes"/>
      <point x="269" y="650"/>
      <point x="261" y="653"/>
      <point x="211" y="653" type="curve" smooth="yes"/>
      <point x="195" y="653"/>
      <point x="181" y="650"/>
      <point x="181" y="642" type="curve" smooth="yes"/>
      <point x="181" y="633"/>
      <point x="185" y="626"/>
      <point x="205" y="622" type="curve" smooth="yes"/>
      <point x="249" y="613"/>
      <point x="247" y="597"/>
      <point x="233" y="551" type="curve" smooth="yes"/>
      <point x="95" y="99" type="line" smooth="yes"/>
      <point x="80" y="51"/>
      <point x="65" y="33"/>
      <point x="16" y="24" type="curve" smooth="yes"/>
      <point x="-7" y="20"/>
      <point x="-20" y="15"/>
      <point x="-20" y="6" type="curve" smooth="yes"/>
      <point x="-20" y="-2"/>
      <point x="-13" y="-5"/>
      <point x="3" y="-5" type="curve" smooth="yes"/>
    </contour>
    <contour>
      <point x="516" y="675" type="move" name="top.cap"/>
    </contour>
    <contour>
      <point x="310" y="-30" type="move" name="bottom.cap"/>
    </contour>
  </outline>
</glyph>
<glyph name="I" format="1">
  <advance width="362"/>
  <unicode hex="0049"/>
  <note>
    I
  </note>
  <outline>
    <contour>
      <point x="54" y="-5"/>
      <point x="78" y="0"/>
      <point x="124" y="0" type="curve" smooth="yes"/>
      <point x="167" y="0"/>
      <point x="182" y="-5"/>
      <point x="232" y="-5" type="curve" smooth="yes"/>
      <point x="248" y="-5"/>
      <point x="262" y="-2"/>
      <point x="262" y="6" type="curve" smooth="yes"/>
      <point x="262" y="15"/>
      <point x="257" y="20"/>
      <point x="237" y="24" type="curve" smooth="yes"/>
      <point x="193" y="33"/>
      <point x="172" y="51"/>
      <point x="186" y="98" type="curve" smooth="yes"/>
      <point x="324" y="550" type="line" smooth="yes"/>
      <point x="338" y="597"/>
      <point x="363" y="613"/>
      <point x="412" y="622" type="curve" smooth="yes"/>
      <point x="435" y="626"/>
      <point x="449" y="633"/>
      <point x="449" y="642" type="curve" smooth="yes"/>
      <point x="449" y="650"/>
      <point x="441" y="653"/>
      <point x="425" y="653" type="curve" smooth="yes"/>
      <point x="375" y="653"/>
      <point x="363" y="650"/>
      <point x="323" y="650" type="curve" smooth="yes"/>
      <point x="280" y="650"/>
      <point x="265" y="653"/>
      <point x="215" y="653" type="curve" smooth="yes"/>
      <point x="199" y="653"/>
      <point x="185" y="650"/>
      <point x="185" y="642" type="curve" smooth="yes"/>
      <point x="185" y="633"/>
      <point x="189" y="626"/>
      <point x="209" y="622" type="curve" smooth="yes"/>
      <point x="253" y="613"/>
      <point x="264" y="597"/>
      <point x="250" y="550" type="curve" smooth="yes"/>
      <point x="112" y="98" type="line" smooth="yes"/>
      <point x="98" y="51"/>
      <point x="65" y="33"/>
      <point x="16" y="24" type="curve" smooth="yes"/>
      <point x="-7" y="20"/>
      <point x="-20" y="15"/>
      <point x="-20" y="6" type="curve" smooth="yes"/>
      <point x="-20" y="-2"/>
      <point x="-12" y="-5"/>
      <point x="4" y="-5" type="curve" smooth="yes"/>
    </contour>
    <contour>
      <point x="331" y="675" type="move" name="top.cap"/>
    </contour>
    <contour>
      <point x="118" y="-30" type="move" name="bottom.cap"/>
    </contour>
  </outline>
</glyph>
<glyph name="J" format="1">
  <advance width="293"/>
  <unicode hex="004A"/>
  <note>
    J
  </note>
  <outline>
    <contour>
      <point x="-40" y="-200"/>
      <point x="2" y="-173"/>
      <point x="39" y="-134" type="curve" smooth="yes"/>
      <point x="77" y="-94"/>
      <point x="109" y="-68"/>
      <point x="173" y="142" type="curve" smooth="yes"/>
      <point x="298" y="551" type="line" smooth="yes"/>
      <point x="313" y="597"/>
      <point x="324" y="613"/>
      <point x="373" y="622" type="curve" smooth="yes"/>
      <point x="396" y="626"/>
      <point x="409" y="633"/>
      <point x="409" y="642" type="curve" smooth="yes"/>
      <point x="409" y="650"/>
      <point x="402" y="653"/>
      <point x="386" y="653" type="curve" smooth="yes"/>
      <point x="336" y="653"/>
      <point x="331" y="650"/>
      <point x="297" y="650" type="curve" smooth="yes"/>
      <point x="254" y="650"/>
      <point x="240" y="653"/>
      <point x="190" y="653" type="curve" smooth="yes"/>
      <point x="174" y="653"/>
      <point x="159" y="650"/>
      <point x="159" y="642" type="curve" smooth="yes"/>
      <point x="159" y="633"/>
      <point x="164" y="626"/>
      <point x="184" y="622" type="curve" smooth="yes"/>
      <point x="228" y="613"/>
      <point x="237" y="597"/>
      <point x="223" y="551" type="curve" smooth="yes"/>
      <point x="54" y="-5" type="line" smooth="yes"/>
      <point x="15" y="-134"/>
      <point x="-15" y="-162"/>
      <point x="-54" y="-162" type="curve" smooth="yes"/>
      <point x="-76" y="-162"/>
      <point x="-96" y="-147"/>
      <point x="-112" y="-135" type="curve" smooth="yes"/>
      <point x="-133" y="-120"/>
      <point x="-149" y="-102"/>
      <point x="-160" y="-102" type="curve" smooth="yes"/>
      <point x="-177" y="-102"/>
      <point x="-184" y="-119"/>
      <point x="-184" y="-147" type="curve" smooth="yes"/>
      <point x="-184" y="-169"/>
      <point x="-155" y="-200"/>
      <point x="-95" y="-200" type="curve" smooth="yes"/>
    </contour>
    <contour>
      <point x="295" y="675" type="move" name="top.cap"/>
    </contour>
  </outline>
</glyph>
<glyph name="K" format="1">
  <advance width="699"/>
  <unicode hex="004B"/>
  <note>
    K
  </note>
  <outline>
    <contour>
      <point x="57" y="-5"/>
      <point x="80" y="2"/>
      <point x="126" y="2" type="curve" smooth="yes"/>
      <point x="164" y="2"/>
      <point x="173" y="-5"/>
      <point x="223" y="-5" type="curve" smooth="yes"/>
      <point x="239" y="-5"/>
      <point x="253" y="-2"/>
      <point x="253" y="6" type="curve" smooth="yes"/>
      <point x="253" y="15"/>
      <point x="248" y="20"/>
      <point x="228" y="24" type="curve" smooth="yes"/>
      <point x="184" y="33"/>
      <point x="171" y="53"/>
      <point x="187" y="110" type="curve" smooth="yes"/>
      <point x="241" y="302" type="line" smooth="yes"/>
      <point x="243" y="310"/>
      <point x="246" y="323"/>
      <point x="251" y="323" type="curve" smooth="yes"/>
      <point x="256" y="323"/>
      <point x="277" y="318"/>
      <point x="284" y="306" type="curve" smooth="yes"/>
      <point x="414" y="89" type="line" smooth="yes"/>
      <point x="453" y="23"/>
      <point x="482" y="0"/>
      <point x="504" y="0" type="curve" smooth="yes"/>
      <point x="555" y="0"/>
      <point x="568" y="-5"/>
      <point x="623" y="-5" type="curve" smooth="yes"/>
      <point x="639" y="-5"/>
      <point x="653" y="-2"/>
      <point x="653" y="6" type="curve" smooth="yes"/>
      <point x="653" y="15"/>
      <point x="649" y="18"/>
      <point x="628" y="24" type="curve" smooth="yes"/>
      <point x="595" y="33"/>
      <point x="568" y="40"/>
      <point x="537" y="70" type="curve" smooth="yes"/>
      <point x="490" y="116"/>
      <point x="433" y="198"/>
      <point x="355" y="339" type="curve"/>
      <point x="351" y="346"/>
      <point x="351" y="352"/>
      <point x="356" y="357" type="curve" smooth="yes"/>
      <point x="447" y="439"/>
      <point x="509" y="496"/>
      <point x="595" y="558" type="curve" smooth="yes"/>
      <point x="650" y="597"/>
      <point x="707" y="615"/>
      <point x="756" y="624" type="curve" smooth="yes"/>
      <point x="779" y="628"/>
      <point x="793" y="635"/>
      <point x="793" y="644" type="curve" smooth="yes"/>
      <point x="793" y="651"/>
      <point x="788" y="655"/>
      <point x="776" y="655" type="curve" smooth="yes"/>
      <point x="740" y="655"/>
      <point x="677" y="651"/>
      <point x="624" y="651" type="curve" smooth="yes"/>
      <point x="574" y="651" type="line" smooth="yes"/>
      <point x="558" y="651"/>
      <point x="538" y="648"/>
      <point x="538" y="640" type="curve" smooth="yes"/>
      <point x="538" y="631"/>
      <point x="547" y="625"/>
      <point x="562" y="620" type="curve" smooth="yes"/>
      <point x="578" y="615"/>
      <point x="581" y="609"/>
      <point x="581" y="605" type="curve" smooth="yes"/>
      <point x="581" y="594"/>
      <point x="567" y="582"/>
      <point x="550" y="567" type="curve" smooth="yes"/>
      <point x="339" y="385" type="line" smooth="yes"/>
      <point x="312" y="362"/>
      <point x="292" y="347"/>
      <point x="272" y="347" type="curve" smooth="yes"/>
      <point x="262" y="347"/>
      <point x="258" y="350"/>
      <point x="261" y="360" type="curve" smooth="yes"/>
      <point x="317" y="551" type="line" smooth="yes"/>
      <point x="333" y="604"/>
      <point x="340" y="613"/>
      <point x="389" y="622" type="curve" smooth="yes"/>
      <point x="412" y="626"/>
      <point x="426" y="633"/>
      <point x="426" y="642" type="curve" smooth="yes"/>
      <point x="426" y="650"/>
      <point x="418" y="653"/>
      <point x="402" y="653" type="curve" smooth="yes"/>
      <point x="352" y="653"/>
      <point x="346" y="651"/>
      <point x="311" y="651" type="curve" smooth="yes"/>
      <point x="271" y="651"/>
      <point x="258" y="653"/>
      <point x="208" y="653" type="curve" smooth="yes"/>
      <point x="192" y="653"/>
      <point x="177" y="650"/>
      <point x="177" y="642" type="curve" smooth="yes"/>
      <point x="177" y="633"/>
      <point x="182" y="626"/>
      <point x="202" y="622" type="curve" smooth="yes"/>
      <point x="246" y="613"/>
      <point x="257" y="597"/>
      <point x="243" y="551" type="curve" smooth="yes"/>
      <point x="105" y="101" type="line" smooth="yes"/>
      <point x="90" y="51"/>
      <point x="68" y="33"/>
      <point x="19" y="24" type="curve" smooth="yes"/>
      <point x="-4" y="20"/>
      <point x="-17" y="15"/>
      <point x="-17" y="6" type="curve" smooth="yes"/>
      <point x="-17" y="-2"/>
      <point x="-9" y="-5"/>
      <point x="7" y="-5" type="curve" smooth="yes"/>
    </contour>
    <contour>
      <point x="477" y="675" type="move" name="top.cap"/>
    </contour>
    <contour>
      <point x="321" y="-30" type="move" name="bottom.cap"/>
    </contour>
  </outline>
</glyph>
<glyph name="L" format="1">
  <advance width="583"/>
  <unicode hex="004C"/>
  <note>
    L
  </note>
  <outline>
    <contour>
      <point x="54" y="-5"/>
      <point x="80" y="1"/>
      <point x="129" y="1" type="curve" smooth="yes"/>
      <point x="222" y="1"/>
      <point x="329" y="-5"/>
      <point x="480" y="-5" type="curve" smooth="yes"/>
      <point x="489" y="-5"/>
      <point x="498" y="3"/>
      <point x="503" y="11" type="curve" smooth="yes"/>
      <point x="521" y="39"/>
      <point x="554" y="132"/>
      <point x="554" y="150" type="curve" smooth="yes"/>
      <point x="554" y="158"/>
      <point x="552" y="162"/>
      <point x="546" y="162" type="curve" smooth="yes"/>
      <point x="538" y="162"/>
      <point x="536" y="160"/>
      <point x="530" y="152" type="curve" smooth="yes"/>
      <point x="509" y="121"/>
      <point x="494" y="97"/>
      <point x="469" y="72" type="curve" smooth="yes"/>
      <point x="443" y="46"/>
      <point x="401" y="30"/>
      <point x="328" y="30" type="curve" smooth="yes"/>
      <point x="248" y="30" type="line" smooth="yes"/>
      <point x="198" y="30"/>
      <point x="191" y="62"/>
      <point x="206" y="113" type="curve" smooth="yes"/>
      <point x="341" y="567" type="line" smooth="yes"/>
      <point x="353" y="606"/>
      <point x="390" y="620"/>
      <point x="442" y="625" type="curve" smooth="yes"/>
      <point x="465" y="627"/>
      <point x="481" y="631"/>
      <point x="481" y="642" type="curve" smooth="yes"/>
      <point x="481" y="650"/>
      <point x="474" y="653"/>
      <point x="458" y="653" type="curve" smooth="yes"/>
      <point x="408" y="653"/>
      <point x="382" y="648"/>
      <point x="336" y="648" type="curve" smooth="yes"/>
      <point x="295" y="648"/>
      <point x="282" y="653"/>
      <point x="232" y="653" type="curve" smooth="yes"/>
      <point x="216" y="653"/>
      <point x="202" y="650"/>
      <point x="202" y="642" type="curve" smooth="yes"/>
      <point x="202" y="633"/>
      <point x="207" y="626"/>
      <point x="227" y="622" type="curve" smooth="yes"/>
      <point x="271" y="613"/>
      <point x="279" y="608"/>
      <point x="264" y="560" type="curve" smooth="yes"/>
      <point x="123" y="99" type="line" smooth="yes"/>
      <point x="109" y="52"/>
      <point x="65" y="33"/>
      <point x="16" y="24" type="curve" smooth="yes"/>
      <point x="-7" y="20"/>
      <point x="-20" y="15"/>
      <point x="-20" y="6" type="curve" smooth="yes"/>
      <point x="-20" y="-2"/>
      <point x="-12" y="-5"/>
      <point x="4" y="-5" type="curve" smooth="yes"/>
    </contour>
    <contour>
      <point x="353" y="675" type="move" name="top.cap"/>
    </contour>
    <contour>
      <point x="301" y="-30" type="move" name="bottom.cap"/>
    </contour>
  </outline>
</glyph>
<glyph name="M" format="1">
  <advance width="993"/>
  <unicode hex="004D"/>
  <note>
    M
  </note>
  <outline>
    <contour>
      <point x="399" y="-14"/>
      <point x="406" y="-6"/>
      <point x="420" y="10" type="curve" smooth="yes"/>
      <point x="835" y="501" type="line" smooth="yes"/>
      <point x="841" y="508"/>
      <point x="849" y="506"/>
      <point x="847" y="499" type="curve" smooth="yes"/>
      <point x="757" y="104" type="line" smooth="yes"/>
      <point x="746" y="57"/>
      <point x="712" y="35"/>
      <point x="653" y="28" type="curve" smooth="yes"/>
      <point x="631" y="25"/>
      <point x="618" y="17"/>
      <point x="618" y="9" type="curve" smooth="yes"/>
      <point x="618" y="1"/>
      <point x="625" y="-3"/>
      <point x="641" y="-3" type="curve" smooth="yes"/>
      <point x="691" y="-3"/>
      <point x="712" y="8"/>
      <point x="758" y="8" type="curve" smooth="yes"/>
      <point x="804" y="8"/>
      <point x="829" y="-3"/>
      <point x="879" y="-3" type="curve" smooth="yes"/>
      <point x="895" y="-3"/>
      <point x="909" y="3"/>
      <point x="909" y="9" type="curve" smooth="yes"/>
      <point x="909" y="18"/>
      <point x="903" y="23"/>
      <point x="883" y="26" type="curve" smooth="yes"/>
      <point x="839" y="33"/>
      <point x="821" y="65"/>
      <point x="831" y="106" type="curve" smooth="yes"/>
      <point x="941" y="575" type="line" smooth="yes"/>
      <point x="948" y="607"/>
      <point x="962" y="615"/>
      <point x="1023" y="623" type="curve" smooth="yes"/>
      <point x="1055" y="627"/>
      <point x="1064" y="634"/>
      <point x="1064" y="645" type="curve" smooth="yes"/>
      <point x="1064" y="654"/>
      <point x="1047" y="658"/>
      <point x="1031" y="658" type="curve" smooth="yes"/>
      <point x="1013" y="658"/>
      <point x="959" y="650"/>
      <point x="944" y="650" type="curve" smooth="yes"/>
      <point x="912" y="650" type="line" smooth="yes"/>
      <point x="903" y="650"/>
      <point x="897" y="646"/>
      <point x="891" y="636" type="curve" smooth="yes"/>
      <point x="881" y="620"/>
      <point x="868" y="599"/>
      <point x="848" y="570" type="curve"/>
      <point x="729" y="429"/>
      <point x="612" y="288"/>
      <point x="488" y="150" type="curve" smooth="yes"/>
      <point x="472" y="132"/>
      <point x="459" y="123"/>
      <point x="458" y="153" type="curve" smooth="yes"/>
      <point x="450" y="605" type="line" smooth="yes"/>
      <point x="449" y="643"/>
      <point x="442" y="653"/>
      <point x="417" y="653" type="curve" smooth="yes"/>
      <point x="374" y="653"/>
      <point x="289" y="658"/>
      <point x="255" y="658" type="curve" smooth="yes"/>
      <point x="229" y="658"/>
      <point x="213" y="653"/>
      <point x="213" y="642" type="curve" smooth="yes"/>
      <point x="213" y="632"/>
      <point x="223" y="622"/>
      <point x="252" y="622" type="curve" smooth="yes"/>
      <point x="348" y="622"/>
      <point x="343" y="582"/>
      <point x="317" y="532" type="curve" smooth="yes"/>
      <point x="105" y="119" type="line" smooth="yes"/>
      <point x="68" y="48"/>
      <point x="48" y="34"/>
      <point x="-15" y="23" type="curve" smooth="yes"/>
      <point x="-38" y="19"/>
      <point x="-50" y="13"/>
      <point x="-50" y="4" type="curve" smooth="yes"/>
      <point x="-50" y="-4"/>
      <point x="-42" y="-6"/>
      <point x="-26" y="-6" type="curve" smooth="yes"/>
      <point x="24" y="-6"/>
      <point x="26" y="0"/>
      <point x="60" y="0" type="curve" smooth="yes"/>
      <point x="106" y="0"/>
      <point x="118" y="-3"/>
      <point x="168" y="-3" type="curve" smooth="yes"/>
      <point x="184" y="-3"/>
      <point x="202" y="1"/>
      <point x="202" y="9" type="curve" smooth="yes"/>
      <point x="202" y="18"/>
      <point x="192" y="23"/>
      <point x="172" y="26" type="curve" smooth="yes"/>
      <point x="143" y="31"/>
      <point x="130" y="52"/>
      <point x="148" y="90" type="curve" smooth="yes"/>
      <point x="348" y="506" type="line" smooth="yes"/>
      <point x="363" y="536"/>
      <point x="382" y="538"/>
      <point x="382" y="509" type="curve" smooth="yes"/>
      <point x="386" y="11" type="line" smooth="yes"/>
      <point x="386" y="-4"/>
      <point x="390" y="-14"/>
      <point x="395" y="-14" type="curve" smooth="yes"/>
    </contour>
    <contour>
      <point x="382" y="-30" type="move" name="bottom.cap"/>
    </contour>
  </outline>
</glyph>
<glyph name="N" format="1">
  <advance width="801"/>
  <unicode hex="004E"/>
  <note>
    N
  </note>
  <outline>
    <contour>
      <point x="66" y="-5"/>
      <point x="82" y="0"/>
      <point x="123" y="0" type="curve" smooth="yes"/>
      <point x="157" y="0"/>
      <point x="172" y="-5"/>
      <point x="222" y="-5" type="curve" smooth="yes"/>
      <point x="238" y="-5"/>
      <point x="252" y="-2"/>
      <point x="252" y="6" type="curve" smooth="yes"/>
      <point x="252" y="15"/>
      <point x="243" y="19"/>
      <point x="223" y="23" type="curve" smooth="yes"/>
      <point x="172" y="33"/>
      <point x="156" y="57"/>
      <point x="168" y="96" type="curve" smooth="yes"/>
      <point x="206" y="218"/>
      <point x="252" y="350"/>
      <point x="291" y="472" type="curve" smooth="yes"/>
      <point x="298" y="494"/>
      <point x="304" y="497"/>
      <point x="311" y="497" type="curve" smooth="yes"/>
      <point x="318" y="497"/>
      <point x="326" y="488"/>
      <point x="335" y="473" type="curve" smooth="yes"/>
      <point x="417" y="326"/>
      <point x="490" y="172"/>
      <point x="571" y="26" type="curve" smooth="yes"/>
      <point x="583" y="5"/>
      <point x="592" y="0"/>
      <point x="613" y="0" type="curve" smooth="yes"/>
      <point x="678" y="0" type="line" smooth="yes"/>
      <point x="682" y="0"/>
      <point x="686" y="0"/>
      <point x="686" y="6" type="curve" smooth="yes"/>
      <point x="686" y="16"/>
      <point x="654" y="49"/>
      <point x="646" y="68" type="curve" smooth="yes"/>
      <point x="639" y="84"/>
      <point x="636" y="94"/>
      <point x="642" y="115" type="curve" smooth="yes"/>
      <point x="655" y="160"/>
      <point x="782" y="531"/>
      <point x="792" y="555" type="curve" smooth="yes"/>
      <point x="814" y="607"/>
      <point x="834" y="618"/>
      <point x="885" y="622" type="curve" smooth="yes"/>
      <point x="908" y="624"/>
      <point x="922" y="633"/>
      <point x="922" y="642" type="curve" smooth="yes"/>
      <point x="922" y="650"/>
      <point x="915" y="653"/>
      <point x="899" y="653" type="curve" smooth="yes"/>
      <point x="842" y="653"/>
      <point x="813" y="647"/>
      <point x="774" y="647" type="curve" smooth="yes"/>
      <point x="735" y="647"/>
      <point x="703" y="651"/>
      <point x="667" y="651" type="curve" smooth="yes"/>
      <point x="651" y="651"/>
      <point x="636" y="648"/>
      <point x="636" y="640" type="curve" smooth="yes"/>
      <point x="636" y="631"/>
      <point x="641" y="623"/>
      <point x="661" y="620" type="curve" smooth="yes"/>
      <point x="725" y="610"/>
      <point x="750" y="591"/>
      <point x="739" y="544" type="curve" smooth="yes"/>
      <point x="732" y="513"/>
      <point x="637" y="198"/>
      <point x="620" y="155" type="curve" smooth="yes"/>
      <point x="614" y="140"/>
      <point x="612" y="135"/>
      <point x="607" y="135" type="curve" smooth="yes"/>
      <point x="600" y="135"/>
      <point x="590" y="148"/>
      <point x="587" y="154" type="curve" smooth="yes"/>
      <point x="328" y="636" type="line" smooth="yes"/>
      <point x="323" y="646"/>
      <point x="313" y="653"/>
      <point x="302" y="653" type="curve" smooth="yes"/>
      <point x="268" y="653"/>
      <point x="227" y="658"/>
      <point x="173" y="658" type="curve" smooth="yes"/>
      <point x="166" y="658"/>
      <point x="148" y="657"/>
      <point x="148" y="644" type="curve" smooth="yes"/>
      <point x="148" y="630"/>
      <point x="162" y="621"/>
      <point x="191" y="616" type="curve" smooth="yes"/>
      <point x="282" y="601"/>
      <point x="290" y="577"/>
      <point x="262" y="502" type="curve" smooth="yes"/>
      <point x="108" y="89" type="line" smooth="yes"/>
      <point x="96" y="57"/>
      <point x="84" y="38"/>
      <point x="21" y="24" type="curve" smooth="yes"/>
      <point x="-2" y="19"/>
      <point x="-8" y="15"/>
      <point x="-8" y="6" type="curve" smooth="yes"/>
      <point x="-8" y="-2"/>
      <point x="0" y="-5"/>
      <point x="16" y="-5" type="curve" smooth="yes"/>
    </contour>
    <contour>
      <point x="508" y="675" type="move" name="top.cap"/>
    </contour>
    <contour>
      <point x="392" y="-30" type="move" name="bottom.cap"/>
    </contour>
  </outline>
</glyph>
<glyph name="O" format="1">
  <advance width="713"/>
  <unicode hex="004F"/>
  <note>
    O
  </note>
  <outline>
    <contour>
      <point x="568" y="-14"/>
      <point x="713" y="215"/>
      <point x="713" y="407" type="curve" smooth="yes"/>
      <point x="713" y="545"/>
      <point x="639" y="664"/>
      <point x="478" y="664" type="curve" smooth="yes"/>
      <point x="223" y="664"/>
      <point x="78" y="435"/>
      <point x="78" y="243" type="curve" smooth="yes"/>
      <point x="78" y="105"/>
      <point x="152" y="-14"/>
      <point x="313" y="-14" type="curve" smooth="yes"/>
    </contour>
    <contour>
      <point x="209" y="17"/>
      <point x="163" y="111"/>
      <point x="163" y="205" type="curve" smooth="yes"/>
      <point x="163" y="399"/>
      <point x="297" y="636"/>
      <point x="475" y="636" type="curve" smooth="yes"/>
      <point x="582" y="636"/>
      <point x="628" y="539"/>
      <point x="628" y="445" type="curve" smooth="yes"/>
      <point x="628" y="251"/>
      <point x="502" y="17"/>
      <point x="316" y="17" type="curve" smooth="yes"/>
    </contour>
    <contour>
      <point x="499" y="675" type="move" name="top.cap"/>
    </contour>
    <contour>
      <point x="308" y="-30" type="move" name="bottom.cap"/>
    </contour>
  </outline>
</glyph>
<glyph name="P" format="1">
  <advance width="565"/>
  <unicode hex="0050"/>
  <note>
    P
  </note>
  <outline>
    <contour>
      <point x="74" y="-5"/>
      <point x="99" y="2"/>
      <point x="147" y="2" type="curve" smooth="yes"/>
      <point x="182" y="2"/>
      <point x="186" y="-5"/>
      <point x="236" y="-5" type="curve" smooth="yes"/>
      <point x="252" y="-5"/>
      <point x="266" y="-2"/>
      <point x="266" y="6" type="curve" smooth="yes"/>
      <point x="266" y="15"/>
      <point x="261" y="20"/>
      <point x="241" y="24" type="curve" smooth="yes"/>
      <point x="197" y="33"/>
      <point x="190" y="63"/>
      <point x="205" y="111" type="curve" smooth="yes"/>
      <point x="351" y="588" type="line" smooth="yes"/>
      <point x="360" y="618"/>
      <point x="364" y="630"/>
      <point x="399" y="630" type="curve" smooth="yes"/>
      <point x="481" y="630"/>
      <point x="534" y="563"/>
      <point x="534" y="480" type="curve" smooth="yes"/>
      <point x="534" y="376"/>
      <point x="462" y="313"/>
      <point x="377" y="290" type="curve" smooth="yes"/>
      <point x="359" y="286"/>
      <point x="340" y="282"/>
      <point x="321" y="280" type="curve" smooth="yes"/>
      <point x="309" y="279"/>
      <point x="298" y="275"/>
      <point x="298" y="267" type="curve" smooth="yes"/>
      <point x="298" y="256"/>
      <point x="327" y="254"/>
      <point x="340" y="254" type="curve" smooth="yes"/>
      <point x="481" y="254"/>
      <point x="619" y="340"/>
      <point x="619" y="469" type="curve" smooth="yes"/>
      <point x="619" y="584"/>
      <point x="533" y="657"/>
      <point x="407" y="657" type="curve" smooth="yes"/>
      <point x="381" y="657"/>
      <point x="333" y="652"/>
      <point x="296" y="652" type="curve" smooth="yes"/>
      <point x="286" y="652"/>
      <point x="217" y="653"/>
      <point x="207" y="653" type="curve" smooth="yes"/>
      <point x="191" y="653"/>
      <point x="177" y="650"/>
      <point x="177" y="642" type="curve" smooth="yes"/>
      <point x="177" y="633"/>
      <point x="181" y="624"/>
      <point x="201" y="622" type="curve" smooth="yes"/>
      <point x="267" y="616"/>
      <point x="280" y="596"/>
      <point x="257" y="522" type="curve" smooth="yes"/>
      <point x="128" y="100" type="line" smooth="yes"/>
      <point x="113" y="51"/>
      <point x="85" y="33"/>
      <point x="36" y="24" type="curve" smooth="yes"/>
      <point x="13" y="20"/>
      <point x="0" y="15"/>
      <point x="0" y="6" type="curve" smooth="yes"/>
      <point x="0" y="-2"/>
      <point x="8" y="-5"/>
      <point x="24" y="-5" type="curve" smooth="yes"/>
    </contour>
  </outline>
</glyph>
<glyph name="Q" format="1">
  <advance width="713"/>
  <unicode hex="0051"/>
  <note>
    Q
  </note>
  <outline>
    <contour>
      <point x="625" y="-270"/>
      <point x="692" y="-217"/>
      <point x="713" y="-171" type="curve" smooth="yes"/>
      <point x="720" y="-157"/>
      <point x="708" y="-145"/>
      <point x="693" y="-165" type="curve" smooth="yes"/>
      <point x="670" y="-196"/>
      <point x="636" y="-217"/>
      <point x="593" y="-217" type="curve" smooth="yes"/>
      <point x="544" y="-217"/>
      <point x="484" y="-180"/>
      <point x="421" y="-142" type="curve" smooth="yes"/>
      <point x="370" y="-111"/>
      <point x="311" y="-85"/>
      <point x="253" y="-85" type="curve" smooth="yes"/>
      <point x="236" y="-85"/>
      <point x="219" y="-88"/>
      <point x="202" y="-93" type="curve"/>
      <point x="223" y="-100" type="line"/>
      <point x="352" y="-60"/>
      <point x="405" y="-26"/>
      <point x="492" y="29" type="curve" smooth="yes"/>
      <point x="640" y="122"/>
      <point x="713" y="272"/>
      <point x="713" y="407" type="curve" smooth="yes"/>
      <point x="713" y="545"/>
      <point x="639" y="664"/>
      <point x="478" y="664" type="curve" smooth="yes"/>
      <point x="223" y="664"/>
      <point x="78" y="435"/>
      <point x="78" y="243" type="curve" smooth="yes"/>
      <point x="78" y="105"/>
      <point x="152" y="-14"/>
      <point x="313" y="-14" type="curve" smooth="yes"/>
      <point x="335" y="-14"/>
      <point x="356" y="-10"/>
      <point x="362" y="-10" type="curve"/>
      <point x="397" y="8" type="line"/>
      <point x="389" y="7"/>
      <point x="381" y="7"/>
      <point x="373" y="7" type="curve" smooth="yes"/>
      <point x="215" y="7"/>
      <point x="163" y="111"/>
      <point x="163" y="205" type="curve" smooth="yes"/>
      <point x="163" y="399"/>
      <point x="298" y="635"/>
      <point x="476" y="635" type="curve" smooth="yes"/>
      <point x="583" y="635"/>
      <point x="628" y="539"/>
      <point x="628" y="445" type="curve" smooth="yes"/>
      <point x="628" y="220"/>
      <point x="500" y="62"/>
      <point x="327" y="-26" type="curve" smooth="yes"/>
      <point x="260" y="-60"/>
      <point x="61" y="-115"/>
      <point x="61" y="-152" type="curve" smooth="yes"/>
      <point x="61" y="-162"/>
      <point x="62" y="-161"/>
      <point x="73" y="-161" type="curve" smooth="yes"/>
      <point x="85" y="-161"/>
      <point x="100" y="-152"/>
      <point x="120" y="-144" type="curve" smooth="yes"/>
      <point x="136" y="-138"/>
      <point x="158" y="-135"/>
      <point x="181" y="-135" type="curve" smooth="yes"/>
      <point x="247" y="-135"/>
      <point x="302" y="-165"/>
      <point x="359" y="-198" type="curve" smooth="yes"/>
      <point x="419" y="-232"/>
      <point x="482" y="-270"/>
      <point x="553" y="-270" type="curve" smooth="yes"/>
    </contour>
  </outline>
</glyph>
<glyph name="R" format="1">
  <advance width="690"/>
  <unicode hex="0052"/>
  <note>
    R
  </note>
  <outline>
    <contour>
      <point x="80" y="-5"/>
      <point x="105" y="2"/>
      <point x="153" y="2" type="curve" smooth="yes"/>
      <point x="188" y="2"/>
      <point x="192" y="-5"/>
      <point x="242" y="-5" type="curve" smooth="yes"/>
      <point x="258" y="-5"/>
      <point x="272" y="-2"/>
      <point x="272" y="6" type="curve" smooth="yes"/>
      <point x="272" y="15"/>
      <point x="267" y="20"/>
      <point x="247" y="24" type="curve" smooth="yes"/>
      <point x="203" y="33"/>
      <point x="196" y="63"/>
      <point x="211" y="111" type="curve" smooth="yes"/>
      <point x="263" y="276" type="line" smooth="yes"/>
      <point x="267" y="290"/>
      <point x="274" y="294"/>
      <point x="303" y="294" type="curve" smooth="yes"/>
      <point x="339" y="294"/>
      <point x="350" y="284"/>
      <point x="366" y="245" type="curve" smooth="yes"/>
      <point x="391" y="185"/>
      <point x="435" y="89"/>
      <point x="468" y="32" type="curve" smooth="yes"/>
      <point x="486" y="1"/>
      <point x="531" y="-4"/>
      <point x="586" y="-4" type="curve" smooth="yes"/>
      <point x="612" y="-4"/>
      <point x="637" y="-2"/>
      <point x="637" y="13" type="curve" smooth="yes"/>
      <point x="637" y="22"/>
      <point x="620" y="27"/>
      <point x="603" y="27" type="curve" smooth="yes"/>
      <point x="564" y="27"/>
      <point x="544" y="46"/>
      <point x="528" y="78" type="curve" smooth="yes"/>
      <point x="500" y="134"/>
      <point x="442" y="259"/>
      <point x="428" y="295" type="curve" smooth="yes"/>
      <point x="424" y="304"/>
      <point x="428" y="309"/>
      <point x="437" y="312" type="curve" smooth="yes"/>
      <point x="523" y="339"/>
      <point x="610" y="398"/>
      <point x="610" y="503" type="curve" smooth="yes"/>
      <point x="610" y="612"/>
      <point x="515" y="657"/>
      <point x="413" y="657" type="curve" smooth="yes"/>
      <point x="387" y="657"/>
      <point x="339" y="652"/>
      <point x="302" y="652" type="curve" smooth="yes"/>
      <point x="292" y="652"/>
      <point x="223" y="653"/>
      <point x="213" y="653" type="curve" smooth="yes"/>
      <point x="197" y="653"/>
      <point x="177" y="650"/>
      <point x="177" y="642" type="curve" smooth="yes"/>
      <point x="177" y="633"/>
      <point x="187" y="624"/>
      <point x="207" y="622" type="curve" smooth="yes"/>
      <point x="273" y="616"/>
      <point x="286" y="596"/>
      <point x="263" y="522" type="curve" smooth="yes"/>
      <point x="134" y="100" type="line" smooth="yes"/>
      <point x="119" y="51"/>
      <point x="91" y="33"/>
      <point x="42" y="24" type="curve" smooth="yes"/>
      <point x="19" y="20"/>
      <point x="6" y="15"/>
      <point x="6" y="6" type="curve" smooth="yes"/>
      <point x="6" y="-2"/>
      <point x="14" y="-5"/>
      <point x="30" y="-5" type="curve" smooth="yes"/>
    </contour>
    <contour>
      <point x="297" y="318"/>
      <point x="287" y="325"/>
      <point x="295" y="356" type="curve" smooth="yes"/>
      <point x="357" y="588" type="line" smooth="yes"/>
      <point x="365" y="618"/>
      <point x="377" y="630"/>
      <point x="405" y="630" type="curve" smooth="yes"/>
      <point x="475" y="630"/>
      <point x="527" y="576"/>
      <point x="527" y="508" type="curve" smooth="yes"/>
      <point x="527" y="360"/>
      <point x="397" y="318"/>
      <point x="341" y="318" type="curve" smooth="yes"/>
    </contour>
    <contour>
      <point x="419" y="675" type="move" name="top.cap"/>
    </contour>
    <contour>
      <point x="340" y="-30" type="move" name="bottom.cap"/>
    </contour>
  </outline>
</glyph>
<glyph name="S" format="1">
  <advance width="467"/>
  <unicode hex="0053"/>
  <note>
    S
  </note>
  <outline>
    <contour>
      <point x="329" y="-15"/>
      <point x="409" y="74"/>
      <point x="409" y="184" type="curve" smooth="yes"/>
      <point x="409" y="240"/>
      <point x="375" y="286"/>
      <point x="307" y="348" type="curve" smooth="yes"/>
      <point x="239" y="411"/>
      <point x="214" y="453"/>
      <point x="214" y="506" type="curve" smooth="yes"/>
      <point x="214" y="570"/>
      <point x="271" y="635"/>
      <point x="342" y="635" type="curve" smooth="yes"/>
      <point x="412" y="635"/>
      <point x="459" y="585"/>
      <point x="459" y="492" type="curve" smooth="yes"/>
      <point x="459" y="477"/>
      <point x="461" y="466"/>
      <point x="471" y="466" type="curve" smooth="yes"/>
      <point x="475" y="466"/>
      <point x="484" y="478"/>
      <point x="487" y="498" type="curve" smooth="yes"/>
      <point x="502" y="601"/>
      <point x="525" y="626"/>
      <point x="525" y="629" type="curve" smooth="yes"/>
      <point x="525" y="634"/>
      <point x="523" y="645"/>
      <point x="513" y="645" type="curve" smooth="yes"/>
      <point x="506" y="645"/>
      <point x="501" y="643"/>
      <point x="496" y="640" type="curve" smooth="yes"/>
      <point x="491" y="637"/>
      <point x="486" y="635"/>
      <point x="477" y="635" type="curve" smooth="yes"/>
      <point x="467" y="635"/>
      <point x="449" y="644"/>
      <point x="423" y="652" type="curve" smooth="yes"/>
      <point x="400" y="658"/>
      <point x="375" y="664"/>
      <point x="354" y="664" type="curve" smooth="yes"/>
      <point x="236" y="664"/>
      <point x="145" y="588"/>
      <point x="145" y="482" type="curve" smooth="yes"/>
      <point x="145" y="406"/>
      <point x="192" y="354"/>
      <point x="249" y="302" type="curve" smooth="yes"/>
      <point x="313" y="242"/>
      <point x="332" y="207"/>
      <point x="332" y="155" type="curve" smooth="yes"/>
      <point x="332" y="66"/>
      <point x="264" y="15"/>
      <point x="179" y="15" type="curve" smooth="yes"/>
      <point x="96" y="15"/>
      <point x="60" y="75"/>
      <point x="60" y="152" type="curve" smooth="yes"/>
      <point x="60" y="179"/>
      <point x="59" y="191"/>
      <point x="48" y="191" type="curve" smooth="yes"/>
      <point x="38" y="191"/>
      <point x="34" y="185"/>
      <point x="32" y="171" type="curve" smooth="yes"/>
      <point x="21" y="92"/>
      <point x="-14" y="31"/>
      <point x="-14" y="19" type="curve" smooth="yes"/>
      <point x="-14" y="11"/>
      <point x="-1" y="0"/>
      <point x="5" y="0" type="curve" smooth="yes"/>
      <point x="10" y="0"/>
      <point x="17" y="5"/>
      <point x="25" y="10" type="curve" smooth="yes"/>
      <point x="32" y="13"/>
      <point x="39" y="16"/>
      <point x="46" y="16" type="curve" smooth="yes"/>
      <point x="50" y="16"/>
      <point x="62" y="11"/>
      <point x="79" y="4" type="curve" smooth="yes"/>
      <point x="113" y="-9"/>
      <point x="148" y="-15"/>
      <point x="182" y="-15" type="curve" smooth="yes"/>
    </contour>
    <contour>
      <point x="370" y="675" type="move" name="top.cap"/>
    </contour>
    <contour>
      <point x="138" y="-30" type="move" name="bottom.cap"/>
    </contour>
  </outline>
</glyph>
<glyph name="T" format="1">
  <advance width="622"/>
  <unicode hex="0054"/>
  <note>
    T
  </note>
  <outline>
    <contour>
      <point x="197" y="-5"/>
      <point x="221" y="0"/>
      <point x="268" y="0" type="curve" smooth="yes"/>
      <point x="310" y="0"/>
      <point x="325" y="-5"/>
      <point x="375" y="-5" type="curve" smooth="yes"/>
      <point x="391" y="-5"/>
      <point x="405" y="-2"/>
      <point x="405" y="6" type="curve" smooth="yes"/>
      <point x="405" y="15"/>
      <point x="400" y="18"/>
      <point x="380" y="22" type="curve" smooth="yes"/>
      <point x="336" y="31"/>
      <point x="316" y="54"/>
      <point x="330" y="102" type="curve" smooth="yes"/>
      <point x="451" y="527" type="line" smooth="yes"/>
      <point x="472" y="603"/>
      <point x="481" y="614"/>
      <point x="507" y="614" type="curve" smooth="yes"/>
      <point x="607" y="614" type="line" smooth="yes"/>
      <point x="657" y="614"/>
      <point x="674" y="581"/>
      <point x="674" y="520" type="curve" smooth="yes"/>
      <point x="674" y="506"/>
      <point x="679" y="497"/>
      <point x="688" y="497" type="curve" smooth="yes"/>
      <point x="693" y="497"/>
      <point x="697" y="500"/>
      <point x="699" y="511" type="curve" smooth="yes"/>
      <point x="709" y="565"/>
      <point x="727" y="614"/>
      <point x="734" y="627" type="curve" smooth="yes"/>
      <point x="738" y="634"/>
      <point x="744" y="646"/>
      <point x="744" y="655" type="curve" smooth="yes"/>
      <point x="744" y="661"/>
      <point x="742" y="666"/>
      <point x="734" y="666" type="curve" smooth="yes"/>
      <point x="729" y="666"/>
      <point x="724" y="661"/>
      <point x="717" y="655" type="curve" smooth="yes"/>
      <point x="710" y="649"/>
      <point x="699" y="642"/>
      <point x="638" y="642" type="curve" smooth="yes"/>
      <point x="281" y="642" type="line" smooth="yes"/>
      <point x="219" y="642"/>
      <point x="211" y="648"/>
      <point x="205" y="654" type="curve" smooth="yes"/>
      <point x="199" y="660"/>
      <point x="192" y="666"/>
      <point x="187" y="666" type="curve" smooth="yes"/>
      <point x="182" y="666"/>
      <point x="173" y="655"/>
      <point x="170" y="646" type="curve" smooth="yes"/>
      <point x="160" y="611"/>
      <point x="141" y="575"/>
      <point x="128" y="548" type="curve" smooth="yes"/>
      <point x="120" y="531"/>
      <point x="118" y="519"/>
      <point x="118" y="517" type="curve" smooth="yes"/>
      <point x="118" y="506"/>
      <point x="121" y="504"/>
      <point x="129" y="504" type="curve" smooth="yes"/>
      <point x="140" y="504"/>
      <point x="154" y="532"/>
      <point x="172" y="553" type="curve" smooth="yes"/>
      <point x="196" y="582"/>
      <point x="227" y="614"/>
      <point x="292" y="614" type="curve" smooth="yes"/>
      <point x="375" y="614" type="line" smooth="yes"/>
      <point x="392" y="614"/>
      <point x="397" y="598"/>
      <point x="378" y="530" type="curve" smooth="yes"/>
      <point x="256" y="102" type="line" smooth="yes"/>
      <point x="242" y="54"/>
      <point x="209" y="31"/>
      <point x="160" y="22" type="curve" smooth="yes"/>
      <point x="137" y="18"/>
      <point x="123" y="15"/>
      <point x="123" y="6" type="curve" smooth="yes"/>
      <point x="123" y="-2"/>
      <point x="131" y="-5"/>
      <point x="147" y="-5" type="curve" smooth="yes"/>
    </contour>
    <contour>
      <point x="455" y="675" type="move" name="top.cap"/>
    </contour>
    <contour>
      <point x="280" y="-30" type="move" name="bottom.cap"/>
    </contour>
  </outline>
</glyph>
<glyph name="U" format="1">
  <advance width="737"/>
  <unicode hex="0055"/>
  <note>
    U
  </note>
  <outline>
    <contour>
      <point x="523" y="-14"/>
      <point x="601" y="99"/>
      <point x="653" y="254" type="curve" smooth="yes"/>
      <point x="684" y="346"/>
      <point x="710" y="432"/>
      <point x="752" y="547" type="curve" smooth="yes"/>
      <point x="766" y="587"/>
      <point x="786" y="615"/>
      <point x="821" y="622" type="curve" smooth="yes"/>
      <point x="844" y="627"/>
      <point x="858" y="633"/>
      <point x="858" y="642" type="curve" smooth="yes"/>
      <point x="858" y="650"/>
      <point x="850" y="653"/>
      <point x="834" y="653" type="curve" smooth="yes"/>
      <point x="813" y="653"/>
      <point x="788" y="650"/>
      <point x="758" y="650" type="curve" smooth="yes"/>
      <point x="731" y="650"/>
      <point x="717" y="651"/>
      <point x="689" y="651" type="curve" smooth="yes"/>
      <point x="673" y="651"/>
      <point x="658" y="648"/>
      <point x="658" y="640" type="curve" smooth="yes"/>
      <point x="658" y="631"/>
      <point x="671" y="624"/>
      <point x="683" y="620" type="curve" smooth="yes"/>
      <point x="707" y="612"/>
      <point x="703" y="562"/>
      <point x="688" y="511" type="curve" smooth="yes"/>
      <point x="666" y="434"/>
      <point x="640" y="344"/>
      <point x="627" y="300" type="curve" smooth="yes"/>
      <point x="579" y="144"/>
      <point x="516" y="26"/>
      <point x="370" y="26" type="curve" smooth="yes"/>
      <point x="272" y="26"/>
      <point x="193" y="90"/>
      <point x="234" y="238" type="curve" smooth="yes"/>
      <point x="321" y="549" type="line" smooth="yes"/>
      <point x="333" y="589"/>
      <point x="366" y="616"/>
      <point x="382" y="621" type="curve" smooth="yes"/>
      <point x="405" y="628"/>
      <point x="418" y="632"/>
      <point x="418" y="641" type="curve" smooth="yes"/>
      <point x="418" y="649"/>
      <point x="411" y="652"/>
      <point x="395" y="652" type="curve" smooth="yes"/>
      <point x="375" y="652"/>
      <point x="349" y="650"/>
      <point x="320" y="650" type="curve" smooth="yes"/>
      <point x="285" y="650"/>
      <point x="259" y="653"/>
      <point x="231" y="653" type="curve" smooth="yes"/>
      <point x="215" y="653"/>
      <point x="193" y="650"/>
      <point x="193" y="642" type="curve" smooth="yes"/>
      <point x="193" y="633"/>
      <point x="205" y="626"/>
      <point x="225" y="620" type="curve" smooth="yes"/>
      <point x="244" y="614"/>
      <point x="260" y="595"/>
      <point x="246" y="547" type="curve" smooth="yes"/>
      <point x="152" y="222" type="line" smooth="yes"/>
      <point x="104" y="55"/>
      <point x="225" y="-14"/>
      <point x="344" y="-14" type="curve" smooth="yes"/>
    </contour>
  </outline>
</glyph>
<glyph name="V" format="1">
  <advance width="683"/>
  <unicode hex="0056"/>
  <note>
    V
  </note>
  <outline>
    <contour>
      <point x="206" y="-14"/>
      <point x="244" y="43"/>
      <point x="286" y="94" type="curve" smooth="yes"/>
      <point x="656" y="543" type="line" smooth="yes"/>
      <point x="695" y="591"/>
      <point x="738" y="610"/>
      <point x="773" y="620" type="curve" smooth="yes"/>
      <point x="796" y="627"/>
      <point x="810" y="634"/>
      <point x="810" y="643" type="curve" smooth="yes"/>
      <point x="810" y="651"/>
      <point x="803" y="656"/>
      <point x="787" y="656" type="curve" smooth="yes"/>
      <point x="756" y="656"/>
      <point x="737" y="650"/>
      <point x="696" y="650" type="curve" smooth="yes"/>
      <point x="662" y="650"/>
      <point x="622" y="652"/>
      <point x="605" y="652" type="curve" smooth="yes"/>
      <point x="589" y="652"/>
      <point x="575" y="649"/>
      <point x="575" y="641" type="curve" smooth="yes"/>
      <point x="575" y="632"/>
      <point x="578" y="624"/>
      <point x="599" y="621" type="curve" smooth="yes"/>
      <point x="627" y="617"/>
      <point x="640" y="580"/>
      <point x="568" y="492" type="curve" smooth="yes"/>
      <point x="288" y="146" type="line" smooth="yes"/>
      <point x="271" y="125"/>
      <point x="264" y="112"/>
      <point x="259" y="112" type="curve" smooth="yes"/>
      <point x="253" y="112"/>
      <point x="251" y="120"/>
      <point x="255" y="143" type="curve" smooth="yes"/>
      <point x="322" y="553" type="line" smooth="yes"/>
      <point x="330" y="603"/>
      <point x="351" y="616"/>
      <point x="390" y="621" type="curve" smooth="yes"/>
      <point x="408" y="623"/>
      <point x="425" y="631"/>
      <point x="425" y="640" type="curve" smooth="yes"/>
      <point x="425" y="648"/>
      <point x="417" y="651"/>
      <point x="401" y="651" type="curve" smooth="yes"/>
      <point x="379" y="651"/>
      <point x="340" y="650"/>
      <point x="304" y="650" type="curve" smooth="yes"/>
      <point x="262" y="650"/>
      <point x="224" y="656"/>
      <point x="198" y="656" type="curve" smooth="yes"/>
      <point x="182" y="656"/>
      <point x="168" y="652"/>
      <point x="168" y="643" type="curve" smooth="yes"/>
      <point x="168" y="634"/>
      <point x="172" y="626"/>
      <point x="192" y="623" type="curve" smooth="yes"/>
      <point x="245" y="615"/>
      <point x="252" y="593"/>
      <point x="249" y="550" type="curve" smooth="yes"/>
      <point x="240" y="439"/>
      <point x="208" y="287"/>
      <point x="163" y="29" type="curve" smooth="yes"/>
      <point x="158" y="2"/>
      <point x="167" y="-14"/>
      <point x="185" y="-14" type="curve" smooth="yes"/>
    </contour>
    <contour>
      <point x="495" y="675" type="move" name="top.cap"/>
    </contour>
    <contour>
      <point x="177" y="-30" type="move" name="bottom.cap"/>
    </contour>
  </outline>
</glyph>
<glyph name="W" format="1">
  <advance width="1067"/>
  <unicode hex="0057"/>
  <note>
    W
  </note>
  <outline>
    <contour>
      <point x="222" y="-14"/>
      <point x="262" y="54"/>
      <point x="298" y="97" type="curve" smooth="yes"/>
      <point x="628" y="492" type="line"/>
      <point x="608" y="372"/>
      <point x="584" y="232"/>
      <point x="564" y="112" type="curve" smooth="yes"/>
      <point x="556" y="64"/>
      <point x="534" y="-14"/>
      <point x="572" y="-14" type="curve" smooth="yes"/>
      <point x="586" y="-14"/>
      <point x="635" y="51"/>
      <point x="670" y="94" type="curve" smooth="yes"/>
      <point x="1040" y="543" type="line" smooth="yes"/>
      <point x="1080" y="592"/>
      <point x="1115" y="612"/>
      <point x="1157" y="620" type="curve" smooth="yes"/>
      <point x="1180" y="624"/>
      <point x="1194" y="634"/>
      <point x="1194" y="643" type="curve" smooth="yes"/>
      <point x="1194" y="651"/>
      <point x="1187" y="656"/>
      <point x="1171" y="656" type="curve" smooth="yes"/>
      <point x="1140" y="656"/>
      <point x="1121" y="650"/>
      <point x="1080" y="650" type="curve" smooth="yes"/>
      <point x="1046" y="650"/>
      <point x="983" y="652"/>
      <point x="966" y="652" type="curve" smooth="yes"/>
      <point x="950" y="652"/>
      <point x="935" y="648"/>
      <point x="935" y="639" type="curve" smooth="yes"/>
      <point x="935" y="629"/>
      <point x="939" y="625"/>
      <point x="960" y="621" type="curve" smooth="yes"/>
      <point x="1007" y="612"/>
      <point x="1016" y="579"/>
      <point x="945" y="490" type="curve" smooth="yes"/>
      <point x="686" y="166" type="line" smooth="yes"/>
      <point x="651" y="122"/>
      <point x="641" y="122"/>
      <point x="648" y="167" type="curve" smooth="yes"/>
      <point x="704" y="551" type="line" smooth="yes"/>
      <point x="711" y="597"/>
      <point x="724" y="613"/>
      <point x="787" y="623" type="curve" smooth="yes"/>
      <point x="810" y="627"/>
      <point x="824" y="634"/>
      <point x="824" y="643" type="curve" smooth="yes"/>
      <point x="824" y="651"/>
      <point x="817" y="656"/>
      <point x="801" y="656" type="curve" smooth="yes"/>
      <point x="769" y="656"/>
      <point x="739" y="650"/>
      <point x="701" y="650" type="curve" smooth="yes"/>
      <point x="662" y="650"/>
      <point x="600" y="656"/>
      <point x="570" y="656" type="curve" smooth="yes"/>
      <point x="554" y="656"/>
      <point x="534" y="653"/>
      <point x="534" y="644" type="curve" smooth="yes"/>
      <point x="534" y="633"/>
      <point x="544" y="626"/>
      <point x="564" y="623" type="curve" smooth="yes"/>
      <point x="614" y="616"/>
      <point x="632" y="602"/>
      <point x="632" y="570" type="curve" smooth="yes"/>
      <point x="632" y="551"/>
      <point x="621" y="528"/>
      <point x="584" y="485" type="curve" smooth="yes"/>
      <point x="313" y="165" type="line" smooth="yes"/>
      <point x="276" y="122"/>
      <point x="267" y="121"/>
      <point x="274" y="167" type="curve" smooth="yes"/>
      <point x="294" y="293"/>
      <point x="314" y="415"/>
      <point x="333" y="539" type="curve" smooth="yes"/>
      <point x="343" y="602"/>
      <point x="351" y="615"/>
      <point x="399" y="620" type="curve" smooth="yes"/>
      <point x="417" y="622"/>
      <point x="439" y="630"/>
      <point x="439" y="639" type="curve" smooth="yes"/>
      <point x="439" y="647"/>
      <point x="428" y="651"/>
      <point x="412" y="651" type="curve" smooth="yes"/>
      <point x="390" y="651"/>
      <point x="354" y="650"/>
      <point x="318" y="650" type="curve" smooth="yes"/>
      <point x="267" y="650"/>
      <point x="231" y="656"/>
      <point x="205" y="656" type="curve" smooth="yes"/>
      <point x="185" y="656"/>
      <point x="168" y="654"/>
      <point x="168" y="643" type="curve" smooth="yes"/>
      <point x="168" y="632"/>
      <point x="179" y="626"/>
      <point x="199" y="623" type="curve" smooth="yes"/>
      <point x="265" y="612"/>
      <point x="272" y="606"/>
      <point x="262" y="523" type="curve" smooth="yes"/>
      <point x="250" y="422"/>
      <point x="217" y="226"/>
      <point x="188" y="78" type="curve" smooth="yes"/>
      <point x="180" y="37"/>
      <point x="183" y="-14"/>
      <point x="208" y="-14" type="curve" smooth="yes"/>
    </contour>
    <contour>
      <point x="698" y="675" type="move" name="top.cap"/>
    </contour>
    <contour>
      <point x="426" y="-30" type="move" name="bottom.cap"/>
    </contour>
  </outline>
</glyph>
<glyph name="X" format="1">
  <advance width="633"/>
  <unicode hex="0058"/>
  <note>
    X
  </note>
  <outline>
    <contour>
      <point x="-6" y="-5"/>
      <point x="40" y="1"/>
      <point x="82" y="1" type="curve" smooth="yes"/>
      <point x="115" y="1"/>
      <point x="151" y="-1"/>
      <point x="168" y="-1" type="curve" smooth="yes"/>
      <point x="184" y="-1"/>
      <point x="198" y="4"/>
      <point x="198" y="12" type="curve" smooth="yes"/>
      <point x="198" y="21"/>
      <point x="194" y="24"/>
      <point x="174" y="30" type="curve" smooth="yes"/>
      <point x="142" y="39"/>
      <point x="137" y="62"/>
      <point x="169" y="100" type="curve" smooth="yes"/>
      <point x="315" y="275" type="line" smooth="yes"/>
      <point x="323" y="285"/>
      <point x="330" y="284"/>
      <point x="334" y="270" type="curve" smooth="yes"/>
      <point x="378" y="111" type="line" smooth="yes"/>
      <point x="390" y="67"/>
      <point x="381" y="43"/>
      <point x="334" y="31" type="curve" smooth="yes"/>
      <point x="320" y="27"/>
      <point x="296" y="20"/>
      <point x="296" y="11" type="curve" smooth="yes"/>
      <point x="296" y="3"/>
      <point x="304" y="0"/>
      <point x="320" y="0" type="curve" smooth="yes"/>
      <point x="342" y="0"/>
      <point x="369" y="1"/>
      <point x="407" y="1" type="curve" smooth="yes"/>
      <point x="451" y="1"/>
      <point x="522" y="-5"/>
      <point x="548" y="-5" type="curve" smooth="yes"/>
      <point x="564" y="-5"/>
      <point x="578" y="-2"/>
      <point x="578" y="6" type="curve" smooth="yes"/>
      <point x="578" y="15"/>
      <point x="573" y="21"/>
      <point x="553" y="26" type="curve" smooth="yes"/>
      <point x="479" y="45"/>
      <point x="463" y="55"/>
      <point x="448" y="111" type="curve" smooth="yes"/>
      <point x="388" y="331" type="line" smooth="yes"/>
      <point x="385" y="343"/>
      <point x="388" y="350"/>
      <point x="406" y="370" type="curve" smooth="yes"/>
      <point x="538" y="513" type="line" smooth="yes"/>
      <point x="589" y="568"/>
      <point x="659" y="615"/>
      <point x="697" y="625" type="curve" smooth="yes"/>
      <point x="720" y="631"/>
      <point x="734" y="636"/>
      <point x="734" y="645" type="curve" smooth="yes"/>
      <point x="734" y="653"/>
      <point x="726" y="656"/>
      <point x="710" y="656" type="curve" smooth="yes"/>
      <point x="685" y="656"/>
      <point x="638" y="650"/>
      <point x="602" y="650" type="curve" smooth="yes"/>
      <point x="574" y="650"/>
      <point x="547" y="651"/>
      <point x="525" y="651" type="curve" smooth="yes"/>
      <point x="509" y="651"/>
      <point x="495" y="648"/>
      <point x="495" y="640" type="curve" smooth="yes"/>
      <point x="495" y="631"/>
      <point x="507" y="623"/>
      <point x="519" y="620" type="curve" smooth="yes"/>
      <point x="552" y="612"/>
      <point x="562" y="595"/>
      <point x="499" y="520" type="curve" smooth="yes"/>
      <point x="392" y="394" type="line" smooth="yes"/>
      <point x="378" y="378"/>
      <point x="370" y="378"/>
      <point x="365" y="397" type="curve" smooth="yes"/>
      <point x="330" y="528" type="line" smooth="yes"/>
      <point x="310" y="601"/>
      <point x="314" y="617"/>
      <point x="365" y="621" type="curve" smooth="yes"/>
      <point x="389" y="623"/>
      <point x="402" y="632"/>
      <point x="402" y="641" type="curve" smooth="yes"/>
      <point x="402" y="649"/>
      <point x="394" y="652"/>
      <point x="378" y="652" type="curve" smooth="yes"/>
      <point x="361" y="652"/>
      <point x="333" y="650"/>
      <point x="296" y="650" type="curve" smooth="yes"/>
      <point x="250" y="650"/>
      <point x="201" y="655"/>
      <point x="170" y="655" type="curve" smooth="yes"/>
      <point x="154" y="655"/>
      <point x="132" y="651"/>
      <point x="132" y="643" type="curve" smooth="yes"/>
      <point x="132" y="634"/>
      <point x="145" y="625"/>
      <point x="164" y="622" type="curve" smooth="yes"/>
      <point x="202" y="616"/>
      <point x="233" y="609"/>
      <point x="256" y="529" type="curve" smooth="yes"/>
      <point x="308" y="351" type="line" smooth="yes"/>
      <point x="318" y="319"/>
      <point x="305" y="304"/>
      <point x="286" y="284" type="curve" smooth="yes"/>
      <point x="134" y="124" type="line" smooth="yes"/>
      <point x="67" y="53"/>
      <point x="24" y="34"/>
      <point x="-23" y="28" type="curve" smooth="yes"/>
      <point x="-47" y="25"/>
      <point x="-61" y="15"/>
      <point x="-61" y="6" type="curve" smooth="yes"/>
      <point x="-61" y="-2"/>
      <point x="-53" y="-5"/>
      <point x="-37" y="-5" type="curve" smooth="yes"/>
    </contour>
    <contour>
      <point x="464" y="675" type="move" name="top.cap"/>
    </contour>
    <contour>
      <point x="237" y="-30" type="move" name="bottom.cap"/>
    </contour>
  </outline>
</glyph>
<glyph name="Y" format="1">
  <advance width="575"/>
  <unicode hex="0059"/>
  <note>
    Y
  </note>
  <outline>
    <contour>
      <point x="173" y="-5"/>
      <point x="196" y="0"/>
      <point x="243" y="0" type="curve" smooth="yes"/>
      <point x="285" y="0"/>
      <point x="301" y="-5"/>
      <point x="351" y="-5" type="curve" smooth="yes"/>
      <point x="367" y="-5"/>
      <point x="381" y="-2"/>
      <point x="381" y="6" type="curve" smooth="yes"/>
      <point x="381" y="15"/>
      <point x="376" y="20"/>
      <point x="356" y="24" type="curve" smooth="yes"/>
      <point x="312" y="33"/>
      <point x="294" y="63"/>
      <point x="308" y="108" type="curve" smooth="yes"/>
      <point x="353" y="256" type="line" smooth="yes"/>
      <point x="365" y="294"/>
      <point x="374" y="320"/>
      <point x="404" y="352" type="curve" smooth="yes"/>
      <point x="441" y="392"/>
      <point x="520" y="482"/>
      <point x="570" y="534" type="curve" smooth="yes"/>
      <point x="599" y="565"/>
      <point x="658" y="611"/>
      <point x="697" y="623" type="curve" smooth="yes"/>
      <point x="716" y="629"/>
      <point x="731" y="633"/>
      <point x="731" y="642" type="curve" smooth="yes"/>
      <point x="731" y="650"/>
      <point x="722" y="653"/>
      <point x="706" y="653" type="curve" smooth="yes"/>
      <point x="685" y="653"/>
      <point x="646" y="650"/>
      <point x="608" y="650" type="curve" smooth="yes"/>
      <point x="578" y="650"/>
      <point x="558" y="651"/>
      <point x="530" y="651" type="curve" smooth="yes"/>
      <point x="514" y="651"/>
      <point x="500" y="648"/>
      <point x="500" y="640" type="curve" smooth="yes"/>
      <point x="500" y="631"/>
      <point x="511" y="623"/>
      <point x="524" y="620" type="curve" smooth="yes"/>
      <point x="562" y="610"/>
      <point x="567" y="592"/>
      <point x="523" y="537" type="curve" smooth="yes"/>
      <point x="478" y="481"/>
      <point x="451" y="444"/>
      <point x="407" y="395" type="curve" smooth="yes"/>
      <point x="390" y="376"/>
      <point x="378" y="363"/>
      <point x="371" y="363" type="curve" smooth="yes"/>
      <point x="364" y="363"/>
      <point x="359" y="375"/>
      <point x="352" y="401" type="curve" smooth="yes"/>
      <point x="310" y="560" type="line" smooth="yes"/>
      <point x="298" y="607"/>
      <point x="305" y="615"/>
      <point x="343" y="621" type="curve" smooth="yes"/>
      <point x="367" y="625"/>
      <point x="380" y="632"/>
      <point x="380" y="641" type="curve" smooth="yes"/>
      <point x="380" y="649"/>
      <point x="373" y="652"/>
      <point x="357" y="652" type="curve" smooth="yes"/>
      <point x="337" y="652"/>
      <point x="311" y="650"/>
      <point x="282" y="650" type="curve" smooth="yes"/>
      <point x="238" y="650"/>
      <point x="202" y="653"/>
      <point x="174" y="653" type="curve" smooth="yes"/>
      <point x="158" y="653"/>
      <point x="139" y="650"/>
      <point x="139" y="642" type="curve" smooth="yes"/>
      <point x="139" y="633"/>
      <point x="148" y="622"/>
      <point x="167" y="620" type="curve" smooth="yes"/>
      <point x="198" y="617"/>
      <point x="216" y="593"/>
      <point x="228" y="548" type="curve" smooth="yes"/>
      <point x="284" y="342" type="line" smooth="yes"/>
      <point x="292" y="314"/>
      <point x="294" y="295"/>
      <point x="285" y="268" type="curve" smooth="yes"/>
      <point x="234" y="108" type="line" smooth="yes"/>
      <point x="219" y="60"/>
      <point x="184" y="33"/>
      <point x="135" y="24" type="curve" smooth="yes"/>
      <point x="112" y="20"/>
      <point x="99" y="15"/>
      <point x="99" y="6" type="curve" smooth="yes"/>
      <point x="99" y="-2"/>
      <point x="107" y="-5"/>
      <point x="123" y="-5" type="curve" smooth="yes"/>
    </contour>
    <contour>
      <point x="437" y="675" type="move" name="top.cap"/>
    </contour>
    <contour>
      <point x="235" y="-30" type="move" name="bottom.cap"/>
    </contour>
  </outline>
</glyph>
<glyph name="Z" format="1">
  <advance width="635"/>
  <unicode hex="005A"/>
  <note>
    Z
  </note>
  <outline>
    <contour>
      <point x="520" y="-5"/>
      <point x="528" y="4"/>
      <point x="533" y="12" type="curve" smooth="yes"/>
      <point x="548" y="36"/>
      <point x="609" y="129"/>
      <point x="609" y="150" type="curve" smooth="yes"/>
      <point x="609" y="159"/>
      <point x="610" y="169"/>
      <point x="600" y="169" type="curve" smooth="yes"/>
      <point x="590" y="169"/>
      <point x="584" y="158"/>
      <point x="579" y="150" type="curve" smooth="yes"/>
      <point x="537" y="82"/>
      <point x="477" y="50"/>
      <point x="409" y="41" type="curve" smooth="yes"/>
      <point x="365" y="35"/>
      <point x="277" y="32"/>
      <point x="235" y="32" type="curve" smooth="yes"/>
      <point x="194" y="32"/>
      <point x="162" y="35"/>
      <point x="136" y="38" type="curve" smooth="yes"/>
      <point x="118" y="40"/>
      <point x="116" y="51"/>
      <point x="130" y="67" type="curve" smooth="yes"/>
      <point x="301" y="263"/>
      <point x="408" y="364"/>
      <point x="594" y="550" type="curve" smooth="yes"/>
      <point x="671" y="627" type="line" smooth="yes"/>
      <point x="675" y="631"/>
      <point x="666" y="649"/>
      <point x="658" y="649" type="curve" smooth="yes"/>
      <point x="589" y="647"/>
      <point x="532" y="646"/>
      <point x="455" y="646" type="curve" smooth="yes"/>
      <point x="413" y="646"/>
      <point x="345" y="646"/>
      <point x="297" y="647" type="curve" smooth="yes"/>
      <point x="264" y="648"/>
      <point x="229" y="653"/>
      <point x="213" y="653" type="curve" smooth="yes"/>
      <point x="198" y="653"/>
      <point x="190" y="644"/>
      <point x="183" y="627" type="curve" smooth="yes"/>
      <point x="174" y="605"/>
      <point x="153" y="564"/>
      <point x="141" y="537" type="curve" smooth="yes"/>
      <point x="136" y="526"/>
      <point x="133" y="516"/>
      <point x="133" y="512" type="curve" smooth="yes"/>
      <point x="133" y="502"/>
      <point x="137" y="493"/>
      <point x="145" y="493" type="curve" smooth="yes"/>
      <point x="154" y="493"/>
      <point x="163" y="503"/>
      <point x="172" y="518" type="curve" smooth="yes"/>
      <point x="208" y="578"/>
      <point x="264" y="605"/>
      <point x="294" y="608" type="curve" smooth="yes"/>
      <point x="360" y="614"/>
      <point x="489" y="619"/>
      <point x="533" y="617" type="curve" smooth="yes"/>
      <point x="555" y="616"/>
      <point x="547" y="606"/>
      <point x="542" y="601" type="curve" smooth="yes"/>
      <point x="357" y="416"/>
      <point x="247" y="290"/>
      <point x="64" y="104" type="curve" smooth="yes"/>
      <point x="33" y="73"/>
      <point x="-15" y="21"/>
      <point x="-18" y="11" type="curve"/>
      <point x="-18" y="11"/>
      <point x="-22" y="-3"/>
      <point x="-16" y="-3" type="curve" smooth="yes"/>
      <point x="37" y="-3"/>
      <point x="134" y="-1"/>
      <point x="167" y="-1" type="curve" smooth="yes"/>
      <point x="250" y="-1"/>
      <point x="405" y="-5"/>
      <point x="502" y="-5" type="curve" smooth="yes"/>
    </contour>
    <contour>
      <point x="423" y="675" type="move" name="top.cap"/>
    </contour>
    <contour>
      <point x="266" y="-30" type="move" name="bottom.cap"/>
    </contour>
  </outline>
</glyph>
<glyph name="bracketleft" format="1">
  <advance width="361"/>
  <unicode hex="005B"/>
  <note>
    bracketleft
  </note>
  <outline>
    <contour>
      <point x="172" y="-200" type="line" smooth="yes"/>
      <point x="182" y="-200"/>
      <point x="200" y="-195"/>
      <point x="200" y="-185" type="curve" smooth="yes"/>
      <point x="200" y="-175"/>
      <point x="190" y="-173"/>
      <point x="179" y="-172" type="curve" smooth="yes"/>
      <point x="136" y="-169"/>
      <point x="102" y="-167"/>
      <point x="75" y="-167" type="curve" smooth="yes"/>
      <point x="55" y="-167"/>
      <point x="50" y="-164"/>
      <point x="56" y="-142" type="curve" smooth="yes"/>
      <point x="102" y="21"/>
      <point x="250" y="494"/>
      <point x="301" y="644" type="curve" smooth="yes"/>
      <point x="306" y="659"/>
      <point x="318" y="673"/>
      <point x="332" y="673" type="curve" smooth="yes"/>
      <point x="362" y="673"/>
      <point x="411" y="674"/>
      <point x="440" y="674" type="curve" smooth="yes"/>
      <point x="451" y="674"/>
      <point x="470" y="677"/>
      <point x="470" y="690" type="curve" smooth="yes"/>
      <point x="470" y="697"/>
      <point x="464" y="701"/>
      <point x="456" y="701" type="curve" smooth="yes"/>
      <point x="290" y="702" type="line" smooth="yes"/>
      <point x="260" y="702"/>
      <point x="257" y="663"/>
      <point x="250" y="640" type="curve"/>
      <point x="2" y="-170" type="line" smooth="yes"/>
      <point x="-7" y="-195"/>
      <point x="-2" y="-200"/>
      <point x="21" y="-200" type="curve" smooth="yes"/>
    </contour>
  </outline>
</glyph>
<glyph name="backslash" format="1">
  <advance width="410"/>
  <unicode hex="005C"/>
  <note>
    backslash
  </note>
  <outline>
    <contour>
      <point x="299" y="-69"/>
      <point x="311" y="-65"/>
      <point x="310" y="-54" type="curve" smooth="yes"/>
      <point x="217" y="651" type="line" smooth="yes"/>
      <point x="215" y="665"/>
      <point x="202" y="669"/>
      <point x="188" y="671" type="curve" smooth="yes"/>
      <point x="179" y="672"/>
      <point x="169" y="665"/>
      <point x="170" y="655" type="curve" smooth="yes"/>
      <point x="261" y="-50" type="line" smooth="yes"/>
      <point x="263" y="-62"/>
      <point x="276" y="-67"/>
      <point x="289" y="-68" type="curve" smooth="yes"/>
    </contour>
  </outline>
</glyph>
<glyph name="bracketright" format="1">
  <advance width="341"/>
  <unicode hex="005D"/>
  <note>
    bracketright
  </note>
  <outline>
    <contour>
      <point x="421" y="702" type="line"/>
      <point x="267" y="701" type="line" smooth="yes"/>
      <point x="259" y="701"/>
      <point x="246" y="695"/>
      <point x="246" y="686" type="curve"/>
      <point x="245" y="675"/>
      <point x="257" y="675"/>
      <point x="267" y="674" type="curve" smooth="yes"/>
      <point x="283" y="672"/>
      <point x="297" y="672"/>
      <point x="310" y="672" type="curve" smooth="yes"/>
      <point x="330" y="672"/>
      <point x="349" y="673"/>
      <point x="374" y="673" type="curve" smooth="yes"/>
      <point x="388" y="673"/>
      <point x="392" y="659"/>
      <point x="388" y="644" type="curve" smooth="yes"/>
      <point x="347" y="495"/>
      <point x="322" y="411"/>
      <point x="276" y="262" type="curve" smooth="yes"/>
      <point x="231" y="114"/>
      <point x="207" y="30"/>
      <point x="159" y="-118" type="curve" smooth="yes"/>
      <point x="144" y="-164"/>
      <point x="137" y="-167"/>
      <point x="117" y="-167" type="curve" smooth="yes"/>
      <point x="75" y="-167"/>
      <point x="52" y="-168"/>
      <point x="8" y="-172" type="curve" smooth="yes"/>
      <point x="-3" y="-173"/>
      <point x="-18" y="-178"/>
      <point x="-22" y="-190" type="curve"/>
      <point x="-25" y="-201"/>
      <point x="-11" y="-203"/>
      <point x="-1" y="-203" type="curve" smooth="yes"/>
      <point x="152" y="-200" type="line" smooth="yes"/>
      <point x="175" y="-200"/>
      <point x="181" y="-195"/>
      <point x="189" y="-170" type="curve" smooth="yes"/>
      <point x="403" y="542" type="line" smooth="yes"/>
      <point x="415" y="580"/>
      <point x="425" y="602"/>
      <point x="437" y="640" type="curve" smooth="yes"/>
      <point x="444" y="664"/>
      <point x="464" y="702"/>
      <point x="434" y="702" type="curve" smooth="yes"/>
    </contour>
  </outline>
</glyph>
<glyph name="grave" format="1">
  <advance width="257"/>
  <unicode hex="0060"/>
  <note>
    grave
  </note>
  <outline>
    <contour>
      <point x="225" y="617"/>
      <point x="269" y="582"/>
      <point x="309" y="471" type="curve"/>
      <point x="312" y="464"/>
      <point x="319" y="449"/>
      <point x="327" y="449" type="curve" smooth="yes"/>
      <point x="336" y="449"/>
      <point x="340" y="453"/>
      <point x="343" y="462" type="curve" smooth="yes"/>
      <point x="348" y="477"/>
      <point x="319" y="603"/>
      <point x="310" y="637" type="curve" smooth="yes"/>
      <point x="305" y="655"/>
      <point x="293" y="664"/>
      <point x="272" y="664" type="curve" smooth="yes"/>
      <point x="256" y="664"/>
      <point x="235" y="650"/>
      <point x="231" y="636" type="curve" smooth="yes"/>
    </contour>
  </outline>
</glyph>
<glyph name="a" format="1">
  <advance width="491"/>
  <unicode hex="0061"/>
  <note>
    a
  </note>
  <outline>
    <contour>
      <point x="105" y="-14"/>
      <point x="167" y="32"/>
      <point x="289" y="168" type="curve" smooth="yes"/>
      <point x="297" y="177"/>
      <point x="298" y="167"/>
      <point x="291" y="153" type="curve" smooth="yes"/>
      <point x="271" y="111"/>
      <point x="232" y="24"/>
      <point x="244" y="48" type="curve" smooth="yes"/>
      <point x="240" y="40"/>
      <point x="238" y="31"/>
      <point x="238" y="25" type="curve" smooth="yes"/>
      <point x="238" y="6"/>
      <point x="260" y="-14"/>
      <point x="281" y="-14" type="curve" smooth="yes"/>
      <point x="313" y="-14"/>
      <point x="352" y="5"/>
      <point x="390" y="40" type="curve" smooth="yes"/>
      <point x="410" y="60"/>
      <point x="433" y="94"/>
      <point x="433" y="103" type="curve" smooth="yes"/>
      <point x="433" y="111"/>
      <point x="431" y="114"/>
      <point x="426" y="114" type="curve" smooth="yes"/>
      <point x="423" y="114"/>
      <point x="419" y="112"/>
      <point x="417" y="109" type="curve" smooth="yes"/>
      <point x="392" y="75"/>
      <point x="353" y="49"/>
      <point x="329" y="49" type="curve" smooth="yes"/>
      <point x="313" y="49"/>
      <point x="308" y="62"/>
      <point x="316" y="83" type="curve" smooth="yes"/>
      <point x="428" y="380" type="line" smooth="yes"/>
      <point x="433" y="394"/>
      <point x="435" y="401"/>
      <point x="435" y="405" type="curve" smooth="yes"/>
      <point x="435" y="415"/>
      <point x="415" y="426"/>
      <point x="397" y="426" type="curve" smooth="yes"/>
      <point x="393" y="426"/>
      <point x="389" y="423"/>
      <point x="385" y="416" type="curve" smooth="yes"/>
      <point x="389" y="421"/>
      <point x="387" y="418"/>
      <point x="368" y="386" type="curve" smooth="yes"/>
      <point x="366" y="382"/>
      <point x="364" y="380"/>
      <point x="362" y="380" type="curve" smooth="yes"/>
      <point x="361" y="380"/>
      <point x="368" y="371"/>
      <point x="350" y="395" type="curve" smooth="yes"/>
      <point x="343" y="403"/>
      <point x="332" y="409"/>
      <point x="322" y="409" type="curve" smooth="yes"/>
      <point x="301" y="409"/>
      <point x="256" y="378"/>
      <point x="184" y="315" type="curve" smooth="yes"/>
      <point x="71" y="216"/>
      <point x="-6" y="101"/>
      <point x="-6" y="30" type="curve" smooth="yes"/>
      <point x="-6" y="8"/>
      <point x="20" y="-14"/>
      <point x="45" y="-14" type="curve" smooth="yes"/>
    </contour>
    <contour>
      <point x="84" y="49"/>
      <point x="72" y="63"/>
      <point x="72" y="83" type="curve" smooth="yes"/>
      <point x="72" y="129"/>
      <point x="135" y="227"/>
      <point x="202" y="292" type="curve" smooth="yes"/>
      <point x="236" y="325"/>
      <point x="285" y="353"/>
      <point x="309" y="353" type="curve" smooth="yes"/>
      <point x="316" y="353"/>
      <point x="326" y="348"/>
      <point x="334" y="342" type="curve" smooth="yes"/>
      <point x="341" y="336"/>
      <point x="347" y="328"/>
      <point x="347" y="323" type="curve" smooth="yes"/>
      <point x="347" y="299"/>
      <point x="315" y="246"/>
      <point x="265" y="187" type="curve" smooth="yes"/>
      <point x="192" y="100"/>
      <point x="130" y="49"/>
      <point x="101" y="49" type="curve" smooth="yes"/>
    </contour>
    <contour>
      <point x="335" y="440" type="move" name="top"/>
    </contour>
    <contour>
      <point x="167" y="-30" type="move" name="bottom"/>
    </contour>
  </outline>
</glyph>
<glyph name="b" format="1">
  <advance width="465"/>
  <unicode hex="0062"/>
  <note>
    b
  </note>
  <outline>
    <contour>
      <point x="305" y="-8"/>
      <point x="458" y="208"/>
      <point x="458" y="332" type="curve" smooth="yes"/>
      <point x="458" y="386"/>
      <point x="432" y="414"/>
      <point x="396" y="414" type="curve" smooth="yes"/>
      <point x="332" y="414"/>
      <point x="250" y="333"/>
      <point x="184" y="251" type="curve" smooth="yes"/>
      <point x="174" y="238"/>
      <point x="164" y="231"/>
      <point x="170" y="250" type="curve" smooth="yes"/>
      <point x="220" y="410"/>
      <point x="292" y="651"/>
      <point x="297" y="664" type="curve" smooth="yes"/>
      <point x="302" y="679"/>
      <point x="304" y="686"/>
      <point x="304" y="697" type="curve" smooth="yes"/>
      <point x="304" y="707"/>
      <point x="294" y="707"/>
      <point x="288" y="707" type="curve" smooth="yes"/>
      <point x="272" y="707"/>
      <point x="197" y="686"/>
      <point x="167" y="671" type="curve" smooth="yes"/>
      <point x="163" y="669"/>
      <point x="161" y="667"/>
      <point x="161" y="662" type="curve" smooth="yes"/>
      <point x="161" y="657"/>
      <point x="177" y="651"/>
      <point x="192" y="647" type="curve" smooth="yes"/>
      <point x="205" y="643"/>
      <point x="217" y="639"/>
      <point x="217" y="633" type="curve" smooth="yes"/>
      <point x="217" y="620"/>
      <point x="214" y="599"/>
      <point x="207" y="576" type="curve" smooth="yes"/>
      <point x="90" y="195" type="line" smooth="yes"/>
      <point x="74" y="144"/>
      <point x="67" y="102"/>
      <point x="67" y="74" type="curve" smooth="yes"/>
      <point x="67" y="25"/>
      <point x="92" y="-8"/>
      <point x="152" y="-8" type="curve" smooth="yes"/>
    </contour>
    <contour>
      <point x="145" y="32"/>
      <point x="126" y="49"/>
      <point x="126" y="91" type="curve" smooth="yes"/>
      <point x="126" y="121"/>
      <point x="159" y="185"/>
      <point x="199" y="234" type="curve" smooth="yes"/>
      <point x="258" y="306"/>
      <point x="336" y="371"/>
      <point x="363" y="371" type="curve" smooth="yes"/>
      <point x="429" y="371"/>
      <point x="372" y="220"/>
      <point x="305" y="132" type="curve" smooth="yes"/>
      <point x="263" y="76"/>
      <point x="208" y="32"/>
      <point x="179" y="32" type="curve" smooth="yes"/>
    </contour>
  </outline>
</glyph>
<glyph name="c" format="1">
  <advance width="296"/>
  <unicode hex="0063"/>
  <note>
    c
  </note>
  <outline>
    <contour>
      <point x="180" y="-15"/>
      <point x="252" y="63"/>
      <point x="252" y="84" type="curve" smooth="yes"/>
      <point x="252" y="91"/>
      <point x="250" y="97"/>
      <point x="244" y="97" type="curve" smooth="yes"/>
      <point x="236" y="97"/>
      <point x="233" y="93"/>
      <point x="224" y="84" type="curve" smooth="yes"/>
      <point x="198" y="60"/>
      <point x="178" y="41"/>
      <point x="135" y="41" type="curve" smooth="yes"/>
      <point x="106" y="41"/>
      <point x="87" y="54"/>
      <point x="87" y="98" type="curve" smooth="yes"/>
      <point x="87" y="208"/>
      <point x="172" y="387"/>
      <point x="236" y="387" type="curve" smooth="yes"/>
      <point x="258" y="387"/>
      <point x="269" y="372"/>
      <point x="277" y="357" type="curve" smooth="yes"/>
      <point x="284" y="344"/>
      <point x="290" y="333"/>
      <point x="301" y="333" type="curve" smooth="yes"/>
      <point x="315" y="333"/>
      <point x="331" y="360"/>
      <point x="331" y="382" type="curve" smooth="yes"/>
      <point x="331" y="399"/>
      <point x="312" y="414"/>
      <point x="276" y="414" type="curve" smooth="yes"/>
      <point x="106" y="414"/>
      <point x="17" y="210"/>
      <point x="15" y="90" type="curve" smooth="yes"/>
      <point x="14" y="28"/>
      <point x="63" y="-15"/>
      <point x="99" y="-15" type="curve" smooth="yes"/>
    </contour>
    <contour>
      <point x="231" y="440" type="move" name="top"/>
    </contour>
    <contour>
      <point x="107" y="-30" type="move" name="bottom"/>
    </contour>
  </outline>
</glyph>
<glyph name="d" format="1">
  <advance width="529"/>
  <unicode hex="0064"/>
  <note>
    d
  </note>
  <outline>
    <contour>
      <point x="160" y="-14"/>
      <point x="227" y="51"/>
      <point x="295" y="139" type="curve" smooth="yes"/>
      <point x="299" y="144"/>
      <point x="303" y="140"/>
      <point x="301" y="129" type="curve" smooth="yes"/>
      <point x="295" y="98"/>
      <point x="289" y="77"/>
      <point x="285" y="57" type="curve" smooth="yes"/>
      <point x="282" y="42"/>
      <point x="281" y="36"/>
      <point x="281" y="31" type="curve" smooth="yes"/>
      <point x="281" y="12"/>
      <point x="306" y="-14"/>
      <point x="331" y="-14" type="curve" smooth="yes"/>
      <point x="377" y="-14"/>
      <point x="425" y="33"/>
      <point x="464" y="81" type="curve" smooth="yes"/>
      <point x="480" y="100"/>
      <point x="484" y="119"/>
      <point x="473" y="119" type="curve" smooth="yes"/>
      <point x="470" y="119"/>
      <point x="468" y="118"/>
      <point x="465" y="114" type="curve" smooth="yes"/>
      <point x="444" y="85"/>
      <point x="396" y="50"/>
      <point x="364" y="50" type="curve" smooth="yes"/>
      <point x="356" y="50"/>
      <point x="349" y="58"/>
      <point x="349" y="76" type="curve" smooth="yes"/>
      <point x="349" y="84"/>
      <point x="350" y="94"/>
      <point x="354" y="107" type="curve" smooth="yes"/>
      <point x="516" y="668" type="line" smooth="yes"/>
      <point x="519" y="678"/>
      <point x="520" y="685"/>
      <point x="520" y="691" type="curve" smooth="yes"/>
      <point x="520" y="701"/>
      <point x="515" y="705"/>
      <point x="508" y="705" type="curve" smooth="yes"/>
      <point x="498" y="705"/>
      <point x="437" y="696"/>
      <point x="415" y="693" type="curve" smooth="yes"/>
      <point x="391" y="690"/>
      <point x="381" y="684"/>
      <point x="381" y="675" type="curve" smooth="yes"/>
      <point x="381" y="669"/>
      <point x="396" y="666"/>
      <point x="411" y="661" type="curve" smooth="yes"/>
      <point x="434" y="652"/>
      <point x="442" y="644"/>
      <point x="442" y="631" type="curve" smooth="yes"/>
      <point x="442" y="625"/>
      <point x="441" y="619"/>
      <point x="438" y="611" type="curve" smooth="yes"/>
      <point x="366" y="387" type="line" smooth="yes"/>
      <point x="365" y="383"/>
      <point x="363" y="381"/>
      <point x="362" y="381" type="curve" smooth="yes"/>
      <point x="359" y="381"/>
      <point x="353" y="389"/>
      <point x="345" y="394" type="curve" smooth="yes"/>
      <point x="331" y="403"/>
      <point x="310" y="420"/>
      <point x="282" y="420" type="curve" smooth="yes"/>
      <point x="236" y="420"/>
      <point x="181" y="381"/>
      <point x="132" y="326" type="curve" smooth="yes"/>
      <point x="62" y="248"/>
      <point x="5" y="136"/>
      <point x="5" y="58" type="curve" smooth="yes"/>
      <point x="5" y="12"/>
      <point x="33" y="-14"/>
      <point x="70" y="-14" type="curve" smooth="yes"/>
    </contour>
    <contour>
      <point x="80" y="30"/>
      <point x="73" y="41"/>
      <point x="73" y="68" type="curve" smooth="yes"/>
      <point x="73" y="199"/>
      <point x="236" y="388"/>
      <point x="296" y="388" type="curve" smooth="yes"/>
      <point x="328" y="388"/>
      <point x="346" y="365"/>
      <point x="346" y="326" type="curve" smooth="yes"/>
      <point x="346" y="227"/>
      <point x="204" y="30"/>
      <point x="107" y="30" type="curve" smooth="yes"/>
    </contour>
    <contour>
      <point x="179" y="-30" type="move" name="bottom"/>
    </contour>
  </outline>
</glyph>
<glyph name="e" format="1">
  <advance width="335"/>
  <unicode hex="0065"/>
  <note>
    e
  </note>
  <outline>
    <contour>
      <point x="170" y="-15"/>
      <point x="231" y="26"/>
      <point x="271" y="91" type="curve"/>
      <point x="273" y="94"/>
      <point x="273" y="97"/>
      <point x="273" y="99" type="curve" smooth="yes"/>
      <point x="273" y="105"/>
      <point x="269" y="109"/>
      <point x="263" y="109" type="curve" smooth="yes"/>
      <point x="258" y="109"/>
      <point x="251" y="106"/>
      <point x="245" y="98" type="curve" smooth="yes"/>
      <point x="225" y="72"/>
      <point x="185" y="35"/>
      <point x="137" y="35" type="curve" smooth="yes"/>
      <point x="103" y="35"/>
      <point x="87" y="62"/>
      <point x="87" y="112" type="curve" smooth="yes"/>
      <point x="87" y="154"/>
      <point x="90" y="179"/>
      <point x="105" y="209" type="curve" smooth="yes"/>
      <point x="109" y="217"/>
      <point x="112" y="219"/>
      <point x="120" y="219" type="curve" smooth="yes"/>
      <point x="190" y="221"/>
      <point x="348" y="275"/>
      <point x="348" y="359" type="curve" smooth="yes"/>
      <point x="348" y="395"/>
      <point x="323" y="414"/>
      <point x="274" y="414" type="curve" smooth="yes"/>
      <point x="132" y="414"/>
      <point x="15" y="223"/>
      <point x="15" y="98" type="curve" smooth="yes"/>
      <point x="15" y="22"/>
      <point x="61" y="-15"/>
      <point x="105" y="-15" type="curve" smooth="yes"/>
    </contour>
    <contour>
      <point x="122" y="242"/>
      <point x="120" y="242"/>
      <point x="120" y="248" type="curve" smooth="yes"/>
      <point x="120" y="278"/>
      <point x="208" y="389"/>
      <point x="263" y="389" type="curve" smooth="yes"/>
      <point x="280" y="389"/>
      <point x="290" y="374"/>
      <point x="290" y="357" type="curve" smooth="yes"/>
      <point x="290" y="277"/>
      <point x="157" y="242"/>
      <point x="127" y="242" type="curve" smooth="yes"/>
    </contour>
    <contour>
      <point x="266" y="440" type="move" name="top"/>
    </contour>
  </outline>
</glyph>
<glyph name="f" format="1">
  <advance width="313"/>
  <unicode hex="0066"/>
  <note>
    f
  </note>
  <outline>
    <contour>
      <point x="-33" y="-288"/>
      <point x="69" y="-212"/>
      <point x="110" y="-36" type="curve" smooth="yes"/>
      <point x="199" y="336" type="line" smooth="yes"/>
      <point x="203" y="351"/>
      <point x="200" y="361"/>
      <point x="240" y="362" type="curve" smooth="yes"/>
      <point x="317" y="363" type="line" smooth="yes"/>
      <point x="335" y="363"/>
      <point x="346" y="383"/>
      <point x="346" y="392" type="curve" smooth="yes"/>
      <point x="346" y="400"/>
      <point x="343" y="403"/>
      <point x="339" y="403" type="curve" smooth="yes"/>
      <point x="305" y="403"/>
      <point x="271" y="400"/>
      <point x="237" y="400" type="curve" smooth="yes"/>
      <point x="228" y="400"/>
      <point x="221" y="403"/>
      <point x="221" y="414" type="curve" smooth="yes"/>
      <point x="221" y="416"/>
      <point x="221" y="419"/>
      <point x="224" y="429" type="curve" smooth="yes"/>
      <point x="227" y="438"/>
      <point x="250" y="522"/>
      <point x="263" y="557" type="curve" smooth="yes"/>
      <point x="281" y="604"/>
      <point x="320" y="664"/>
      <point x="381" y="665" type="curve" smooth="yes"/>
      <point x="423" y="666"/>
      <point x="445" y="640"/>
      <point x="445" y="618" type="curve" smooth="yes"/>
      <point x="445" y="601"/>
      <point x="453" y="590"/>
      <point x="464" y="590" type="curve" smooth="yes"/>
      <point x="484" y="590"/>
      <point x="504" y="616"/>
      <point x="504" y="651" type="curve" smooth="yes"/>
      <point x="504" y="693"/>
      <point x="458" y="706"/>
      <point x="417" y="706" type="curve" smooth="yes"/>
      <point x="343" y="706"/>
      <point x="202" y="637"/>
      <point x="157" y="411" type="curve" smooth="yes"/>
      <point x="155" y="401"/>
      <point x="153" y="398"/>
      <point x="146" y="398" type="curve" smooth="yes"/>
      <point x="71" y="394" type="line"/>
      <point x="61" y="393"/>
      <point x="52" y="379"/>
      <point x="52" y="368" type="curve" smooth="yes"/>
      <point x="52" y="361"/>
      <point x="56" y="356"/>
      <point x="65" y="356" type="curve" smooth="yes"/>
      <point x="127" y="357" type="line" smooth="yes"/>
      <point x="141" y="357"/>
      <point x="144" y="352"/>
      <point x="141" y="339" type="curve"/>
      <point x="41" y="-58" type="line" smooth="yes"/>
      <point x="9" y="-185"/>
      <point x="-12" y="-248"/>
      <point x="-55" y="-248" type="curve" smooth="yes"/>
      <point x="-79" y="-248"/>
      <point x="-95" y="-235"/>
      <point x="-107" y="-222" type="curve" smooth="yes"/>
      <point x="-120" y="-208"/>
      <point x="-129" y="-194"/>
      <point x="-139" y="-194" type="curve" smooth="yes"/>
      <point x="-152" y="-194"/>
      <point x="-178" y="-218"/>
      <point x="-178" y="-238" type="curve" smooth="yes"/>
      <point x="-178" y="-271"/>
      <point x="-145" y="-288"/>
      <point x="-87" y="-288" type="curve" smooth="yes"/>
    </contour>
  </outline>
</glyph>
<glyph name="g" format="1">
  <advance width="407"/>
  <unicode hex="0067"/>
  <note>
    g
  </note>
  <outline>
    <contour>
      <point x="216" y="-290"/>
      <point x="330" y="-233"/>
      <point x="330" y="-163" type="curve" smooth="yes"/>
      <point x="330" y="-143"/>
      <point x="320" y="-126"/>
      <point x="291" y="-105" type="curve" smooth="yes"/>
      <point x="262" y="-84"/>
      <point x="201" y="-46"/>
      <point x="167" y="-23" type="curve" smooth="yes"/>
      <point x="133" y="0"/>
      <point x="123" y="12"/>
      <point x="123" y="36" type="curve" smooth="yes"/>
      <point x="123" y="46"/>
      <point x="126" y="55"/>
      <point x="134" y="65" type="curve" smooth="yes"/>
      <point x="139" y="71"/>
      <point x="146" y="77"/>
      <point x="156" y="77" type="curve" smooth="yes"/>
      <point x="246" y="77"/>
      <point x="339" y="208"/>
      <point x="337" y="311" type="curve" smooth="yes"/>
      <point x="337" y="323"/>
      <point x="336" y="334"/>
      <point x="333" y="344" type="curve" smooth="yes"/>
      <point x="330" y="355"/>
      <point x="343" y="353"/>
      <point x="350" y="353" type="curve" smooth="yes"/>
      <point x="365" y="353"/>
      <point x="406" y="346"/>
      <point x="425" y="346" type="curve" smooth="yes"/>
      <point x="430" y="346"/>
      <point x="435" y="363"/>
      <point x="435" y="392" type="curve" smooth="yes"/>
      <point x="435" y="400"/>
      <point x="427" y="404"/>
      <point x="419" y="404" type="curve" smooth="yes"/>
      <point x="384" y="404"/>
      <point x="356" y="396"/>
      <point x="321" y="391" type="curve" smooth="yes"/>
      <point x="311" y="390"/>
      <point x="302" y="397"/>
      <point x="293" y="402" type="curve" smooth="yes"/>
      <point x="285" y="406"/>
      <point x="275" y="414"/>
      <point x="247" y="414" type="curve" smooth="yes"/>
      <point x="139" y="414"/>
      <point x="53" y="270"/>
      <point x="54" y="180" type="curve" smooth="yes"/>
      <point x="54" y="136"/>
      <point x="70" y="99"/>
      <point x="112" y="80" type="curve" smooth="yes"/>
      <point x="121" y="76"/>
      <point x="124" y="74"/>
      <point x="110" y="64" type="curve" smooth="yes"/>
      <point x="73" y="40"/>
      <point x="57" y="25"/>
      <point x="57" y="11" type="curve" smooth="yes"/>
      <point x="57" y="-15"/>
      <point x="81" y="-35"/>
      <point x="105" y="-56" type="curve" smooth="yes"/>
      <point x="109" y="-60"/>
      <point x="108" y="-63"/>
      <point x="103" y="-65" type="curve" smooth="yes"/>
      <point x="12" y="-95"/>
      <point x="-96" y="-135"/>
      <point x="-96" y="-180" type="curve" smooth="yes"/>
      <point x="-96" y="-248"/>
      <point x="-4" y="-290"/>
      <point x="113" y="-290" type="curve" smooth="yes"/>
    </contour>
    <contour>
      <point x="61" y="-260"/>
      <point x="-32" y="-226"/>
      <point x="-32" y="-182" type="curve" smooth="yes"/>
      <point x="-32" y="-141"/>
      <point x="25" y="-112"/>
      <point x="105" y="-87" type="curve" smooth="yes"/>
      <point x="113" y="-85"/>
      <point x="122" y="-83"/>
      <point x="130" y="-83" type="curve" smooth="yes"/>
      <point x="144" y="-83"/>
      <point x="179" y="-104"/>
      <point x="199" y="-118" type="curve" smooth="yes"/>
      <point x="229" y="-137"/>
      <point x="256" y="-161"/>
      <point x="257" y="-188" type="curve" smooth="yes"/>
      <point x="258" y="-225"/>
      <point x="224" y="-260"/>
      <point x="143" y="-260" type="curve" smooth="yes"/>
    </contour>
    <contour>
      <point x="129" y="104"/>
      <point x="118" y="119"/>
      <point x="117" y="147" type="curve" smooth="yes"/>
      <point x="116" y="222"/>
      <point x="188" y="381"/>
      <point x="245" y="381" type="curve" smooth="yes"/>
      <point x="268" y="381"/>
      <point x="279" y="359"/>
      <point x="279" y="334" type="curve" smooth="yes"/>
      <point x="279" y="265"/>
      <point x="218" y="104"/>
      <point x="158" y="104" type="curve" smooth="yes"/>
    </contour>
    <contour>
      <point x="269" y="440" type="move" name="top"/>
    </contour>
  </outline>
</glyph>
<glyph name="h" format="1">
  <advance width="483"/>
  <unicode hex="0068"/>
  <note>
    h
  </note>
  <outline>
    <contour>
      <point x="72" y="-18"/>
      <point x="85" y="14"/>
      <point x="118" y="78" type="curve" smooth="yes"/>
      <point x="161" y="160"/>
      <point x="305" y="374"/>
      <point x="370" y="374" type="curve" smooth="yes"/>
      <point x="395" y="374"/>
      <point x="408" y="357"/>
      <point x="408" y="326" type="curve" smooth="yes"/>
      <point x="408" y="214"/>
      <point x="331" y="27"/>
      <point x="273" y="27" type="curve" smooth="yes"/>
      <point x="262" y="27"/>
      <point x="255" y="33"/>
      <point x="247" y="40" type="curve" smooth="yes"/>
      <point x="240" y="46"/>
      <point x="232" y="52"/>
      <point x="220" y="52" type="curve" smooth="yes"/>
      <point x="208" y="52"/>
      <point x="194" y="33"/>
      <point x="194" y="23" type="curve" smooth="yes"/>
      <point x="194" y="8"/>
      <point x="218" y="-14"/>
      <point x="233" y="-14" type="curve" smooth="yes"/>
      <point x="270" y="-14"/>
      <point x="327" y="26"/>
      <point x="342" y="42" type="curve" smooth="yes"/>
      <point x="411" y="115"/>
      <point x="474" y="245"/>
      <point x="474" y="348" type="curve" smooth="yes"/>
      <point x="474" y="386"/>
      <point x="450" y="421"/>
      <point x="406" y="421" type="curve" smooth="yes"/>
      <point x="346" y="421"/>
      <point x="242" y="327"/>
      <point x="154" y="197" type="curve" smooth="yes"/>
      <point x="150" y="191"/>
      <point x="145" y="190"/>
      <point x="148" y="200" type="curve" smooth="yes"/>
      <point x="284" y="670" type="line" smooth="yes"/>
      <point x="287" y="679"/>
      <point x="289" y="686"/>
      <point x="289" y="697" type="curve" smooth="yes"/>
      <point x="289" y="707"/>
      <point x="278" y="707"/>
      <point x="272" y="707" type="curve" smooth="yes"/>
      <point x="258" y="707"/>
      <point x="190" y="684"/>
      <point x="170" y="676" type="curve" smooth="yes"/>
      <point x="155" y="670"/>
      <point x="153" y="666"/>
      <point x="153" y="661" type="curve" smooth="yes"/>
      <point x="153" y="656"/>
      <point x="161" y="653"/>
      <point x="171" y="650" type="curve" smooth="yes"/>
      <point x="187" y="645"/>
      <point x="208" y="639"/>
      <point x="208" y="626" type="curve" smooth="yes"/>
      <point x="208" y="612"/>
      <point x="200" y="581"/>
      <point x="193" y="558" type="curve" smooth="yes"/>
      <point x="52" y="75" type="line" smooth="yes"/>
      <point x="44" y="45"/>
      <point x="39" y="28"/>
      <point x="39" y="8" type="curve" smooth="yes"/>
      <point x="39" y="-4"/>
      <point x="46" y="-18"/>
      <point x="56" y="-18" type="curve" smooth="yes"/>
    </contour>
    <contour>
      <point x="180" y="-30" type="move" name="bottom"/>
    </contour>
  </outline>
</glyph>
<glyph name="j" format="1">
  <advance width="255"/>
  <unicode hex="006A"/>
  <note>
    j
  </note>
  <outline>
    <contour>
      <point x="224" y="613"/>
      <point x="200" y="584"/>
      <point x="200" y="552" type="curve" smooth="yes"/>
      <point x="200" y="532"/>
      <point x="215" y="513"/>
      <point x="235" y="513" type="curve" smooth="yes"/>
      <point x="265" y="513"/>
      <point x="290" y="540"/>
      <point x="290" y="570" type="curve" smooth="yes"/>
      <point x="290" y="591"/>
      <point x="277" y="613"/>
      <point x="256" y="613" type="curve" smooth="yes"/>
    </contour>
    <contour>
      <point x="14" y="-144" type="line" smooth="yes"/>
      <point x="-3" y="-202"/>
      <point x="-26" y="-242"/>
      <point x="-62" y="-242" type="curve" smooth="yes"/>
      <point x="-107" y="-242"/>
      <point x="-115" y="-201"/>
      <point x="-139" y="-201" type="curve" smooth="yes"/>
      <point x="-153" y="-201"/>
      <point x="-175" y="-232"/>
      <point x="-175" y="-245" type="curve" smooth="yes"/>
      <point x="-175" y="-264"/>
      <point x="-148" y="-283"/>
      <point x="-101" y="-283" type="curve" smooth="yes"/>
      <point x="-30" y="-283"/>
      <point x="63" y="-205"/>
      <point x="94" y="-102" type="curve" smooth="yes"/>
      <point x="235" y="370" type="line" smooth="yes"/>
      <point x="240" y="387"/>
      <point x="245" y="400"/>
      <point x="245" y="414" type="curve" smooth="yes"/>
      <point x="245" y="425"/>
      <point x="232" y="421"/>
      <point x="226" y="418" type="curve"/>
      <point x="165" y="384"/>
      <point x="129" y="362"/>
      <point x="63" y="315" type="curve" smooth="yes"/>
      <point x="55" y="309"/>
      <point x="54" y="305"/>
      <point x="54" y="300" type="curve" smooth="yes"/>
      <point x="54" y="296"/>
      <point x="65" y="293"/>
      <point x="69" y="295" type="curve" smooth="yes"/>
      <point x="99" y="309"/>
      <point x="125" y="318"/>
      <point x="136" y="318" type="curve" smooth="yes"/>
      <point x="149" y="318"/>
      <point x="143" y="293"/>
      <point x="136" y="270" type="curve" smooth="yes"/>
    </contour>
  </outline>
</glyph>
<glyph name="k" format="1">
  <advance width="469"/>
  <unicode hex="006B"/>
  <note>
    k
  </note>
  <outline>
    <contour>
      <point x="350" y="-21"/>
      <point x="432" y="56"/>
      <point x="432" y="98" type="curve" smooth="yes"/>
      <point x="432" y="103"/>
      <point x="428" y="110"/>
      <point x="426" y="110" type="curve" smooth="yes"/>
      <point x="421" y="110"/>
      <point x="417" y="109"/>
      <point x="410" y="97" type="curve" smooth="yes"/>
      <point x="392" y="68"/>
      <point x="365" y="39"/>
      <point x="340" y="39" type="curve" smooth="yes"/>
      <point x="325" y="39"/>
      <point x="313" y="54"/>
      <point x="307" y="68" type="curve" smooth="yes"/>
      <point x="261" y="177" type="line" smooth="yes"/>
      <point x="258" y="184"/>
      <point x="259" y="186"/>
      <point x="266" y="188" type="curve" smooth="yes"/>
      <point x="334" y="207"/>
      <point x="470" y="300"/>
      <point x="470" y="370" type="curve" smooth="yes"/>
      <point x="470" y="400"/>
      <point x="438" y="415"/>
      <point x="411" y="415" type="curve" smooth="yes"/>
      <point x="344" y="415"/>
      <point x="257" y="353"/>
      <point x="189" y="258" type="curve" smooth="yes"/>
      <point x="184" y="251"/>
      <point x="175" y="247"/>
      <point x="180" y="262" type="curve" smooth="yes"/>
      <point x="315" y="673" type="line" smooth="yes"/>
      <point x="318" y="682"/>
      <point x="318" y="685"/>
      <point x="318" y="696" type="curve" smooth="yes"/>
      <point x="318" y="706"/>
      <point x="308" y="706"/>
      <point x="302" y="706" type="curve" smooth="yes"/>
      <point x="286" y="706"/>
      <point x="219" y="684"/>
      <point x="189" y="669" type="curve" smooth="yes"/>
      <point x="185" y="667"/>
      <point x="183" y="663"/>
      <point x="183" y="658" type="curve" smooth="yes"/>
      <point x="183" y="654"/>
      <point x="196" y="649"/>
      <point x="209" y="644" type="curve" smooth="yes"/>
      <point x="223" y="639"/>
      <point x="231" y="632"/>
      <point x="231" y="624" type="curve" smooth="yes"/>
      <point x="231" y="608"/>
      <point x="229" y="592"/>
      <point x="221" y="567" type="curve" smooth="yes"/>
      <point x="54" y="49" type="line" smooth="yes"/>
      <point x="48" y="29"/>
      <point x="46" y="13"/>
      <point x="46" y="7" type="curve" smooth="yes"/>
      <point x="46" y="-5"/>
      <point x="62" y="-15"/>
      <point x="72" y="-15" type="curve" smooth="yes"/>
      <point x="88" y="-15"/>
      <point x="90" y="-6"/>
      <point x="98" y="16" type="curve" smooth="yes"/>
      <point x="105" y="35"/>
      <point x="137" y="117"/>
      <point x="145" y="136" type="curve" smooth="yes"/>
      <point x="151" y="150"/>
      <point x="163" y="178"/>
      <point x="172" y="178" type="curve" smooth="yes"/>
      <point x="194" y="178"/>
      <point x="210" y="156"/>
      <point x="218" y="134" type="curve" smooth="yes"/>
      <point x="256" y="28" type="line" smooth="yes"/>
      <point x="270" y="-4"/>
      <point x="287" y="-21"/>
      <point x="319" y="-21" type="curve" smooth="yes"/>
    </contour>
    <contour>
      <point x="206" y="203"/>
      <point x="202" y="212"/>
      <point x="202" y="220" type="curve" smooth="yes"/>
      <point x="202" y="248"/>
      <point x="308" y="372"/>
      <point x="364" y="372" type="curve" smooth="yes"/>
      <point x="388" y="372"/>
      <point x="400" y="360"/>
      <point x="400" y="340" type="curve" smooth="yes"/>
      <point x="400" y="296"/>
      <point x="297" y="203"/>
      <point x="214" y="203" type="curve" smooth="yes"/>
    </contour>
    <contour>
      <point x="177" y="-30" type="move" name="bottom"/>
    </contour>
  </outline>
</glyph>
<glyph name="l" format="1">
  <advance width="252"/>
  <unicode hex="006C"/>
  <note>
    l
  </note>
  <outline>
    <contour>
      <point x="129" y="-14"/>
      <point x="258" y="53"/>
      <point x="258" y="107" type="curve" smooth="yes"/>
      <point x="258" y="115"/>
      <point x="258" y="120"/>
      <point x="253" y="120" type="curve" smooth="yes"/>
      <point x="247" y="120"/>
      <point x="237" y="108"/>
      <point x="227" y="97" type="curve" smooth="yes"/>
      <point x="199" y="66"/>
      <point x="164" y="41"/>
      <point x="136" y="41" type="curve" smooth="yes"/>
      <point x="129" y="41"/>
      <point x="126" y="47"/>
      <point x="126" y="57" type="curve" smooth="yes"/>
      <point x="126" y="65"/>
      <point x="128" y="75"/>
      <point x="131" y="86" type="curve" smooth="yes"/>
      <point x="301" y="666" type="line" smooth="yes"/>
      <point x="304" y="675"/>
      <point x="307" y="686"/>
      <point x="307" y="694" type="curve" smooth="yes"/>
      <point x="307" y="704"/>
      <point x="301" y="709"/>
      <point x="295" y="709" type="curve" smooth="yes"/>
      <point x="279" y="709"/>
      <point x="198" y="682"/>
      <point x="163" y="671" type="curve" smooth="yes"/>
      <point x="159" y="670"/>
      <point x="157" y="665"/>
      <point x="157" y="660" type="curve" smooth="yes"/>
      <point x="157" y="655"/>
      <point x="172" y="650"/>
      <point x="186" y="647" type="curve" smooth="yes"/>
      <point x="204" y="643"/>
      <point x="220" y="636"/>
      <point x="220" y="624" type="curve" smooth="yes"/>
      <point x="220" y="607"/>
      <point x="216" y="590"/>
      <point x="210" y="571" type="curve" smooth="yes"/>
      <point x="51" y="42" type="line" smooth="yes"/>
      <point x="42" y="12"/>
      <point x="67" y="-14"/>
      <point x="94" y="-14" type="curve" smooth="yes"/>
    </contour>
  </outline>
</glyph>
<glyph name="m" format="1">
  <advance width="779"/>
  <unicode hex="006D"/>
  <note>
    m
  </note>
  <outline>
    <contour>
      <point x="81" y="-17"/>
      <point x="96" y="14"/>
      <point x="131" y="78" type="curve" smooth="yes"/>
      <point x="171" y="151"/>
      <point x="243" y="259"/>
      <point x="274" y="297" type="curve" smooth="yes"/>
      <point x="318" y="351"/>
      <point x="355" y="377"/>
      <point x="377" y="375" type="curve" smooth="yes"/>
      <point x="386" y="374"/>
      <point x="409" y="365"/>
      <point x="397" y="334" type="curve" smooth="yes"/>
      <point x="304" y="84" type="line" smooth="yes"/>
      <point x="290" y="46"/>
      <point x="281" y="16"/>
      <point x="281" y="10" type="curve" smooth="yes"/>
      <point x="281" y="-2"/>
      <point x="289" y="-17"/>
      <point x="299" y="-17" type="curve" smooth="yes"/>
      <point x="315" y="-17"/>
      <point x="343" y="14"/>
      <point x="378" y="78" type="curve" smooth="yes"/>
      <point x="418" y="151"/>
      <point x="490" y="259"/>
      <point x="521" y="297" type="curve" smooth="yes"/>
      <point x="565" y="351"/>
      <point x="602" y="373"/>
      <point x="624" y="372" type="curve" smooth="yes"/>
      <point x="639" y="371"/>
      <point x="654" y="357"/>
      <point x="644" y="331" type="curve" smooth="yes"/>
      <point x="528" y="32" type="line" smooth="yes"/>
      <point x="520" y="9"/>
      <point x="542" y="-14"/>
      <point x="558" y="-14" type="curve" smooth="yes"/>
      <point x="621" y="-14"/>
      <point x="676" y="37"/>
      <point x="720" y="87" type="curve" smooth="yes"/>
      <point x="734" y="102"/>
      <point x="738" y="112"/>
      <point x="738" y="123" type="curve" smooth="yes"/>
      <point x="738" y="128"/>
      <point x="734" y="132"/>
      <point x="730" y="132" type="curve" smooth="yes"/>
      <point x="729" y="132"/>
      <point x="728" y="132"/>
      <point x="727" y="131" type="curve" smooth="yes"/>
      <point x="717" y="121"/>
      <point x="648" y="50"/>
      <point x="616" y="50" type="curve" smooth="yes"/>
      <point x="604" y="50"/>
      <point x="600" y="60"/>
      <point x="611" y="86" type="curve" smooth="yes"/>
      <point x="697" y="308" type="line" smooth="yes"/>
      <point x="724" y="378"/>
      <point x="690" y="414"/>
      <point x="653" y="414" type="curve" smooth="yes"/>
      <point x="588" y="414"/>
      <point x="506" y="345"/>
      <point x="422" y="208" type="curve" smooth="yes"/>
      <point x="418" y="201"/>
      <point x="409" y="202"/>
      <point x="413" y="212" type="curve" smooth="yes"/>
      <point x="449" y="317" type="line" smooth="yes"/>
      <point x="471" y="381"/>
      <point x="437" y="414"/>
      <point x="399" y="414" type="curve" smooth="yes"/>
      <point x="334" y="414"/>
      <point x="255" y="346"/>
      <point x="172" y="208" type="curve" smooth="yes"/>
      <point x="168" y="201"/>
      <point x="159" y="202"/>
      <point x="163" y="212" type="curve" smooth="yes"/>
      <point x="220" y="360" type="line" smooth="yes"/>
      <point x="236" y="402"/>
      <point x="201" y="414"/>
      <point x="174" y="414" type="curve" smooth="yes"/>
      <point x="129" y="413"/>
      <point x="98" y="392"/>
      <point x="75" y="364" type="curve" smooth="yes"/>
      <point x="66" y="353"/>
      <point x="57" y="326"/>
      <point x="58" y="314" type="curve"/>
      <point x="60" y="304"/>
      <point x="68" y="304"/>
      <point x="73" y="310" type="curve"/>
      <point x="105" y="352"/>
      <point x="125" y="356"/>
      <point x="145" y="356" type="curve" smooth="yes"/>
      <point x="161" y="356"/>
      <point x="168" y="342"/>
      <point x="162" y="325" type="curve" smooth="yes"/>
      <point x="70" y="84" type="line" smooth="yes"/>
      <point x="56" y="46"/>
      <point x="47" y="19"/>
      <point x="47" y="13" type="curve" smooth="yes"/>
      <point x="47" y="1"/>
      <point x="55" y="-17"/>
      <point x="65" y="-17" type="curve" smooth="yes"/>
    </contour>
    <contour>
      <point x="477" y="440" type="move" name="top"/>
    </contour>
    <contour>
      <point x="301" y="-30" type="move" name="bottom"/>
    </contour>
  </outline>
</glyph>
<glyph name="n" format="1">
  <advance width="517"/>
  <unicode hex="006E"/>
  <note>
    n
  </note>
  <outline>
    <contour>
      <point x="71" y="-17"/>
      <point x="79" y="-8"/>
      <point x="91" y="14" type="curve" smooth="yes"/>
      <point x="153" y="129"/>
      <point x="230" y="259"/>
      <point x="261" y="297" type="curve" smooth="yes"/>
      <point x="305" y="351"/>
      <point x="342" y="373"/>
      <point x="364" y="372" type="curve" smooth="yes"/>
      <point x="383" y="371"/>
      <point x="393" y="352"/>
      <point x="372" y="297" type="curve" smooth="yes"/>
      <point x="337" y="208"/>
      <point x="301" y="119"/>
      <point x="266" y="30" type="curve" smooth="yes"/>
      <point x="258" y="8"/>
      <point x="279" y="-14"/>
      <point x="297" y="-14" type="curve" smooth="yes"/>
      <point x="360" y="-14"/>
      <point x="417" y="33"/>
      <point x="469" y="96" type="curve"/>
      <point x="471" y="99"/>
      <point x="473" y="105"/>
      <point x="473" y="110" type="curve" smooth="yes"/>
      <point x="473" y="115"/>
      <point x="469" y="119"/>
      <point x="465" y="119" type="curve" smooth="yes"/>
      <point x="464" y="119"/>
      <point x="463" y="119"/>
      <point x="462" y="118" type="curve" smooth="yes"/>
      <point x="452" y="108"/>
      <point x="388" y="50"/>
      <point x="356" y="50" type="curve" smooth="yes"/>
      <point x="344" y="50"/>
      <point x="340" y="60"/>
      <point x="351" y="86" type="curve" smooth="yes"/>
      <point x="426" y="282" type="line" smooth="yes"/>
      <point x="459" y="370"/>
      <point x="434" y="414"/>
      <point x="388" y="414" type="curve" smooth="yes"/>
      <point x="327" y="414"/>
      <point x="230" y="343"/>
      <point x="154" y="197" type="curve" smooth="yes"/>
      <point x="150" y="190"/>
      <point x="141" y="191"/>
      <point x="145" y="201" type="curve" smooth="yes"/>
      <point x="211" y="371" type="line" smooth="yes"/>
      <point x="220" y="395"/>
      <point x="199" y="414"/>
      <point x="178" y="414" type="curve" smooth="yes"/>
      <point x="133" y="413"/>
      <point x="98" y="394"/>
      <point x="78" y="364" type="curve" smooth="yes"/>
      <point x="70" y="352"/>
      <point x="56" y="326"/>
      <point x="57" y="314" type="curve"/>
      <point x="59" y="304"/>
      <point x="67" y="304"/>
      <point x="72" y="310" type="curve"/>
      <point x="104" y="352"/>
      <point x="126" y="356"/>
      <point x="146" y="356" type="curve" smooth="yes"/>
      <point x="159" y="356"/>
      <point x="155" y="341"/>
      <point x="144" y="312" type="curve" smooth="yes"/>
      <point x="35" y="27" type="line" smooth="yes"/>
      <point x="28" y="10"/>
      <point x="44" y="-17"/>
      <point x="60" y="-17" type="curve" smooth="yes"/>
    </contour>
    <contour>
      <point x="296" y="440" type="move" name="top"/>
    </contour>
    <contour>
      <point x="170" y="-30" type="move" name="bottom"/>
    </contour>
  </outline>
</glyph>
<glyph name="o" format="1">
  <advance width="380"/>
  <unicode hex="006F"/>
  <note>
    o
  </note>
  <outline>
    <contour>
      <point x="262" y="-14"/>
      <point x="362" y="176"/>
      <point x="362" y="296" type="curve" smooth="yes"/>
      <point x="362" y="362"/>
      <point x="324" y="414"/>
      <point x="257" y="414" type="curve" smooth="yes"/>
      <point x="123" y="414"/>
      <point x="17" y="224"/>
      <point x="17" y="99" type="curve" smooth="yes"/>
      <point x="17" y="41"/>
      <point x="59" y="-14"/>
      <point x="108" y="-14" type="curve" smooth="yes"/>
    </contour>
    <contour>
      <point x="97" y="16"/>
      <point x="81" y="34"/>
      <point x="81" y="78" type="curve" smooth="yes"/>
      <point x="81" y="210"/>
      <point x="178" y="384"/>
      <point x="255" y="384" type="curve" smooth="yes"/>
      <point x="289" y="384"/>
      <point x="298" y="359"/>
      <point x="298" y="324" type="curve" smooth="yes"/>
      <point x="298" y="211"/>
      <point x="204" y="16"/>
      <point x="124" y="16" type="curve" smooth="yes"/>
    </contour>
    <contour>
      <point x="278" y="440" type="move" name="top"/>
    </contour>
    <contour>
      <point x="104" y="-30" type="move" name="bottom"/>
    </contour>
  </outline>
</glyph>
<glyph name="p" format="1">
  <advance width="439"/>
  <unicode hex="0070"/>
  <note>
    p
  </note>
  <outline>
    <contour>
      <point x="-48" y="-286"/>
      <point x="-18" y="-283"/>
      <point x="15" y="-279" type="curve" smooth="yes"/>
      <point x="33" y="-277"/>
      <point x="58" y="-275"/>
      <point x="89" y="-275" type="curve" smooth="yes"/>
      <point x="104" y="-275"/>
      <point x="118" y="-272"/>
      <point x="118" y="-264" type="curve" smooth="yes"/>
      <point x="118" y="-254"/>
      <point x="101" y="-250"/>
      <point x="88" y="-249" type="curve" smooth="yes"/>
      <point x="56" y="-247"/>
      <point x="40" y="-236"/>
      <point x="49" y="-208" type="curve" smooth="yes"/>
      <point x="108" y="-20" type="line" smooth="yes"/>
      <point x="116" y="5"/>
      <point x="123" y="6"/>
      <point x="142" y="-7" type="curve" smooth="yes"/>
      <point x="148" y="-11"/>
      <point x="155" y="-14"/>
      <point x="167" y="-14" type="curve" smooth="yes"/>
      <point x="299" y="-14"/>
      <point x="427" y="163"/>
      <point x="427" y="290" type="curve" smooth="yes"/>
      <point x="427" y="360"/>
      <point x="388" y="415"/>
      <point x="288" y="415" type="curve" smooth="yes"/>
      <point x="271" y="415"/>
      <point x="254" y="415"/>
      <point x="237" y="412" type="curve" smooth="yes"/>
      <point x="232" y="411"/>
      <point x="231" y="421"/>
      <point x="234" y="434" type="curve" smooth="yes"/>
      <point x="250" y="497" type="line" smooth="yes"/>
      <point x="253" y="509"/>
      <point x="249" y="517"/>
      <point x="238" y="517" type="curve" smooth="yes"/>
      <point x="208" y="517"/>
      <point x="199" y="503"/>
      <point x="173" y="417" type="curve" smooth="yes"/>
      <point x="170" y="407"/>
      <point x="164" y="405"/>
      <point x="155" y="401" type="curve" smooth="yes"/>
      <point x="105" y="382"/>
      <point x="71" y="365"/>
      <point x="50" y="355" type="curve" smooth="yes"/>
      <point x="43" y="351"/>
      <point x="35" y="342"/>
      <point x="35" y="334" type="curve" smooth="yes"/>
      <point x="35" y="330"/>
      <point x="40" y="329"/>
      <point x="44" y="329" type="curve" smooth="yes"/>
      <point x="47" y="329"/>
      <point x="50" y="329"/>
      <point x="52" y="330" type="curve" smooth="yes"/>
      <point x="79" y="344"/>
      <point x="113" y="355"/>
      <point x="141" y="363" type="curve" smooth="yes"/>
      <point x="147" y="365"/>
      <point x="151" y="366"/>
      <point x="151" y="357" type="curve" smooth="yes"/>
      <point x="151" y="349"/>
      <point x="148" y="335"/>
      <point x="141" y="310" type="curve" smooth="yes"/>
      <point x="-18" y="-220" type="line" smooth="yes"/>
      <point x="-26" y="-246"/>
      <point x="-42" y="-253"/>
      <point x="-70" y="-257" type="curve" smooth="yes"/>
      <point x="-82" y="-259"/>
      <point x="-100" y="-267"/>
      <point x="-100" y="-277" type="curve" smooth="yes"/>
      <point x="-100" y="-284"/>
      <point x="-91" y="-286"/>
      <point x="-84" y="-286" type="curve" smooth="yes"/>
    </contour>
    <contour>
      <point x="163" y="20"/>
      <point x="159" y="33"/>
      <point x="151" y="52" type="curve" smooth="yes"/>
      <point x="144" y="68"/>
      <point x="144" y="87"/>
      <point x="149" y="106" type="curve" smooth="yes"/>
      <point x="214" y="351" type="line" smooth="yes"/>
      <point x="219" y="368"/>
      <point x="228" y="378"/>
      <point x="248" y="378" type="curve" smooth="yes"/>
      <point x="324" y="378"/>
      <point x="353" y="343"/>
      <point x="353" y="281" type="curve" smooth="yes"/>
      <point x="353" y="175"/>
      <point x="248" y="20"/>
      <point x="186" y="20" type="curve" smooth="yes"/>
    </contour>
    <contour>
      <point x="303" y="440" type="move" name="top"/>
    </contour>
  </outline>
</glyph>
<glyph name="q" format="1">
  <advance width="465"/>
  <unicode hex="0071"/>
  <note>
    q
  </note>
  <outline>
    <contour>
      <point x="93" y="176"/>
      <point x="276" y="383"/>
      <point x="338" y="383" type="curve" smooth="yes"/>
      <point x="364" y="383"/>
      <point x="375" y="363"/>
      <point x="375" y="337" type="curve" smooth="yes"/>
      <point x="375" y="281"/>
      <point x="354" y="222"/>
      <point x="318" y="175" type="curve" smooth="yes"/>
      <point x="266" y="107"/>
      <point x="172" y="22"/>
      <point x="119" y="22" type="curve" smooth="yes"/>
      <point x="100" y="22"/>
      <point x="94" y="34"/>
      <point x="94" y="61" type="curve"/>
    </contour>
    <contour>
      <point x="405" y="372"/>
      <point x="399" y="420"/>
      <point x="341" y="420" type="curve" smooth="yes"/>
      <point x="292" y="420"/>
      <point x="223" y="386"/>
      <point x="171" y="331" type="curve" smooth="yes"/>
      <point x="91" y="246"/>
      <point x="24" y="131"/>
      <point x="24" y="47" type="curve" smooth="yes"/>
      <point x="24" y="12"/>
      <point x="53" y="-14"/>
      <point x="84" y="-14" type="curve" smooth="yes"/>
      <point x="173" y="-14"/>
      <point x="249" y="48"/>
      <point x="317" y="136" type="curve"/>
      <point x="321" y="140"/>
      <point x="347" y="164"/>
      <point x="333" y="126" type="curve" smooth="yes"/>
      <point x="206" y="-211" type="line" smooth="yes"/>
      <point x="196" y="-236"/>
      <point x="171" y="-253"/>
      <point x="143" y="-257" type="curve" smooth="yes"/>
      <point x="131" y="-259"/>
      <point x="113" y="-267"/>
      <point x="113" y="-277" type="curve" smooth="yes"/>
      <point x="113" y="-285"/>
      <point x="126" y="-287"/>
      <point x="133" y="-286" type="curve" smooth="yes"/>
      <point x="161" y="-281"/>
      <point x="243" y="-272"/>
      <point x="309" y="-272" type="curve" smooth="yes"/>
      <point x="324" y="-272"/>
      <point x="338" y="-269"/>
      <point x="338" y="-261" type="curve" smooth="yes"/>
      <point x="338" y="-251"/>
      <point x="321" y="-247"/>
      <point x="308" y="-246" type="curve" smooth="yes"/>
      <point x="270" y="-242"/>
      <point x="277" y="-214"/>
      <point x="282" y="-199" type="curve" smooth="yes"/>
      <point x="477" y="390" type="line" smooth="yes"/>
      <point x="482" y="404"/>
      <point x="483" y="401"/>
      <point x="483" y="407" type="curve" smooth="yes"/>
      <point x="483" y="412"/>
      <point x="479" y="428"/>
      <point x="474" y="428" type="curve" smooth="yes"/>
      <point x="464" y="428"/>
      <point x="456" y="422"/>
      <point x="447" y="407" type="curve" smooth="yes"/>
      <point x="434" y="385" type="line"/>
      <point x="429" y="375"/>
      <point x="427" y="372"/>
      <point x="419" y="372" type="curve" smooth="yes"/>
    </contour>
  </outline>
</glyph>
<glyph name="r" format="1">
  <advance width="377"/>
  <unicode hex="0072"/>
  <note>
    r
  </note>
  <outline>
    <contour>
      <point x="67" y="-17"/>
      <point x="88" y="14"/>
      <point x="123" y="78" type="curve" smooth="yes"/>
      <point x="163" y="151"/>
      <point x="233" y="259"/>
      <point x="263" y="298" type="curve" smooth="yes"/>
      <point x="296" y="341"/>
      <point x="318" y="364"/>
      <point x="331" y="364" type="curve" smooth="yes"/>
      <point x="345" y="364"/>
      <point x="349" y="343"/>
      <point x="350" y="323" type="curve" smooth="yes"/>
      <point x="351" y="305"/>
      <point x="355" y="288"/>
      <point x="370" y="288" type="curve" smooth="yes"/>
      <point x="398" y="288"/>
      <point x="412" y="339"/>
      <point x="412" y="366" type="curve" smooth="yes"/>
      <point x="412" y="393"/>
      <point x="392" y="419"/>
      <point x="362" y="419" type="curve" smooth="yes"/>
      <point x="324" y="419"/>
      <point x="258" y="355"/>
      <point x="161" y="208" type="curve"/>
      <point x="157" y="201"/>
      <point x="152" y="202"/>
      <point x="157" y="212" type="curve"/>
      <point x="198" y="309" type="line" smooth="yes"/>
      <point x="223" y="369"/>
      <point x="223" y="414"/>
      <point x="168" y="414" type="curve" smooth="yes"/>
      <point x="123" y="414"/>
      <point x="97" y="392"/>
      <point x="75" y="364" type="curve" smooth="yes"/>
      <point x="66" y="353"/>
      <point x="57" y="326"/>
      <point x="58" y="314" type="curve"/>
      <point x="60" y="304"/>
      <point x="68" y="304"/>
      <point x="73" y="310" type="curve"/>
      <point x="105" y="352"/>
      <point x="125" y="356"/>
      <point x="145" y="356" type="curve" smooth="yes"/>
      <point x="158" y="356"/>
      <point x="154" y="341"/>
      <point x="143" y="312" type="curve" smooth="yes"/>
      <point x="56" y="84" type="line" smooth="yes"/>
      <point x="42" y="46"/>
      <point x="34" y="23"/>
      <point x="34" y="17" type="curve" smooth="yes"/>
      <point x="34" y="5"/>
      <point x="41" y="-17"/>
      <point x="51" y="-17" type="curve" smooth="yes"/>
    </contour>
    <contour>
      <point x="269" y="440" type="move" name="top"/>
    </contour>
  </outline>
</glyph>
<glyph name="s" format="1">
  <advance width="276"/>
  <unicode hex="0073"/>
  <note>
    s
  </note>
  <outline>
    <contour>
      <point x="124" y="-14"/>
      <point x="230" y="44"/>
      <point x="230" y="123" type="curve" smooth="yes"/>
      <point x="230" y="153"/>
      <point x="214" y="200"/>
      <point x="200" y="227" type="curve" smooth="yes"/>
      <point x="186" y="254"/>
      <point x="167" y="302"/>
      <point x="167" y="319" type="curve" smooth="yes"/>
      <point x="167" y="348"/>
      <point x="185" y="368"/>
      <point x="207" y="368" type="curve" smooth="yes"/>
      <point x="225" y="368"/>
      <point x="236" y="360"/>
      <point x="244" y="352" type="curve" smooth="yes"/>
      <point x="252" y="344"/>
      <point x="258" y="336"/>
      <point x="265" y="336" type="curve" smooth="yes"/>
      <point x="277" y="336"/>
      <point x="299" y="361"/>
      <point x="299" y="373" type="curve" smooth="yes"/>
      <point x="299" y="387"/>
      <point x="269" y="414"/>
      <point x="243" y="414" type="curve" smooth="yes"/>
      <point x="209" y="414"/>
      <point x="110" y="353"/>
      <point x="110" y="275" type="curve" smooth="yes"/>
      <point x="110" y="255"/>
      <point x="123" y="225"/>
      <point x="140" y="193" type="curve" smooth="yes"/>
      <point x="156" y="164"/>
      <point x="167" y="132"/>
      <point x="166" y="94" type="curve" smooth="yes"/>
      <point x="165" y="59"/>
      <point x="142" y="34"/>
      <point x="109" y="34" type="curve" smooth="yes"/>
      <point x="79" y="34"/>
      <point x="61" y="46"/>
      <point x="47" y="57" type="curve" smooth="yes"/>
      <point x="35" y="67"/>
      <point x="27" y="76"/>
      <point x="18" y="76" type="curve" smooth="yes"/>
      <point x="9" y="76"/>
      <point x="-10" y="61"/>
      <point x="-10" y="30" type="curve" smooth="yes"/>
      <point x="-10" y="4"/>
      <point x="14" y="-14"/>
      <point x="44" y="-14" type="curve" smooth="yes"/>
    </contour>
  </outline>
</glyph>
<glyph name="t" format="1">
  <advance width="292"/>
  <unicode hex="0074"/>
  <note>
    t
  </note>
  <outline>
    <contour>
      <point x="90" y="-14"/>
      <point x="167" y="28"/>
      <point x="219" y="85" type="curve" smooth="yes"/>
      <point x="230" y="97"/>
      <point x="237" y="109"/>
      <point x="237" y="118" type="curve" smooth="yes"/>
      <point x="237" y="126"/>
      <point x="224" y="129"/>
      <point x="210" y="115" type="curve" smooth="yes"/>
      <point x="189" y="95"/>
      <point x="151" y="59"/>
      <point x="124" y="59" type="curve" smooth="yes"/>
      <point x="101" y="59"/>
      <point x="97" y="74"/>
      <point x="106" y="99" type="curve" smooth="yes"/>
      <point x="195" y="345" type="line" smooth="yes"/>
      <point x="198" y="353"/>
      <point x="205" y="359"/>
      <point x="226" y="360" type="curve" smooth="yes"/>
      <point x="255" y="361"/>
      <point x="281" y="363"/>
      <point x="310" y="365" type="curve" smooth="yes"/>
      <point x="325" y="366"/>
      <point x="329" y="374"/>
      <point x="329" y="377" type="curve" smooth="yes"/>
      <point x="329" y="384"/>
      <point x="327" y="388"/>
      <point x="306" y="392" type="curve" smooth="yes"/>
      <point x="288" y="395"/>
      <point x="258" y="400"/>
      <point x="231" y="400" type="curve" smooth="yes"/>
      <point x="220" y="400"/>
      <point x="215" y="402"/>
      <point x="218" y="411" type="curve"/>
      <point x="244" y="478" type="line" smooth="yes"/>
      <point x="249" y="491"/>
      <point x="247" y="510"/>
      <point x="236" y="510" type="curve" smooth="yes"/>
      <point x="226" y="510"/>
      <point x="190" y="481"/>
      <point x="182" y="465" type="curve" smooth="yes"/>
      <point x="158" y="416" type="line" smooth="yes"/>
      <point x="151" y="401"/>
      <point x="148" y="398"/>
      <point x="134" y="398" type="curve" smooth="yes"/>
      <point x="98" y="398" type="line" smooth="yes"/>
      <point x="80" y="398"/>
      <point x="64" y="377"/>
      <point x="64" y="374" type="curve" smooth="yes"/>
      <point x="64" y="369"/>
      <point x="65" y="361"/>
      <point x="82" y="360" type="curve" smooth="yes"/>
      <point x="122" y="358" type="line"/>
      <point x="128" y="358"/>
      <point x="135" y="355"/>
      <point x="132" y="346" type="curve" smooth="yes"/>
      <point x="37" y="79" type="line" smooth="yes"/>
      <point x="30" y="59"/>
      <point x="23" y="45"/>
      <point x="23" y="23" type="curve" smooth="yes"/>
      <point x="23" y="9"/>
      <point x="47" y="-14"/>
      <point x="64" y="-14" type="curve" smooth="yes"/>
    </contour>
    <contour>
      <point x="219" y="471" type="move" name="top"/>
    </contour>
    <contour>
      <point x="77" y="-30" type="move" name="bottom"/>
    </contour>
  </outline>
</glyph>
<glyph name="u" format="1">
  <advance width="509"/>
  <unicode hex="0075"/>
  <note>
    u
  </note>
  <outline>
    <contour>
      <point x="103" y="-14"/>
      <point x="173" y="59"/>
      <point x="312" y="211" type="curve" smooth="yes"/>
      <point x="319" y="219"/>
      <point x="330" y="219"/>
      <point x="324" y="203" type="curve" smooth="yes"/>
      <point x="314" y="175"/>
      <point x="276" y="93"/>
      <point x="248" y="33" type="curve" smooth="yes"/>
      <point x="240" y="15"/>
      <point x="259" y="-14"/>
      <point x="276" y="-14" type="curve" smooth="yes"/>
      <point x="339" y="-14"/>
      <point x="396" y="37"/>
      <point x="434" y="84" type="curve" smooth="yes"/>
      <point x="450" y="103"/>
      <point x="456" y="114"/>
      <point x="456" y="119" type="curve" smooth="yes"/>
      <point x="456" y="124"/>
      <point x="451" y="128"/>
      <point x="447" y="128" type="curve" smooth="yes"/>
      <point x="446" y="128"/>
      <point x="445" y="128"/>
      <point x="444" y="127" type="curve" smooth="yes"/>
      <point x="414" y="97"/>
      <point x="356" y="47"/>
      <point x="330" y="47" type="curve" smooth="yes"/>
      <point x="318" y="47"/>
      <point x="316" y="60"/>
      <point x="327" y="86" type="curve" smooth="yes"/>
      <point x="455" y="380" type="line" smooth="yes"/>
      <point x="460" y="391"/>
      <point x="445" y="414"/>
      <point x="433" y="414" type="curve" smooth="yes"/>
      <point x="425" y="414"/>
      <point x="415" y="411"/>
      <point x="408" y="398" type="curve" smooth="yes"/>
      <point x="391" y="367"/>
      <point x="314" y="259"/>
      <point x="239" y="174" type="curve" smooth="yes"/>
      <point x="183" y="112"/>
      <point x="130" y="55"/>
      <point x="110" y="55" type="curve" smooth="yes"/>
      <point x="96" y="55"/>
      <point x="101" y="82"/>
      <point x="113" y="109" type="curve" smooth="yes"/>
      <point x="153" y="199"/>
      <point x="192" y="294"/>
      <point x="236" y="385" type="curve" smooth="yes"/>
      <point x="243" y="399"/>
      <point x="224" y="418"/>
      <point x="214" y="418" type="curve" smooth="yes"/>
      <point x="185" y="418"/>
      <point x="109" y="380"/>
      <point x="59" y="313" type="curve" smooth="yes"/>
      <point x="48" y="298"/>
      <point x="47" y="288"/>
      <point x="47" y="283" type="curve" smooth="yes"/>
      <point x="47" y="279"/>
      <point x="57" y="277"/>
      <point x="60" y="280" type="curve"/>
      <point x="89" y="306"/>
      <point x="121" y="333"/>
      <point x="132" y="333" type="curve" smooth="yes"/>
      <point x="142" y="333"/>
      <point x="138" y="314"/>
      <point x="129" y="292" type="curve" smooth="yes"/>
      <point x="27" y="47" type="line" smooth="yes"/>
      <point x="13" y="12"/>
      <point x="21" y="-14"/>
      <point x="55" y="-14" type="curve" smooth="yes"/>
    </contour>
    <contour>
      <point x="329" y="440" type="move" name="top"/>
    </contour>
    <contour>
      <point x="167" y="-30" type="move" name="bottom"/>
    </contour>
  </outline>
</glyph>
<glyph name="v" format="1">
  <advance width="395"/>
  <unicode hex="0076"/>
  <note>
    v
  </note>
  <outline>
    <contour>
      <point x="220" y="373" type="line" smooth="yes"/>
      <point x="231" y="406"/>
      <point x="221" y="418"/>
      <point x="201" y="418" type="curve" smooth="yes"/>
      <point x="172" y="418"/>
      <point x="117" y="380"/>
      <point x="67" y="313" type="curve" smooth="yes"/>
      <point x="56" y="298"/>
      <point x="55" y="288"/>
      <point x="55" y="283" type="curve" smooth="yes"/>
      <point x="55" y="281"/>
      <point x="57" y="278"/>
      <point x="62" y="278" type="curve" smooth="yes"/>
      <point x="64" y="278"/>
      <point x="68" y="278"/>
      <point x="75" y="286" type="curve" smooth="yes"/>
      <point x="96" y="309"/>
      <point x="124" y="333"/>
      <point x="133" y="333" type="curve" smooth="yes"/>
      <point x="149" y="333"/>
      <point x="145" y="315"/>
      <point x="135" y="288" type="curve" smooth="yes"/>
      <point x="80" y="143" type="line" smooth="yes"/>
      <point x="45" y="48"/>
      <point x="77" y="-14"/>
      <point x="133" y="-14" type="curve" smooth="yes"/>
      <point x="187" y="-14"/>
      <point x="248" y="18"/>
      <point x="302" y="81" type="curve" smooth="yes"/>
      <point x="379" y="172"/>
      <point x="405" y="261"/>
      <point x="405" y="349" type="curve" smooth="yes"/>
      <point x="405" y="395"/>
      <point x="390" y="418"/>
      <point x="376" y="418" type="curve" smooth="yes"/>
      <point x="348" y="418"/>
      <point x="315" y="391"/>
      <point x="315" y="373" type="curve" smooth="yes"/>
      <point x="315" y="361"/>
      <point x="320" y="354"/>
      <point x="329" y="344" type="curve" smooth="yes"/>
      <point x="345" y="328"/>
      <point x="358" y="310"/>
      <point x="358" y="288" type="curve" smooth="yes"/>
      <point x="358" y="173"/>
      <point x="259" y="43"/>
      <point x="162" y="43" type="curve" smooth="yes"/>
      <point x="132" y="43"/>
      <point x="117" y="74"/>
      <point x="137" y="133" type="curve" smooth="yes"/>
    </contour>
  </outline>
</glyph>
